%TF.GenerationSoftware,KiCad,Pcbnew,(6.0.0)*%
%TF.CreationDate,2022-04-09T17:12:42-04:00*%
%TF.ProjectId,ToneEncoderDecoder,546f6e65-456e-4636-9f64-65724465636f,rev?*%
%TF.SameCoordinates,Original*%
%TF.FileFunction,Soldermask,Bot*%
%TF.FilePolarity,Negative*%
%FSLAX46Y46*%
G04 Gerber Fmt 4.6, Leading zero omitted, Abs format (unit mm)*
G04 Created by KiCad (PCBNEW (6.0.0)) date 2022-04-09 17:12:42*
%MOMM*%
%LPD*%
G01*
G04 APERTURE LIST*
G04 Aperture macros list*
%AMRoundRect*
0 Rectangle with rounded corners*
0 $1 Rounding radius*
0 $2 $3 $4 $5 $6 $7 $8 $9 X,Y pos of 4 corners*
0 Add a 4 corners polygon primitive as box body*
4,1,4,$2,$3,$4,$5,$6,$7,$8,$9,$2,$3,0*
0 Add four circle primitives for the rounded corners*
1,1,$1+$1,$2,$3*
1,1,$1+$1,$4,$5*
1,1,$1+$1,$6,$7*
1,1,$1+$1,$8,$9*
0 Add four rect primitives between the rounded corners*
20,1,$1+$1,$2,$3,$4,$5,0*
20,1,$1+$1,$4,$5,$6,$7,0*
20,1,$1+$1,$6,$7,$8,$9,0*
20,1,$1+$1,$8,$9,$2,$3,0*%
G04 Aperture macros list end*
%ADD10R,1.700000X1.700000*%
%ADD11O,1.700000X1.700000*%
%ADD12C,1.440000*%
%ADD13C,6.400000*%
%ADD14C,1.600000*%
%ADD15RoundRect,0.237500X-0.300000X-0.237500X0.300000X-0.237500X0.300000X0.237500X-0.300000X0.237500X0*%
%ADD16R,0.450000X1.500000*%
%ADD17RoundRect,0.237500X0.300000X0.237500X-0.300000X0.237500X-0.300000X-0.237500X0.300000X-0.237500X0*%
%ADD18RoundRect,0.237500X0.237500X-0.300000X0.237500X0.300000X-0.237500X0.300000X-0.237500X-0.300000X0*%
%ADD19RoundRect,0.237500X-0.237500X0.300000X-0.237500X-0.300000X0.237500X-0.300000X0.237500X0.300000X0*%
%ADD20RoundRect,0.237500X0.237500X-0.250000X0.237500X0.250000X-0.237500X0.250000X-0.237500X-0.250000X0*%
%ADD21RoundRect,0.237500X-0.250000X-0.237500X0.250000X-0.237500X0.250000X0.237500X-0.250000X0.237500X0*%
G04 APERTURE END LIST*
D10*
%TO.C,J2*%
X111500000Y-34840000D03*
D11*
X114040000Y-34840000D03*
X111500000Y-37380000D03*
X114040000Y-37380000D03*
X111500000Y-39920000D03*
X114040000Y-39920000D03*
X111500000Y-42460000D03*
X114040000Y-42460000D03*
X111500000Y-45000000D03*
X114040000Y-45000000D03*
X111500000Y-47540000D03*
X114040000Y-47540000D03*
%TD*%
D12*
%TO.C,RV1*%
X60250000Y-44750000D03*
X60250000Y-47290000D03*
X60250000Y-49830000D03*
%TD*%
D13*
%TO.C,H2*%
X113500000Y-21500000D03*
%TD*%
%TO.C,H4*%
X113500000Y-83500000D03*
%TD*%
D14*
%TO.C,C36*%
X105025000Y-52525000D03*
X107025000Y-52525000D03*
%TD*%
D13*
%TO.C,H1*%
X28500000Y-21500000D03*
%TD*%
D14*
%TO.C,C38*%
X105025000Y-73025000D03*
X107025000Y-73025000D03*
%TD*%
D13*
%TO.C,H3*%
X28500000Y-83500000D03*
%TD*%
D14*
%TO.C,C35*%
X105025000Y-58525000D03*
X107025000Y-58525000D03*
%TD*%
D10*
%TO.C,J1*%
X111500000Y-60250000D03*
D11*
X114040000Y-60250000D03*
X111500000Y-62790000D03*
X114040000Y-62790000D03*
X111500000Y-65330000D03*
X114040000Y-65330000D03*
%TD*%
D14*
%TO.C,C37*%
X105025000Y-67025000D03*
X107025000Y-67025000D03*
%TD*%
D12*
%TO.C,RV2*%
X74750000Y-44750000D03*
X74750000Y-47290000D03*
X74750000Y-49830000D03*
%TD*%
D15*
%TO.C,C1*%
X51937500Y-67400000D03*
X53662500Y-67400000D03*
%TD*%
%TO.C,C2*%
X87937500Y-65400000D03*
X89662500Y-65400000D03*
%TD*%
D16*
%TO.C,Q1*%
X57600000Y-64670000D03*
X58900000Y-64670000D03*
X58250000Y-67330000D03*
%TD*%
D17*
%TO.C,C15*%
X63062500Y-56400000D03*
X61337500Y-56400000D03*
%TD*%
D16*
%TO.C,Q2*%
X93850000Y-64670000D03*
X95150000Y-64670000D03*
X94500000Y-67330000D03*
%TD*%
D18*
%TO.C,C7*%
X88250000Y-29712500D03*
X88250000Y-27987500D03*
%TD*%
D15*
%TO.C,C12*%
X41387500Y-41250000D03*
X43112500Y-41250000D03*
%TD*%
D19*
%TO.C,C11*%
X48000000Y-48137500D03*
X48000000Y-49862500D03*
%TD*%
%TO.C,C8*%
X84250000Y-27987500D03*
X84250000Y-29712500D03*
%TD*%
%TO.C,C6*%
X66750000Y-42637500D03*
X66750000Y-44362500D03*
%TD*%
D20*
%TO.C,R50*%
X58250000Y-71325000D03*
X58250000Y-69500000D03*
%TD*%
%TO.C,R52*%
X94500000Y-71412500D03*
X94500000Y-69587500D03*
%TD*%
D18*
%TO.C,C9*%
X82750000Y-45612500D03*
X82750000Y-43887500D03*
%TD*%
D19*
%TO.C,C5*%
X68250000Y-42637500D03*
X68250000Y-44362500D03*
%TD*%
%TO.C,C4*%
X46750000Y-27987500D03*
X46750000Y-29712500D03*
%TD*%
D21*
%TO.C,R49*%
X59375000Y-62600000D03*
X61200000Y-62600000D03*
%TD*%
D18*
%TO.C,C10*%
X81000000Y-42250000D03*
X81000000Y-40525000D03*
%TD*%
%TO.C,C3*%
X51750000Y-29712500D03*
X51750000Y-27987500D03*
%TD*%
D20*
%TO.C,R51*%
X96800000Y-66825000D03*
X96800000Y-65000000D03*
%TD*%
D17*
%TO.C,C16*%
X63062500Y-59600000D03*
X61337500Y-59600000D03*
%TD*%
M02*
