%TF.GenerationSoftware,KiCad,Pcbnew,(6.0.0)*%
%TF.CreationDate,2022-04-09T17:19:21-04:00*%
%TF.ProjectId,ToneEncoderDecoder,546f6e65-456e-4636-9f64-65724465636f,rev?*%
%TF.SameCoordinates,Original*%
%TF.FileFunction,Legend,Bot*%
%TF.FilePolarity,Positive*%
%FSLAX46Y46*%
G04 Gerber Fmt 4.6, Leading zero omitted, Abs format (unit mm)*
G04 Created by KiCad (PCBNEW (6.0.0)) date 2022-04-09 17:19:21*
%MOMM*%
%LPD*%
G01*
G04 APERTURE LIST*
%ADD10C,0.150000*%
%ADD11C,0.120000*%
G04 APERTURE END LIST*
D10*
X25652380Y-46280952D02*
X26366666Y-46280952D01*
X26509523Y-46233333D01*
X26604761Y-46138095D01*
X26652380Y-45995238D01*
X26652380Y-45900000D01*
X26652380Y-47233333D02*
X26652380Y-46757142D01*
X25652380Y-46757142D01*
X26557142Y-48138095D02*
X26604761Y-48090476D01*
X26652380Y-47947619D01*
X26652380Y-47852380D01*
X26604761Y-47709523D01*
X26509523Y-47614285D01*
X26414285Y-47566666D01*
X26223809Y-47519047D01*
X26080952Y-47519047D01*
X25890476Y-47566666D01*
X25795238Y-47614285D01*
X25700000Y-47709523D01*
X25652380Y-47852380D01*
X25652380Y-47947619D01*
X25700000Y-48090476D01*
X25747619Y-48138095D01*
X25652380Y-48852380D02*
X26366666Y-48852380D01*
X26509523Y-48804761D01*
X26604761Y-48709523D01*
X26652380Y-48566666D01*
X26652380Y-48471428D01*
X26652380Y-49804761D02*
X26652380Y-49328571D01*
X25652380Y-49328571D01*
X26557142Y-50709523D02*
X26604761Y-50661904D01*
X26652380Y-50519047D01*
X26652380Y-50423809D01*
X26604761Y-50280952D01*
X26509523Y-50185714D01*
X26414285Y-50138095D01*
X26223809Y-50090476D01*
X26080952Y-50090476D01*
X25890476Y-50138095D01*
X25795238Y-50185714D01*
X25700000Y-50280952D01*
X25652380Y-50423809D01*
X25652380Y-50519047D01*
X25700000Y-50661904D01*
X25747619Y-50709523D01*
X25652380Y-51423809D02*
X26366666Y-51423809D01*
X26509523Y-51376190D01*
X26604761Y-51280952D01*
X26652380Y-51138095D01*
X26652380Y-51042857D01*
X26652380Y-52376190D02*
X26652380Y-51900000D01*
X25652380Y-51900000D01*
X26557142Y-53280952D02*
X26604761Y-53233333D01*
X26652380Y-53090476D01*
X26652380Y-52995238D01*
X26604761Y-52852380D01*
X26509523Y-52757142D01*
X26414285Y-52709523D01*
X26223809Y-52661904D01*
X26080952Y-52661904D01*
X25890476Y-52709523D01*
X25795238Y-52757142D01*
X25700000Y-52852380D01*
X25652380Y-52995238D01*
X25652380Y-53090476D01*
X25700000Y-53233333D01*
X25747619Y-53280952D01*
X25652380Y-53995238D02*
X26366666Y-53995238D01*
X26509523Y-53947619D01*
X26604761Y-53852380D01*
X26652380Y-53709523D01*
X26652380Y-53614285D01*
X26652380Y-54947619D02*
X26652380Y-54471428D01*
X25652380Y-54471428D01*
X26557142Y-55852380D02*
X26604761Y-55804761D01*
X26652380Y-55661904D01*
X26652380Y-55566666D01*
X26604761Y-55423809D01*
X26509523Y-55328571D01*
X26414285Y-55280952D01*
X26223809Y-55233333D01*
X26080952Y-55233333D01*
X25890476Y-55280952D01*
X25795238Y-55328571D01*
X25700000Y-55423809D01*
X25652380Y-55566666D01*
X25652380Y-55661904D01*
X25700000Y-55804761D01*
X25747619Y-55852380D01*
%TO.C,C1*%
X52966666Y-69357142D02*
X53014285Y-69404761D01*
X53157142Y-69452380D01*
X53252380Y-69452380D01*
X53395238Y-69404761D01*
X53490476Y-69309523D01*
X53538095Y-69214285D01*
X53585714Y-69023809D01*
X53585714Y-68880952D01*
X53538095Y-68690476D01*
X53490476Y-68595238D01*
X53395238Y-68500000D01*
X53252380Y-68452380D01*
X53157142Y-68452380D01*
X53014285Y-68500000D01*
X52966666Y-68547619D01*
X52014285Y-69452380D02*
X52585714Y-69452380D01*
X52300000Y-69452380D02*
X52300000Y-68452380D01*
X52395238Y-68595238D01*
X52490476Y-68690476D01*
X52585714Y-68738095D01*
%TO.C,C2*%
X88966666Y-67357142D02*
X89014285Y-67404761D01*
X89157142Y-67452380D01*
X89252380Y-67452380D01*
X89395238Y-67404761D01*
X89490476Y-67309523D01*
X89538095Y-67214285D01*
X89585714Y-67023809D01*
X89585714Y-66880952D01*
X89538095Y-66690476D01*
X89490476Y-66595238D01*
X89395238Y-66500000D01*
X89252380Y-66452380D01*
X89157142Y-66452380D01*
X89014285Y-66500000D01*
X88966666Y-66547619D01*
X88585714Y-66547619D02*
X88538095Y-66500000D01*
X88442857Y-66452380D01*
X88204761Y-66452380D01*
X88109523Y-66500000D01*
X88061904Y-66547619D01*
X88014285Y-66642857D01*
X88014285Y-66738095D01*
X88061904Y-66880952D01*
X88633333Y-67452380D01*
X88014285Y-67452380D01*
%TO.C,Q1*%
X56647619Y-65904761D02*
X56600000Y-65809523D01*
X56504761Y-65714285D01*
X56361904Y-65571428D01*
X56314285Y-65476190D01*
X56314285Y-65380952D01*
X56552380Y-65428571D02*
X56504761Y-65333333D01*
X56409523Y-65238095D01*
X56219047Y-65190476D01*
X55885714Y-65190476D01*
X55695238Y-65238095D01*
X55600000Y-65333333D01*
X55552380Y-65428571D01*
X55552380Y-65619047D01*
X55600000Y-65714285D01*
X55695238Y-65809523D01*
X55885714Y-65857142D01*
X56219047Y-65857142D01*
X56409523Y-65809523D01*
X56504761Y-65714285D01*
X56552380Y-65619047D01*
X56552380Y-65428571D01*
X56552380Y-66809523D02*
X56552380Y-66238095D01*
X56552380Y-66523809D02*
X55552380Y-66523809D01*
X55695238Y-66428571D01*
X55790476Y-66333333D01*
X55838095Y-66238095D01*
%TO.C,C15*%
X62842857Y-55327142D02*
X62890476Y-55374761D01*
X63033333Y-55422380D01*
X63128571Y-55422380D01*
X63271428Y-55374761D01*
X63366666Y-55279523D01*
X63414285Y-55184285D01*
X63461904Y-54993809D01*
X63461904Y-54850952D01*
X63414285Y-54660476D01*
X63366666Y-54565238D01*
X63271428Y-54470000D01*
X63128571Y-54422380D01*
X63033333Y-54422380D01*
X62890476Y-54470000D01*
X62842857Y-54517619D01*
X61890476Y-55422380D02*
X62461904Y-55422380D01*
X62176190Y-55422380D02*
X62176190Y-54422380D01*
X62271428Y-54565238D01*
X62366666Y-54660476D01*
X62461904Y-54708095D01*
X60985714Y-54422380D02*
X61461904Y-54422380D01*
X61509523Y-54898571D01*
X61461904Y-54850952D01*
X61366666Y-54803333D01*
X61128571Y-54803333D01*
X61033333Y-54850952D01*
X60985714Y-54898571D01*
X60938095Y-54993809D01*
X60938095Y-55231904D01*
X60985714Y-55327142D01*
X61033333Y-55374761D01*
X61128571Y-55422380D01*
X61366666Y-55422380D01*
X61461904Y-55374761D01*
X61509523Y-55327142D01*
%TO.C,Q2*%
X92847619Y-65904761D02*
X92800000Y-65809523D01*
X92704761Y-65714285D01*
X92561904Y-65571428D01*
X92514285Y-65476190D01*
X92514285Y-65380952D01*
X92752380Y-65428571D02*
X92704761Y-65333333D01*
X92609523Y-65238095D01*
X92419047Y-65190476D01*
X92085714Y-65190476D01*
X91895238Y-65238095D01*
X91800000Y-65333333D01*
X91752380Y-65428571D01*
X91752380Y-65619047D01*
X91800000Y-65714285D01*
X91895238Y-65809523D01*
X92085714Y-65857142D01*
X92419047Y-65857142D01*
X92609523Y-65809523D01*
X92704761Y-65714285D01*
X92752380Y-65619047D01*
X92752380Y-65428571D01*
X91847619Y-66238095D02*
X91800000Y-66285714D01*
X91752380Y-66380952D01*
X91752380Y-66619047D01*
X91800000Y-66714285D01*
X91847619Y-66761904D01*
X91942857Y-66809523D01*
X92038095Y-66809523D01*
X92180952Y-66761904D01*
X92752380Y-66190476D01*
X92752380Y-66809523D01*
%TO.C,C7*%
X88657142Y-31433333D02*
X88704761Y-31385714D01*
X88752380Y-31242857D01*
X88752380Y-31147619D01*
X88704761Y-31004761D01*
X88609523Y-30909523D01*
X88514285Y-30861904D01*
X88323809Y-30814285D01*
X88180952Y-30814285D01*
X87990476Y-30861904D01*
X87895238Y-30909523D01*
X87800000Y-31004761D01*
X87752380Y-31147619D01*
X87752380Y-31242857D01*
X87800000Y-31385714D01*
X87847619Y-31433333D01*
X87752380Y-31766666D02*
X87752380Y-32433333D01*
X88752380Y-32004761D01*
%TO.C,C12*%
X42892857Y-43257142D02*
X42940476Y-43304761D01*
X43083333Y-43352380D01*
X43178571Y-43352380D01*
X43321428Y-43304761D01*
X43416666Y-43209523D01*
X43464285Y-43114285D01*
X43511904Y-42923809D01*
X43511904Y-42780952D01*
X43464285Y-42590476D01*
X43416666Y-42495238D01*
X43321428Y-42400000D01*
X43178571Y-42352380D01*
X43083333Y-42352380D01*
X42940476Y-42400000D01*
X42892857Y-42447619D01*
X41940476Y-43352380D02*
X42511904Y-43352380D01*
X42226190Y-43352380D02*
X42226190Y-42352380D01*
X42321428Y-42495238D01*
X42416666Y-42590476D01*
X42511904Y-42638095D01*
X41559523Y-42447619D02*
X41511904Y-42400000D01*
X41416666Y-42352380D01*
X41178571Y-42352380D01*
X41083333Y-42400000D01*
X41035714Y-42447619D01*
X40988095Y-42542857D01*
X40988095Y-42638095D01*
X41035714Y-42780952D01*
X41607142Y-43352380D01*
X40988095Y-43352380D01*
%TO.C,C11*%
X50057142Y-48457142D02*
X50104761Y-48409523D01*
X50152380Y-48266666D01*
X50152380Y-48171428D01*
X50104761Y-48028571D01*
X50009523Y-47933333D01*
X49914285Y-47885714D01*
X49723809Y-47838095D01*
X49580952Y-47838095D01*
X49390476Y-47885714D01*
X49295238Y-47933333D01*
X49200000Y-48028571D01*
X49152380Y-48171428D01*
X49152380Y-48266666D01*
X49200000Y-48409523D01*
X49247619Y-48457142D01*
X50152380Y-49409523D02*
X50152380Y-48838095D01*
X50152380Y-49123809D02*
X49152380Y-49123809D01*
X49295238Y-49028571D01*
X49390476Y-48933333D01*
X49438095Y-48838095D01*
X50152380Y-50361904D02*
X50152380Y-49790476D01*
X50152380Y-50076190D02*
X49152380Y-50076190D01*
X49295238Y-49980952D01*
X49390476Y-49885714D01*
X49438095Y-49790476D01*
%TO.C,C8*%
X84657142Y-31433333D02*
X84704761Y-31385714D01*
X84752380Y-31242857D01*
X84752380Y-31147619D01*
X84704761Y-31004761D01*
X84609523Y-30909523D01*
X84514285Y-30861904D01*
X84323809Y-30814285D01*
X84180952Y-30814285D01*
X83990476Y-30861904D01*
X83895238Y-30909523D01*
X83800000Y-31004761D01*
X83752380Y-31147619D01*
X83752380Y-31242857D01*
X83800000Y-31385714D01*
X83847619Y-31433333D01*
X84180952Y-32004761D02*
X84133333Y-31909523D01*
X84085714Y-31861904D01*
X83990476Y-31814285D01*
X83942857Y-31814285D01*
X83847619Y-31861904D01*
X83800000Y-31909523D01*
X83752380Y-32004761D01*
X83752380Y-32195238D01*
X83800000Y-32290476D01*
X83847619Y-32338095D01*
X83942857Y-32385714D01*
X83990476Y-32385714D01*
X84085714Y-32338095D01*
X84133333Y-32290476D01*
X84180952Y-32195238D01*
X84180952Y-32004761D01*
X84228571Y-31909523D01*
X84276190Y-31861904D01*
X84371428Y-31814285D01*
X84561904Y-31814285D01*
X84657142Y-31861904D01*
X84704761Y-31909523D01*
X84752380Y-32004761D01*
X84752380Y-32195238D01*
X84704761Y-32290476D01*
X84657142Y-32338095D01*
X84561904Y-32385714D01*
X84371428Y-32385714D01*
X84276190Y-32338095D01*
X84228571Y-32290476D01*
X84180952Y-32195238D01*
%TO.C,C6*%
X66957142Y-46033333D02*
X67004761Y-45985714D01*
X67052380Y-45842857D01*
X67052380Y-45747619D01*
X67004761Y-45604761D01*
X66909523Y-45509523D01*
X66814285Y-45461904D01*
X66623809Y-45414285D01*
X66480952Y-45414285D01*
X66290476Y-45461904D01*
X66195238Y-45509523D01*
X66100000Y-45604761D01*
X66052380Y-45747619D01*
X66052380Y-45842857D01*
X66100000Y-45985714D01*
X66147619Y-46033333D01*
X66052380Y-46890476D02*
X66052380Y-46700000D01*
X66100000Y-46604761D01*
X66147619Y-46557142D01*
X66290476Y-46461904D01*
X66480952Y-46414285D01*
X66861904Y-46414285D01*
X66957142Y-46461904D01*
X67004761Y-46509523D01*
X67052380Y-46604761D01*
X67052380Y-46795238D01*
X67004761Y-46890476D01*
X66957142Y-46938095D01*
X66861904Y-46985714D01*
X66623809Y-46985714D01*
X66528571Y-46938095D01*
X66480952Y-46890476D01*
X66433333Y-46795238D01*
X66433333Y-46604761D01*
X66480952Y-46509523D01*
X66528571Y-46461904D01*
X66623809Y-46414285D01*
%TO.C,R50*%
X60352380Y-69769642D02*
X59876190Y-69436309D01*
X60352380Y-69198214D02*
X59352380Y-69198214D01*
X59352380Y-69579166D01*
X59400000Y-69674404D01*
X59447619Y-69722023D01*
X59542857Y-69769642D01*
X59685714Y-69769642D01*
X59780952Y-69722023D01*
X59828571Y-69674404D01*
X59876190Y-69579166D01*
X59876190Y-69198214D01*
X59352380Y-70674404D02*
X59352380Y-70198214D01*
X59828571Y-70150595D01*
X59780952Y-70198214D01*
X59733333Y-70293452D01*
X59733333Y-70531547D01*
X59780952Y-70626785D01*
X59828571Y-70674404D01*
X59923809Y-70722023D01*
X60161904Y-70722023D01*
X60257142Y-70674404D01*
X60304761Y-70626785D01*
X60352380Y-70531547D01*
X60352380Y-70293452D01*
X60304761Y-70198214D01*
X60257142Y-70150595D01*
X59352380Y-71341071D02*
X59352380Y-71436309D01*
X59400000Y-71531547D01*
X59447619Y-71579166D01*
X59542857Y-71626785D01*
X59733333Y-71674404D01*
X59971428Y-71674404D01*
X60161904Y-71626785D01*
X60257142Y-71579166D01*
X60304761Y-71531547D01*
X60352380Y-71436309D01*
X60352380Y-71341071D01*
X60304761Y-71245833D01*
X60257142Y-71198214D01*
X60161904Y-71150595D01*
X59971428Y-71102976D01*
X59733333Y-71102976D01*
X59542857Y-71150595D01*
X59447619Y-71198214D01*
X59400000Y-71245833D01*
X59352380Y-71341071D01*
%TO.C,R52*%
X96852380Y-69757142D02*
X96376190Y-69423809D01*
X96852380Y-69185714D02*
X95852380Y-69185714D01*
X95852380Y-69566666D01*
X95900000Y-69661904D01*
X95947619Y-69709523D01*
X96042857Y-69757142D01*
X96185714Y-69757142D01*
X96280952Y-69709523D01*
X96328571Y-69661904D01*
X96376190Y-69566666D01*
X96376190Y-69185714D01*
X95852380Y-70661904D02*
X95852380Y-70185714D01*
X96328571Y-70138095D01*
X96280952Y-70185714D01*
X96233333Y-70280952D01*
X96233333Y-70519047D01*
X96280952Y-70614285D01*
X96328571Y-70661904D01*
X96423809Y-70709523D01*
X96661904Y-70709523D01*
X96757142Y-70661904D01*
X96804761Y-70614285D01*
X96852380Y-70519047D01*
X96852380Y-70280952D01*
X96804761Y-70185714D01*
X96757142Y-70138095D01*
X95947619Y-71090476D02*
X95900000Y-71138095D01*
X95852380Y-71233333D01*
X95852380Y-71471428D01*
X95900000Y-71566666D01*
X95947619Y-71614285D01*
X96042857Y-71661904D01*
X96138095Y-71661904D01*
X96280952Y-71614285D01*
X96852380Y-71042857D01*
X96852380Y-71661904D01*
%TO.C,C9*%
X84757142Y-44583333D02*
X84804761Y-44535714D01*
X84852380Y-44392857D01*
X84852380Y-44297619D01*
X84804761Y-44154761D01*
X84709523Y-44059523D01*
X84614285Y-44011904D01*
X84423809Y-43964285D01*
X84280952Y-43964285D01*
X84090476Y-44011904D01*
X83995238Y-44059523D01*
X83900000Y-44154761D01*
X83852380Y-44297619D01*
X83852380Y-44392857D01*
X83900000Y-44535714D01*
X83947619Y-44583333D01*
X84852380Y-45059523D02*
X84852380Y-45250000D01*
X84804761Y-45345238D01*
X84757142Y-45392857D01*
X84614285Y-45488095D01*
X84423809Y-45535714D01*
X84042857Y-45535714D01*
X83947619Y-45488095D01*
X83900000Y-45440476D01*
X83852380Y-45345238D01*
X83852380Y-45154761D01*
X83900000Y-45059523D01*
X83947619Y-45011904D01*
X84042857Y-44964285D01*
X84280952Y-44964285D01*
X84376190Y-45011904D01*
X84423809Y-45059523D01*
X84471428Y-45154761D01*
X84471428Y-45345238D01*
X84423809Y-45440476D01*
X84376190Y-45488095D01*
X84280952Y-45535714D01*
%TO.C,C5*%
X68857142Y-46133333D02*
X68904761Y-46085714D01*
X68952380Y-45942857D01*
X68952380Y-45847619D01*
X68904761Y-45704761D01*
X68809523Y-45609523D01*
X68714285Y-45561904D01*
X68523809Y-45514285D01*
X68380952Y-45514285D01*
X68190476Y-45561904D01*
X68095238Y-45609523D01*
X68000000Y-45704761D01*
X67952380Y-45847619D01*
X67952380Y-45942857D01*
X68000000Y-46085714D01*
X68047619Y-46133333D01*
X67952380Y-47038095D02*
X67952380Y-46561904D01*
X68428571Y-46514285D01*
X68380952Y-46561904D01*
X68333333Y-46657142D01*
X68333333Y-46895238D01*
X68380952Y-46990476D01*
X68428571Y-47038095D01*
X68523809Y-47085714D01*
X68761904Y-47085714D01*
X68857142Y-47038095D01*
X68904761Y-46990476D01*
X68952380Y-46895238D01*
X68952380Y-46657142D01*
X68904761Y-46561904D01*
X68857142Y-46514285D01*
%TO.C,C4*%
X47157142Y-31533333D02*
X47204761Y-31485714D01*
X47252380Y-31342857D01*
X47252380Y-31247619D01*
X47204761Y-31104761D01*
X47109523Y-31009523D01*
X47014285Y-30961904D01*
X46823809Y-30914285D01*
X46680952Y-30914285D01*
X46490476Y-30961904D01*
X46395238Y-31009523D01*
X46300000Y-31104761D01*
X46252380Y-31247619D01*
X46252380Y-31342857D01*
X46300000Y-31485714D01*
X46347619Y-31533333D01*
X46585714Y-32390476D02*
X47252380Y-32390476D01*
X46204761Y-32152380D02*
X46919047Y-31914285D01*
X46919047Y-32533333D01*
%TO.C,R49*%
X60942857Y-61552380D02*
X61276190Y-61076190D01*
X61514285Y-61552380D02*
X61514285Y-60552380D01*
X61133333Y-60552380D01*
X61038095Y-60600000D01*
X60990476Y-60647619D01*
X60942857Y-60742857D01*
X60942857Y-60885714D01*
X60990476Y-60980952D01*
X61038095Y-61028571D01*
X61133333Y-61076190D01*
X61514285Y-61076190D01*
X60085714Y-60885714D02*
X60085714Y-61552380D01*
X60323809Y-60504761D02*
X60561904Y-61219047D01*
X59942857Y-61219047D01*
X59514285Y-61552380D02*
X59323809Y-61552380D01*
X59228571Y-61504761D01*
X59180952Y-61457142D01*
X59085714Y-61314285D01*
X59038095Y-61123809D01*
X59038095Y-60742857D01*
X59085714Y-60647619D01*
X59133333Y-60600000D01*
X59228571Y-60552380D01*
X59419047Y-60552380D01*
X59514285Y-60600000D01*
X59561904Y-60647619D01*
X59609523Y-60742857D01*
X59609523Y-60980952D01*
X59561904Y-61076190D01*
X59514285Y-61123809D01*
X59419047Y-61171428D01*
X59228571Y-61171428D01*
X59133333Y-61123809D01*
X59085714Y-61076190D01*
X59038095Y-60980952D01*
%TO.C,C10*%
X82957142Y-40744642D02*
X83004761Y-40697023D01*
X83052380Y-40554166D01*
X83052380Y-40458928D01*
X83004761Y-40316071D01*
X82909523Y-40220833D01*
X82814285Y-40173214D01*
X82623809Y-40125595D01*
X82480952Y-40125595D01*
X82290476Y-40173214D01*
X82195238Y-40220833D01*
X82100000Y-40316071D01*
X82052380Y-40458928D01*
X82052380Y-40554166D01*
X82100000Y-40697023D01*
X82147619Y-40744642D01*
X83052380Y-41697023D02*
X83052380Y-41125595D01*
X83052380Y-41411309D02*
X82052380Y-41411309D01*
X82195238Y-41316071D01*
X82290476Y-41220833D01*
X82338095Y-41125595D01*
X82052380Y-42316071D02*
X82052380Y-42411309D01*
X82100000Y-42506547D01*
X82147619Y-42554166D01*
X82242857Y-42601785D01*
X82433333Y-42649404D01*
X82671428Y-42649404D01*
X82861904Y-42601785D01*
X82957142Y-42554166D01*
X83004761Y-42506547D01*
X83052380Y-42411309D01*
X83052380Y-42316071D01*
X83004761Y-42220833D01*
X82957142Y-42173214D01*
X82861904Y-42125595D01*
X82671428Y-42077976D01*
X82433333Y-42077976D01*
X82242857Y-42125595D01*
X82147619Y-42173214D01*
X82100000Y-42220833D01*
X82052380Y-42316071D01*
%TO.C,C3*%
X52157142Y-31533333D02*
X52204761Y-31485714D01*
X52252380Y-31342857D01*
X52252380Y-31247619D01*
X52204761Y-31104761D01*
X52109523Y-31009523D01*
X52014285Y-30961904D01*
X51823809Y-30914285D01*
X51680952Y-30914285D01*
X51490476Y-30961904D01*
X51395238Y-31009523D01*
X51300000Y-31104761D01*
X51252380Y-31247619D01*
X51252380Y-31342857D01*
X51300000Y-31485714D01*
X51347619Y-31533333D01*
X51252380Y-31866666D02*
X51252380Y-32485714D01*
X51633333Y-32152380D01*
X51633333Y-32295238D01*
X51680952Y-32390476D01*
X51728571Y-32438095D01*
X51823809Y-32485714D01*
X52061904Y-32485714D01*
X52157142Y-32438095D01*
X52204761Y-32390476D01*
X52252380Y-32295238D01*
X52252380Y-32009523D01*
X52204761Y-31914285D01*
X52157142Y-31866666D01*
%TO.C,R51*%
X98952380Y-65257142D02*
X98476190Y-64923809D01*
X98952380Y-64685714D02*
X97952380Y-64685714D01*
X97952380Y-65066666D01*
X98000000Y-65161904D01*
X98047619Y-65209523D01*
X98142857Y-65257142D01*
X98285714Y-65257142D01*
X98380952Y-65209523D01*
X98428571Y-65161904D01*
X98476190Y-65066666D01*
X98476190Y-64685714D01*
X97952380Y-66161904D02*
X97952380Y-65685714D01*
X98428571Y-65638095D01*
X98380952Y-65685714D01*
X98333333Y-65780952D01*
X98333333Y-66019047D01*
X98380952Y-66114285D01*
X98428571Y-66161904D01*
X98523809Y-66209523D01*
X98761904Y-66209523D01*
X98857142Y-66161904D01*
X98904761Y-66114285D01*
X98952380Y-66019047D01*
X98952380Y-65780952D01*
X98904761Y-65685714D01*
X98857142Y-65638095D01*
X98952380Y-67161904D02*
X98952380Y-66590476D01*
X98952380Y-66876190D02*
X97952380Y-66876190D01*
X98095238Y-66780952D01*
X98190476Y-66685714D01*
X98238095Y-66590476D01*
%TO.C,C16*%
X62842857Y-58527142D02*
X62890476Y-58574761D01*
X63033333Y-58622380D01*
X63128571Y-58622380D01*
X63271428Y-58574761D01*
X63366666Y-58479523D01*
X63414285Y-58384285D01*
X63461904Y-58193809D01*
X63461904Y-58050952D01*
X63414285Y-57860476D01*
X63366666Y-57765238D01*
X63271428Y-57670000D01*
X63128571Y-57622380D01*
X63033333Y-57622380D01*
X62890476Y-57670000D01*
X62842857Y-57717619D01*
X61890476Y-58622380D02*
X62461904Y-58622380D01*
X62176190Y-58622380D02*
X62176190Y-57622380D01*
X62271428Y-57765238D01*
X62366666Y-57860476D01*
X62461904Y-57908095D01*
X61033333Y-57622380D02*
X61223809Y-57622380D01*
X61319047Y-57670000D01*
X61366666Y-57717619D01*
X61461904Y-57860476D01*
X61509523Y-58050952D01*
X61509523Y-58431904D01*
X61461904Y-58527142D01*
X61414285Y-58574761D01*
X61319047Y-58622380D01*
X61128571Y-58622380D01*
X61033333Y-58574761D01*
X60985714Y-58527142D01*
X60938095Y-58431904D01*
X60938095Y-58193809D01*
X60985714Y-58098571D01*
X61033333Y-58050952D01*
X61128571Y-58003333D01*
X61319047Y-58003333D01*
X61414285Y-58050952D01*
X61461904Y-58098571D01*
X61509523Y-58193809D01*
D11*
%TO.C,C1*%
X52653733Y-67910000D02*
X52946267Y-67910000D01*
X52653733Y-66890000D02*
X52946267Y-66890000D01*
%TO.C,C2*%
X88653733Y-65910000D02*
X88946267Y-65910000D01*
X88653733Y-64890000D02*
X88946267Y-64890000D01*
%TO.C,Q1*%
X58750000Y-66735000D02*
X59410000Y-66735000D01*
X59410000Y-65325000D02*
X59410000Y-66735000D01*
X57090000Y-66735000D02*
X57090000Y-64000000D01*
X57080000Y-66735000D02*
X57750000Y-66735000D01*
%TO.C,C15*%
X62346267Y-55890000D02*
X62053733Y-55890000D01*
X62346267Y-56910000D02*
X62053733Y-56910000D01*
%TO.C,Q2*%
X93330000Y-66735000D02*
X94000000Y-66735000D01*
X95000000Y-66735000D02*
X95660000Y-66735000D01*
X95660000Y-65325000D02*
X95660000Y-66735000D01*
X93340000Y-66735000D02*
X93340000Y-64000000D01*
%TO.C,C7*%
X87740000Y-28996267D02*
X87740000Y-28703733D01*
X88760000Y-28996267D02*
X88760000Y-28703733D01*
%TO.C,C12*%
X42103733Y-40740000D02*
X42396267Y-40740000D01*
X42103733Y-41760000D02*
X42396267Y-41760000D01*
%TO.C,C11*%
X47490000Y-48853733D02*
X47490000Y-49146267D01*
X48510000Y-48853733D02*
X48510000Y-49146267D01*
%TO.C,C8*%
X83740000Y-28703733D02*
X83740000Y-28996267D01*
X84760000Y-28703733D02*
X84760000Y-28996267D01*
%TO.C,C6*%
X67260000Y-43353733D02*
X67260000Y-43646267D01*
X66240000Y-43353733D02*
X66240000Y-43646267D01*
%TO.C,R50*%
X57727500Y-70667224D02*
X57727500Y-70157776D01*
X58772500Y-70667224D02*
X58772500Y-70157776D01*
%TO.C,R52*%
X93977500Y-70754724D02*
X93977500Y-70245276D01*
X95022500Y-70754724D02*
X95022500Y-70245276D01*
%TO.C,C9*%
X82240000Y-44896267D02*
X82240000Y-44603733D01*
X83260000Y-44896267D02*
X83260000Y-44603733D01*
%TO.C,C5*%
X68760000Y-43353733D02*
X68760000Y-43646267D01*
X67740000Y-43353733D02*
X67740000Y-43646267D01*
%TO.C,C4*%
X46240000Y-28703733D02*
X46240000Y-28996267D01*
X47260000Y-28703733D02*
X47260000Y-28996267D01*
%TO.C,R49*%
X60032776Y-63122500D02*
X60542224Y-63122500D01*
X60032776Y-62077500D02*
X60542224Y-62077500D01*
%TO.C,C10*%
X81510000Y-41533767D02*
X81510000Y-41241233D01*
X80490000Y-41533767D02*
X80490000Y-41241233D01*
%TO.C,C3*%
X51240000Y-28996267D02*
X51240000Y-28703733D01*
X52260000Y-28996267D02*
X52260000Y-28703733D01*
%TO.C,R51*%
X96277500Y-66167224D02*
X96277500Y-65657776D01*
X97322500Y-66167224D02*
X97322500Y-65657776D01*
%TO.C,C16*%
X62346267Y-59090000D02*
X62053733Y-59090000D01*
X62346267Y-60110000D02*
X62053733Y-60110000D01*
%TD*%
M02*
