M48
; DRILL file {KiCad (6.0.0)} date Sat Apr  9 17:13:07 2022
; FORMAT={-:-/ absolute / metric / decimal}
; #@! TF.CreationDate,2022-04-09T17:13:07-04:00
; #@! TF.GenerationSoftware,Kicad,Pcbnew,(6.0.0)
; #@! TF.FileFunction,Plated,1,2,PTH
FMAT,2
METRIC
; #@! TA.AperFunction,Plated,PTH,ViaDrill
T1C0.400
; #@! TA.AperFunction,Plated,PTH,ComponentDrill
T2C0.800
; #@! TA.AperFunction,Plated,PTH,ComponentDrill
T3C1.000
; #@! TA.AperFunction,Plated,PTH,ComponentDrill
T4C3.200
%
G90
G05
T1
X33.25Y-21.5
X33.25Y-37.75
X44.5Y-41.25
X44.75Y-22.5
X44.75Y-27.0
X44.75Y-29.75
X44.75Y-32.5
X44.75Y-36.75
X44.75Y-38.25
X48.0Y-46.75
X49.025Y-60.225
X49.25Y-31.25
X49.25Y-39.0
X49.25Y-42.25
X50.25Y-66.0
X52.0Y-53.5
X52.75Y-52.75
X53.75Y-22.5
X53.75Y-27.0
X53.75Y-29.75
X53.75Y-32.5
X53.75Y-36.75
X54.0Y-43.25
X54.25Y-38.25
X55.0Y-42.5
X56.25Y-67.25
X57.5Y-56.75
X59.75Y-66.0
X62.2Y-68.6
X62.637Y-65.137
X62.8Y-61.2
X65.0Y-46.75
X65.2Y-56.475
X65.2Y-59.2
X65.25Y-21.5
X65.25Y-37.75
X65.512Y-62.988
X67.25Y-40.75
X67.5Y-29.75
X69.75Y-21.5
X69.75Y-37.75
X70.0Y-40.25
X73.75Y-59.75
X74.75Y-62.25
X76.0Y-62.25
X76.75Y-67.5
X77.5Y-62.25
X80.0Y-70.25
X80.0Y-75.5
X80.25Y-55.25
X80.75Y-45.75
X81.25Y-22.5
X81.25Y-27.0
X81.25Y-29.75
X81.25Y-32.5
X81.25Y-36.75
X81.25Y-38.25
X81.25Y-38.25
X83.0Y-39.5
X83.225Y-56.475
X83.6Y-47.8
X83.675Y-51.6
X84.4Y-47.2
X84.4Y-53.8
X85.75Y-29.75
X85.75Y-31.75
X85.75Y-39.5
X85.75Y-57.25
X85.8Y-64.2
X86.0Y-74.6
X87.0Y-67.5
X89.25Y-73.0
X90.0Y-59.8
X90.25Y-22.5
X90.25Y-27.0
X90.25Y-29.75
X90.25Y-32.5
X90.25Y-36.75
X90.25Y-38.25
X90.4Y-43.224
X90.4Y-46.8
X91.0Y-58.8
X91.25Y-42.5
X91.5Y-67.25
X91.75Y-46.25
X92.0Y-63.2
X98.0Y-69.8
X98.4Y-58.7
X98.4Y-64.2
X101.75Y-21.5
X101.75Y-37.75
X102.2Y-31.8
X102.4Y-62.7
X103.5Y-44.7
X104.112Y-39.912
X104.5Y-36.75
X106.6Y-34.8
X107.5Y-49.25
X108.5Y-42.1
T2
X60.25Y-44.75
X60.25Y-47.29
X60.25Y-49.83
X74.75Y-44.75
X74.75Y-47.29
X74.75Y-49.83
X105.025Y-52.525
X105.025Y-58.525
X105.025Y-67.025
X105.025Y-73.025
X107.025Y-52.525
X107.025Y-58.525
X107.025Y-67.025
X107.025Y-73.025
T3
X111.5Y-34.84
X111.5Y-37.38
X111.5Y-39.92
X111.5Y-42.46
X111.5Y-45.0
X111.5Y-47.54
X111.5Y-60.25
X111.5Y-62.79
X111.5Y-65.33
X114.04Y-34.84
X114.04Y-37.38
X114.04Y-39.92
X114.04Y-42.46
X114.04Y-45.0
X114.04Y-47.54
X114.04Y-60.25
X114.04Y-62.79
X114.04Y-65.33
T4
X28.5Y-21.5
X28.5Y-83.5
X113.5Y-21.5
X113.5Y-83.5
T0
M30
