%TF.GenerationSoftware,KiCad,Pcbnew,(6.0.0)*%
%TF.CreationDate,2022-04-09T17:19:21-04:00*%
%TF.ProjectId,ToneEncoderDecoder,546f6e65-456e-4636-9f64-65724465636f,rev?*%
%TF.SameCoordinates,Original*%
%TF.FileFunction,Legend,Top*%
%TF.FilePolarity,Positive*%
%FSLAX46Y46*%
G04 Gerber Fmt 4.6, Leading zero omitted, Abs format (unit mm)*
G04 Created by KiCad (PCBNEW (6.0.0)) date 2022-04-09 17:19:21*
%MOMM*%
%LPD*%
G01*
G04 APERTURE LIST*
%ADD10C,0.300000*%
%ADD11C,0.150000*%
%ADD12C,0.120000*%
G04 APERTURE END LIST*
D10*
X49828571Y-81871071D02*
X50685714Y-81871071D01*
X50257142Y-83371071D02*
X50257142Y-81871071D01*
X51757142Y-83299642D02*
X51614285Y-83371071D01*
X51328571Y-83371071D01*
X51185714Y-83299642D01*
X51114285Y-83156785D01*
X51114285Y-82585357D01*
X51185714Y-82442500D01*
X51328571Y-82371071D01*
X51614285Y-82371071D01*
X51757142Y-82442500D01*
X51828571Y-82585357D01*
X51828571Y-82728214D01*
X51114285Y-82871071D01*
X52685714Y-83371071D02*
X52542857Y-83299642D01*
X52471428Y-83156785D01*
X52471428Y-81871071D01*
X53828571Y-83299642D02*
X53685714Y-83371071D01*
X53400000Y-83371071D01*
X53257142Y-83299642D01*
X53185714Y-83156785D01*
X53185714Y-82585357D01*
X53257142Y-82442500D01*
X53400000Y-82371071D01*
X53685714Y-82371071D01*
X53828571Y-82442500D01*
X53900000Y-82585357D01*
X53900000Y-82728214D01*
X53185714Y-82871071D01*
X54328571Y-81871071D02*
X55185714Y-81871071D01*
X54757142Y-83371071D02*
X54757142Y-81871071D01*
X56257142Y-83299642D02*
X56114285Y-83371071D01*
X55828571Y-83371071D01*
X55685714Y-83299642D01*
X55614285Y-83156785D01*
X55614285Y-82585357D01*
X55685714Y-82442500D01*
X55828571Y-82371071D01*
X56114285Y-82371071D01*
X56257142Y-82442500D01*
X56328571Y-82585357D01*
X56328571Y-82728214D01*
X55614285Y-82871071D01*
X57614285Y-83299642D02*
X57471428Y-83371071D01*
X57185714Y-83371071D01*
X57042857Y-83299642D01*
X56971428Y-83228214D01*
X56900000Y-83085357D01*
X56900000Y-82656785D01*
X56971428Y-82513928D01*
X57042857Y-82442500D01*
X57185714Y-82371071D01*
X57471428Y-82371071D01*
X57614285Y-82442500D01*
X58257142Y-83371071D02*
X58257142Y-81871071D01*
X58900000Y-83371071D02*
X58900000Y-82585357D01*
X58828571Y-82442500D01*
X58685714Y-82371071D01*
X58471428Y-82371071D01*
X58328571Y-82442500D01*
X58257142Y-82513928D01*
X60757142Y-83371071D02*
X60757142Y-81871071D01*
X61257142Y-82942500D01*
X61757142Y-81871071D01*
X61757142Y-83371071D01*
X62471428Y-83371071D02*
X62471428Y-82371071D01*
X62471428Y-81871071D02*
X62400000Y-81942500D01*
X62471428Y-82013928D01*
X62542857Y-81942500D01*
X62471428Y-81871071D01*
X62471428Y-82013928D01*
X63185714Y-82371071D02*
X63185714Y-83371071D01*
X63185714Y-82513928D02*
X63257142Y-82442500D01*
X63400000Y-82371071D01*
X63614285Y-82371071D01*
X63757142Y-82442500D01*
X63828571Y-82585357D01*
X63828571Y-83371071D01*
X64542857Y-83371071D02*
X64542857Y-82371071D01*
X64542857Y-81871071D02*
X64471428Y-81942500D01*
X64542857Y-82013928D01*
X64614285Y-81942500D01*
X64542857Y-81871071D01*
X64542857Y-82013928D01*
X65185714Y-83299642D02*
X65400000Y-83371071D01*
X65757142Y-83371071D01*
X65900000Y-83299642D01*
X65971428Y-83228214D01*
X66042857Y-83085357D01*
X66042857Y-82942500D01*
X65971428Y-82799642D01*
X65900000Y-82728214D01*
X65757142Y-82656785D01*
X65471428Y-82585357D01*
X65328571Y-82513928D01*
X65257142Y-82442500D01*
X65185714Y-82299642D01*
X65185714Y-82156785D01*
X65257142Y-82013928D01*
X65328571Y-81942500D01*
X65471428Y-81871071D01*
X65828571Y-81871071D01*
X66042857Y-81942500D01*
X66542857Y-82371071D02*
X66828571Y-83371071D01*
X67114285Y-82656785D01*
X67400000Y-83371071D01*
X67685714Y-82371071D01*
X68257142Y-83371071D02*
X68257142Y-82371071D01*
X68257142Y-81871071D02*
X68185714Y-81942500D01*
X68257142Y-82013928D01*
X68328571Y-81942500D01*
X68257142Y-81871071D01*
X68257142Y-82013928D01*
X68757142Y-82371071D02*
X69328571Y-82371071D01*
X68971428Y-81871071D02*
X68971428Y-83156785D01*
X69042857Y-83299642D01*
X69185714Y-83371071D01*
X69328571Y-83371071D01*
X70471428Y-83299642D02*
X70328571Y-83371071D01*
X70042857Y-83371071D01*
X69900000Y-83299642D01*
X69828571Y-83228214D01*
X69757142Y-83085357D01*
X69757142Y-82656785D01*
X69828571Y-82513928D01*
X69900000Y-82442500D01*
X70042857Y-82371071D01*
X70328571Y-82371071D01*
X70471428Y-82442500D01*
X71114285Y-83371071D02*
X71114285Y-81871071D01*
X71757142Y-83371071D02*
X71757142Y-82585357D01*
X71685714Y-82442500D01*
X71542857Y-82371071D01*
X71328571Y-82371071D01*
X71185714Y-82442500D01*
X71114285Y-82513928D01*
X33364285Y-85786071D02*
X33364285Y-84286071D01*
X33721428Y-84286071D01*
X33935714Y-84357500D01*
X34078571Y-84500357D01*
X34149999Y-84643214D01*
X34221428Y-84928928D01*
X34221428Y-85143214D01*
X34149999Y-85428928D01*
X34078571Y-85571785D01*
X33935714Y-85714642D01*
X33721428Y-85786071D01*
X33364285Y-85786071D01*
X34649999Y-84286071D02*
X35507142Y-84286071D01*
X35078571Y-85786071D02*
X35078571Y-84286071D01*
X36007142Y-85786071D02*
X36007142Y-84286071D01*
X36507142Y-85357500D01*
X37007142Y-84286071D01*
X37007142Y-85786071D01*
X38221428Y-85000357D02*
X37721428Y-85000357D01*
X37721428Y-85786071D02*
X37721428Y-84286071D01*
X38435714Y-84286071D01*
X40149999Y-85786071D02*
X40149999Y-84286071D01*
X40507142Y-84286071D01*
X40721428Y-84357500D01*
X40864285Y-84500357D01*
X40935714Y-84643214D01*
X41007142Y-84928928D01*
X41007142Y-85143214D01*
X40935714Y-85428928D01*
X40864285Y-85571785D01*
X40721428Y-85714642D01*
X40507142Y-85786071D01*
X40149999Y-85786071D01*
X42221428Y-85714642D02*
X42078571Y-85786071D01*
X41792857Y-85786071D01*
X41649999Y-85714642D01*
X41578571Y-85571785D01*
X41578571Y-85000357D01*
X41649999Y-84857500D01*
X41792857Y-84786071D01*
X42078571Y-84786071D01*
X42221428Y-84857500D01*
X42292857Y-85000357D01*
X42292857Y-85143214D01*
X41578571Y-85286071D01*
X43578571Y-85714642D02*
X43435714Y-85786071D01*
X43149999Y-85786071D01*
X43007142Y-85714642D01*
X42935714Y-85643214D01*
X42864285Y-85500357D01*
X42864285Y-85071785D01*
X42935714Y-84928928D01*
X43007142Y-84857500D01*
X43149999Y-84786071D01*
X43435714Y-84786071D01*
X43578571Y-84857500D01*
X44435714Y-85786071D02*
X44292857Y-85714642D01*
X44221428Y-85643214D01*
X44149999Y-85500357D01*
X44149999Y-85071785D01*
X44221428Y-84928928D01*
X44292857Y-84857500D01*
X44435714Y-84786071D01*
X44649999Y-84786071D01*
X44792857Y-84857500D01*
X44864285Y-84928928D01*
X44935714Y-85071785D01*
X44935714Y-85500357D01*
X44864285Y-85643214D01*
X44792857Y-85714642D01*
X44649999Y-85786071D01*
X44435714Y-85786071D01*
X46221428Y-85786071D02*
X46221428Y-84286071D01*
X46221428Y-85714642D02*
X46078571Y-85786071D01*
X45792857Y-85786071D01*
X45649999Y-85714642D01*
X45578571Y-85643214D01*
X45507142Y-85500357D01*
X45507142Y-85071785D01*
X45578571Y-84928928D01*
X45649999Y-84857500D01*
X45792857Y-84786071D01*
X46078571Y-84786071D01*
X46221428Y-84857500D01*
X47507142Y-85714642D02*
X47364285Y-85786071D01*
X47078571Y-85786071D01*
X46935714Y-85714642D01*
X46864285Y-85571785D01*
X46864285Y-85000357D01*
X46935714Y-84857500D01*
X47078571Y-84786071D01*
X47364285Y-84786071D01*
X47507142Y-84857500D01*
X47578571Y-85000357D01*
X47578571Y-85143214D01*
X46864285Y-85286071D01*
X48221428Y-85786071D02*
X48221428Y-84786071D01*
X48221428Y-85071785D02*
X48292857Y-84928928D01*
X48364285Y-84857500D01*
X48507142Y-84786071D01*
X48649999Y-84786071D01*
X50935714Y-85786071D02*
X50935714Y-85000357D01*
X50864285Y-84857500D01*
X50721428Y-84786071D01*
X50435714Y-84786071D01*
X50292857Y-84857500D01*
X50935714Y-85714642D02*
X50792857Y-85786071D01*
X50435714Y-85786071D01*
X50292857Y-85714642D01*
X50221428Y-85571785D01*
X50221428Y-85428928D01*
X50292857Y-85286071D01*
X50435714Y-85214642D01*
X50792857Y-85214642D01*
X50935714Y-85143214D01*
X51649999Y-84786071D02*
X51649999Y-85786071D01*
X51649999Y-84928928D02*
X51721428Y-84857500D01*
X51864285Y-84786071D01*
X52078571Y-84786071D01*
X52221428Y-84857500D01*
X52292857Y-85000357D01*
X52292857Y-85786071D01*
X53649999Y-85786071D02*
X53649999Y-84286071D01*
X53649999Y-85714642D02*
X53507142Y-85786071D01*
X53221428Y-85786071D01*
X53078571Y-85714642D01*
X53007142Y-85643214D01*
X52935714Y-85500357D01*
X52935714Y-85071785D01*
X53007142Y-84928928D01*
X53078571Y-84857500D01*
X53221428Y-84786071D01*
X53507142Y-84786071D01*
X53649999Y-84857500D01*
X56364285Y-85643214D02*
X56292857Y-85714642D01*
X56078571Y-85786071D01*
X55935714Y-85786071D01*
X55721428Y-85714642D01*
X55578571Y-85571785D01*
X55507142Y-85428928D01*
X55435714Y-85143214D01*
X55435714Y-84928928D01*
X55507142Y-84643214D01*
X55578571Y-84500357D01*
X55721428Y-84357500D01*
X55935714Y-84286071D01*
X56078571Y-84286071D01*
X56292857Y-84357500D01*
X56364285Y-84428928D01*
X57649999Y-85786071D02*
X57649999Y-85000357D01*
X57578571Y-84857500D01*
X57435714Y-84786071D01*
X57149999Y-84786071D01*
X57007142Y-84857500D01*
X57649999Y-85714642D02*
X57507142Y-85786071D01*
X57149999Y-85786071D01*
X57007142Y-85714642D01*
X56935714Y-85571785D01*
X56935714Y-85428928D01*
X57007142Y-85286071D01*
X57149999Y-85214642D01*
X57507142Y-85214642D01*
X57649999Y-85143214D01*
X58578571Y-85786071D02*
X58435714Y-85714642D01*
X58364285Y-85571785D01*
X58364285Y-84286071D01*
X59364285Y-85786071D02*
X59221428Y-85714642D01*
X59150000Y-85571785D01*
X59150000Y-84286071D01*
X61078571Y-85786071D02*
X61078571Y-84286071D01*
X61650000Y-84286071D01*
X61792857Y-84357500D01*
X61864285Y-84428928D01*
X61935714Y-84571785D01*
X61935714Y-84786071D01*
X61864285Y-84928928D01*
X61792857Y-85000357D01*
X61650000Y-85071785D01*
X61078571Y-85071785D01*
X62578571Y-85786071D02*
X62578571Y-84786071D01*
X62578571Y-85071785D02*
X62650000Y-84928928D01*
X62721428Y-84857500D01*
X62864285Y-84786071D01*
X63007142Y-84786071D01*
X63721428Y-85786071D02*
X63578571Y-85714642D01*
X63507142Y-85643214D01*
X63435714Y-85500357D01*
X63435714Y-85071785D01*
X63507142Y-84928928D01*
X63578571Y-84857500D01*
X63721428Y-84786071D01*
X63935714Y-84786071D01*
X64078571Y-84857500D01*
X64150000Y-84928928D01*
X64221428Y-85071785D01*
X64221428Y-85500357D01*
X64150000Y-85643214D01*
X64078571Y-85714642D01*
X63935714Y-85786071D01*
X63721428Y-85786071D01*
X65507142Y-84786071D02*
X65507142Y-86000357D01*
X65435714Y-86143214D01*
X65364285Y-86214642D01*
X65221428Y-86286071D01*
X65007142Y-86286071D01*
X64864285Y-86214642D01*
X65507142Y-85714642D02*
X65364285Y-85786071D01*
X65078571Y-85786071D01*
X64935714Y-85714642D01*
X64864285Y-85643214D01*
X64792857Y-85500357D01*
X64792857Y-85071785D01*
X64864285Y-84928928D01*
X64935714Y-84857500D01*
X65078571Y-84786071D01*
X65364285Y-84786071D01*
X65507142Y-84857500D01*
X66221428Y-85786071D02*
X66221428Y-84786071D01*
X66221428Y-85071785D02*
X66292857Y-84928928D01*
X66364285Y-84857500D01*
X66507142Y-84786071D01*
X66650000Y-84786071D01*
X67721428Y-85714642D02*
X67578571Y-85786071D01*
X67292857Y-85786071D01*
X67150000Y-85714642D01*
X67078571Y-85571785D01*
X67078571Y-85000357D01*
X67150000Y-84857500D01*
X67292857Y-84786071D01*
X67578571Y-84786071D01*
X67721428Y-84857500D01*
X67792857Y-85000357D01*
X67792857Y-85143214D01*
X67078571Y-85286071D01*
X68364285Y-85714642D02*
X68507142Y-85786071D01*
X68792857Y-85786071D01*
X68935714Y-85714642D01*
X69007142Y-85571785D01*
X69007142Y-85500357D01*
X68935714Y-85357500D01*
X68792857Y-85286071D01*
X68578571Y-85286071D01*
X68435714Y-85214642D01*
X68364285Y-85071785D01*
X68364285Y-85000357D01*
X68435714Y-84857500D01*
X68578571Y-84786071D01*
X68792857Y-84786071D01*
X68935714Y-84857500D01*
X69578571Y-85714642D02*
X69721428Y-85786071D01*
X70007142Y-85786071D01*
X70150000Y-85714642D01*
X70221428Y-85571785D01*
X70221428Y-85500357D01*
X70150000Y-85357500D01*
X70007142Y-85286071D01*
X69792857Y-85286071D01*
X69650000Y-85214642D01*
X69578571Y-85071785D01*
X69578571Y-85000357D01*
X69650000Y-84857500D01*
X69792857Y-84786071D01*
X70007142Y-84786071D01*
X70150000Y-84857500D01*
X71792857Y-84286071D02*
X72650000Y-84286071D01*
X72221428Y-85786071D02*
X72221428Y-84286071D01*
X73364285Y-85786071D02*
X73221428Y-85714642D01*
X73150000Y-85643214D01*
X73078571Y-85500357D01*
X73078571Y-85071785D01*
X73150000Y-84928928D01*
X73221428Y-84857500D01*
X73364285Y-84786071D01*
X73578571Y-84786071D01*
X73721428Y-84857500D01*
X73792857Y-84928928D01*
X73864285Y-85071785D01*
X73864285Y-85500357D01*
X73792857Y-85643214D01*
X73721428Y-85714642D01*
X73578571Y-85786071D01*
X73364285Y-85786071D01*
X74507142Y-84786071D02*
X74507142Y-85786071D01*
X74507142Y-84928928D02*
X74578571Y-84857500D01*
X74721428Y-84786071D01*
X74935714Y-84786071D01*
X75078571Y-84857500D01*
X75150000Y-85000357D01*
X75150000Y-85786071D01*
X76435714Y-85714642D02*
X76292857Y-85786071D01*
X76007142Y-85786071D01*
X75864285Y-85714642D01*
X75792857Y-85571785D01*
X75792857Y-85000357D01*
X75864285Y-84857500D01*
X76007142Y-84786071D01*
X76292857Y-84786071D01*
X76435714Y-84857500D01*
X76507142Y-85000357D01*
X76507142Y-85143214D01*
X75792857Y-85286071D01*
X79078571Y-84357500D02*
X78935714Y-84286071D01*
X78721428Y-84286071D01*
X78507142Y-84357500D01*
X78364285Y-84500357D01*
X78292857Y-84643214D01*
X78221428Y-84928928D01*
X78221428Y-85143214D01*
X78292857Y-85428928D01*
X78364285Y-85571785D01*
X78507142Y-85714642D01*
X78721428Y-85786071D01*
X78864285Y-85786071D01*
X79078571Y-85714642D01*
X79150000Y-85643214D01*
X79150000Y-85143214D01*
X78864285Y-85143214D01*
X80364285Y-85714642D02*
X80221428Y-85786071D01*
X79935714Y-85786071D01*
X79792857Y-85714642D01*
X79721428Y-85571785D01*
X79721428Y-85000357D01*
X79792857Y-84857500D01*
X79935714Y-84786071D01*
X80221428Y-84786071D01*
X80364285Y-84857500D01*
X80435714Y-85000357D01*
X80435714Y-85143214D01*
X79721428Y-85286071D01*
X81078571Y-84786071D02*
X81078571Y-85786071D01*
X81078571Y-84928928D02*
X81150000Y-84857500D01*
X81292857Y-84786071D01*
X81507142Y-84786071D01*
X81650000Y-84857500D01*
X81721428Y-85000357D01*
X81721428Y-85786071D01*
X83007142Y-85714642D02*
X82864285Y-85786071D01*
X82578571Y-85786071D01*
X82435714Y-85714642D01*
X82364285Y-85571785D01*
X82364285Y-85000357D01*
X82435714Y-84857500D01*
X82578571Y-84786071D01*
X82864285Y-84786071D01*
X83007142Y-84857500D01*
X83078571Y-85000357D01*
X83078571Y-85143214D01*
X82364285Y-85286071D01*
X83721428Y-85786071D02*
X83721428Y-84786071D01*
X83721428Y-85071785D02*
X83792857Y-84928928D01*
X83864285Y-84857500D01*
X84007142Y-84786071D01*
X84150000Y-84786071D01*
X85292857Y-85786071D02*
X85292857Y-85000357D01*
X85221428Y-84857500D01*
X85078571Y-84786071D01*
X84792857Y-84786071D01*
X84650000Y-84857500D01*
X85292857Y-85714642D02*
X85150000Y-85786071D01*
X84792857Y-85786071D01*
X84650000Y-85714642D01*
X84578571Y-85571785D01*
X84578571Y-85428928D01*
X84650000Y-85286071D01*
X84792857Y-85214642D01*
X85150000Y-85214642D01*
X85292857Y-85143214D01*
X85792857Y-84786071D02*
X86364285Y-84786071D01*
X86007142Y-84286071D02*
X86007142Y-85571785D01*
X86078571Y-85714642D01*
X86221428Y-85786071D01*
X86364285Y-85786071D01*
X87078571Y-85786071D02*
X86935714Y-85714642D01*
X86864285Y-85643214D01*
X86792857Y-85500357D01*
X86792857Y-85071785D01*
X86864285Y-84928928D01*
X86935714Y-84857500D01*
X87078571Y-84786071D01*
X87292857Y-84786071D01*
X87435714Y-84857500D01*
X87507142Y-84928928D01*
X87578571Y-85071785D01*
X87578571Y-85500357D01*
X87507142Y-85643214D01*
X87435714Y-85714642D01*
X87292857Y-85786071D01*
X87078571Y-85786071D01*
X88221428Y-85786071D02*
X88221428Y-84786071D01*
X88221428Y-85071785D02*
X88292857Y-84928928D01*
X88364285Y-84857500D01*
X88507142Y-84786071D01*
X88650000Y-84786071D01*
D11*
%TO.C,D10*%
X81985714Y-37752380D02*
X81985714Y-36752380D01*
X82223809Y-36752380D01*
X82366666Y-36800000D01*
X82461904Y-36895238D01*
X82509523Y-36990476D01*
X82557142Y-37180952D01*
X82557142Y-37323809D01*
X82509523Y-37514285D01*
X82461904Y-37609523D01*
X82366666Y-37704761D01*
X82223809Y-37752380D01*
X81985714Y-37752380D01*
X83509523Y-37752380D02*
X82938095Y-37752380D01*
X83223809Y-37752380D02*
X83223809Y-36752380D01*
X83128571Y-36895238D01*
X83033333Y-36990476D01*
X82938095Y-37038095D01*
X84128571Y-36752380D02*
X84223809Y-36752380D01*
X84319047Y-36800000D01*
X84366666Y-36847619D01*
X84414285Y-36942857D01*
X84461904Y-37133333D01*
X84461904Y-37371428D01*
X84414285Y-37561904D01*
X84366666Y-37657142D01*
X84319047Y-37704761D01*
X84223809Y-37752380D01*
X84128571Y-37752380D01*
X84033333Y-37704761D01*
X83985714Y-37657142D01*
X83938095Y-37561904D01*
X83890476Y-37371428D01*
X83890476Y-37133333D01*
X83938095Y-36942857D01*
X83985714Y-36847619D01*
X84033333Y-36800000D01*
X84128571Y-36752380D01*
%TO.C,R28*%
X101657142Y-23952380D02*
X101323809Y-23476190D01*
X101085714Y-23952380D02*
X101085714Y-22952380D01*
X101466666Y-22952380D01*
X101561904Y-23000000D01*
X101609523Y-23047619D01*
X101657142Y-23142857D01*
X101657142Y-23285714D01*
X101609523Y-23380952D01*
X101561904Y-23428571D01*
X101466666Y-23476190D01*
X101085714Y-23476190D01*
X102038095Y-23047619D02*
X102085714Y-23000000D01*
X102180952Y-22952380D01*
X102419047Y-22952380D01*
X102514285Y-23000000D01*
X102561904Y-23047619D01*
X102609523Y-23142857D01*
X102609523Y-23238095D01*
X102561904Y-23380952D01*
X101990476Y-23952380D01*
X102609523Y-23952380D01*
X103180952Y-23380952D02*
X103085714Y-23333333D01*
X103038095Y-23285714D01*
X102990476Y-23190476D01*
X102990476Y-23142857D01*
X103038095Y-23047619D01*
X103085714Y-23000000D01*
X103180952Y-22952380D01*
X103371428Y-22952380D01*
X103466666Y-23000000D01*
X103514285Y-23047619D01*
X103561904Y-23142857D01*
X103561904Y-23190476D01*
X103514285Y-23285714D01*
X103466666Y-23333333D01*
X103371428Y-23380952D01*
X103180952Y-23380952D01*
X103085714Y-23428571D01*
X103038095Y-23476190D01*
X102990476Y-23571428D01*
X102990476Y-23761904D01*
X103038095Y-23857142D01*
X103085714Y-23904761D01*
X103180952Y-23952380D01*
X103371428Y-23952380D01*
X103466666Y-23904761D01*
X103514285Y-23857142D01*
X103561904Y-23761904D01*
X103561904Y-23571428D01*
X103514285Y-23476190D01*
X103466666Y-23428571D01*
X103371428Y-23380952D01*
%TO.C,R10*%
X68457142Y-25952380D02*
X68123809Y-25476190D01*
X67885714Y-25952380D02*
X67885714Y-24952380D01*
X68266666Y-24952380D01*
X68361904Y-25000000D01*
X68409523Y-25047619D01*
X68457142Y-25142857D01*
X68457142Y-25285714D01*
X68409523Y-25380952D01*
X68361904Y-25428571D01*
X68266666Y-25476190D01*
X67885714Y-25476190D01*
X69409523Y-25952380D02*
X68838095Y-25952380D01*
X69123809Y-25952380D02*
X69123809Y-24952380D01*
X69028571Y-25095238D01*
X68933333Y-25190476D01*
X68838095Y-25238095D01*
X70028571Y-24952380D02*
X70123809Y-24952380D01*
X70219047Y-25000000D01*
X70266666Y-25047619D01*
X70314285Y-25142857D01*
X70361904Y-25333333D01*
X70361904Y-25571428D01*
X70314285Y-25761904D01*
X70266666Y-25857142D01*
X70219047Y-25904761D01*
X70123809Y-25952380D01*
X70028571Y-25952380D01*
X69933333Y-25904761D01*
X69885714Y-25857142D01*
X69838095Y-25761904D01*
X69790476Y-25571428D01*
X69790476Y-25333333D01*
X69838095Y-25142857D01*
X69885714Y-25047619D01*
X69933333Y-25000000D01*
X70028571Y-24952380D01*
%TO.C,J2*%
X112436666Y-49752380D02*
X112436666Y-50466666D01*
X112389047Y-50609523D01*
X112293809Y-50704761D01*
X112150952Y-50752380D01*
X112055714Y-50752380D01*
X112865238Y-49847619D02*
X112912857Y-49800000D01*
X113008095Y-49752380D01*
X113246190Y-49752380D01*
X113341428Y-49800000D01*
X113389047Y-49847619D01*
X113436666Y-49942857D01*
X113436666Y-50038095D01*
X113389047Y-50180952D01*
X112817619Y-50752380D01*
X113436666Y-50752380D01*
%TO.C,R41*%
X54607142Y-51852380D02*
X54273809Y-51376190D01*
X54035714Y-51852380D02*
X54035714Y-50852380D01*
X54416666Y-50852380D01*
X54511904Y-50900000D01*
X54559523Y-50947619D01*
X54607142Y-51042857D01*
X54607142Y-51185714D01*
X54559523Y-51280952D01*
X54511904Y-51328571D01*
X54416666Y-51376190D01*
X54035714Y-51376190D01*
X55464285Y-51185714D02*
X55464285Y-51852380D01*
X55226190Y-50804761D02*
X54988095Y-51519047D01*
X55607142Y-51519047D01*
X56511904Y-51852380D02*
X55940476Y-51852380D01*
X56226190Y-51852380D02*
X56226190Y-50852380D01*
X56130952Y-50995238D01*
X56035714Y-51090476D01*
X55940476Y-51138095D01*
%TO.C,IC5*%
X48323809Y-35752380D02*
X48323809Y-34752380D01*
X49371428Y-35657142D02*
X49323809Y-35704761D01*
X49180952Y-35752380D01*
X49085714Y-35752380D01*
X48942857Y-35704761D01*
X48847619Y-35609523D01*
X48800000Y-35514285D01*
X48752380Y-35323809D01*
X48752380Y-35180952D01*
X48800000Y-34990476D01*
X48847619Y-34895238D01*
X48942857Y-34800000D01*
X49085714Y-34752380D01*
X49180952Y-34752380D01*
X49323809Y-34800000D01*
X49371428Y-34847619D01*
X50276190Y-34752380D02*
X49800000Y-34752380D01*
X49752380Y-35228571D01*
X49800000Y-35180952D01*
X49895238Y-35133333D01*
X50133333Y-35133333D01*
X50228571Y-35180952D01*
X50276190Y-35228571D01*
X50323809Y-35323809D01*
X50323809Y-35561904D01*
X50276190Y-35657142D01*
X50228571Y-35704761D01*
X50133333Y-35752380D01*
X49895238Y-35752380D01*
X49800000Y-35704761D01*
X49752380Y-35657142D01*
%TO.C,C28*%
X46657142Y-23057142D02*
X46609523Y-23104761D01*
X46466666Y-23152380D01*
X46371428Y-23152380D01*
X46228571Y-23104761D01*
X46133333Y-23009523D01*
X46085714Y-22914285D01*
X46038095Y-22723809D01*
X46038095Y-22580952D01*
X46085714Y-22390476D01*
X46133333Y-22295238D01*
X46228571Y-22200000D01*
X46371428Y-22152380D01*
X46466666Y-22152380D01*
X46609523Y-22200000D01*
X46657142Y-22247619D01*
X47038095Y-22247619D02*
X47085714Y-22200000D01*
X47180952Y-22152380D01*
X47419047Y-22152380D01*
X47514285Y-22200000D01*
X47561904Y-22247619D01*
X47609523Y-22342857D01*
X47609523Y-22438095D01*
X47561904Y-22580952D01*
X46990476Y-23152380D01*
X47609523Y-23152380D01*
X48180952Y-22580952D02*
X48085714Y-22533333D01*
X48038095Y-22485714D01*
X47990476Y-22390476D01*
X47990476Y-22342857D01*
X48038095Y-22247619D01*
X48085714Y-22200000D01*
X48180952Y-22152380D01*
X48371428Y-22152380D01*
X48466666Y-22200000D01*
X48514285Y-22247619D01*
X48561904Y-22342857D01*
X48561904Y-22390476D01*
X48514285Y-22485714D01*
X48466666Y-22533333D01*
X48371428Y-22580952D01*
X48180952Y-22580952D01*
X48085714Y-22628571D01*
X48038095Y-22676190D01*
X47990476Y-22771428D01*
X47990476Y-22961904D01*
X48038095Y-23057142D01*
X48085714Y-23104761D01*
X48180952Y-23152380D01*
X48371428Y-23152380D01*
X48466666Y-23104761D01*
X48514285Y-23057142D01*
X48561904Y-22961904D01*
X48561904Y-22771428D01*
X48514285Y-22676190D01*
X48466666Y-22628571D01*
X48371428Y-22580952D01*
%TO.C,RV1*%
X59604761Y-53652380D02*
X59271428Y-53176190D01*
X59033333Y-53652380D02*
X59033333Y-52652380D01*
X59414285Y-52652380D01*
X59509523Y-52700000D01*
X59557142Y-52747619D01*
X59604761Y-52842857D01*
X59604761Y-52985714D01*
X59557142Y-53080952D01*
X59509523Y-53128571D01*
X59414285Y-53176190D01*
X59033333Y-53176190D01*
X59890476Y-52652380D02*
X60223809Y-53652380D01*
X60557142Y-52652380D01*
X61414285Y-53652380D02*
X60842857Y-53652380D01*
X61128571Y-53652380D02*
X61128571Y-52652380D01*
X61033333Y-52795238D01*
X60938095Y-52890476D01*
X60842857Y-52938095D01*
%TO.C,R32*%
X68457142Y-36152380D02*
X68123809Y-35676190D01*
X67885714Y-36152380D02*
X67885714Y-35152380D01*
X68266666Y-35152380D01*
X68361904Y-35200000D01*
X68409523Y-35247619D01*
X68457142Y-35342857D01*
X68457142Y-35485714D01*
X68409523Y-35580952D01*
X68361904Y-35628571D01*
X68266666Y-35676190D01*
X67885714Y-35676190D01*
X68790476Y-35152380D02*
X69409523Y-35152380D01*
X69076190Y-35533333D01*
X69219047Y-35533333D01*
X69314285Y-35580952D01*
X69361904Y-35628571D01*
X69409523Y-35723809D01*
X69409523Y-35961904D01*
X69361904Y-36057142D01*
X69314285Y-36104761D01*
X69219047Y-36152380D01*
X68933333Y-36152380D01*
X68838095Y-36104761D01*
X68790476Y-36057142D01*
X69790476Y-35247619D02*
X69838095Y-35200000D01*
X69933333Y-35152380D01*
X70171428Y-35152380D01*
X70266666Y-35200000D01*
X70314285Y-35247619D01*
X70361904Y-35342857D01*
X70361904Y-35438095D01*
X70314285Y-35580952D01*
X69742857Y-36152380D01*
X70361904Y-36152380D01*
%TO.C,R16*%
X82557142Y-36252380D02*
X82223809Y-35776190D01*
X81985714Y-36252380D02*
X81985714Y-35252380D01*
X82366666Y-35252380D01*
X82461904Y-35300000D01*
X82509523Y-35347619D01*
X82557142Y-35442857D01*
X82557142Y-35585714D01*
X82509523Y-35680952D01*
X82461904Y-35728571D01*
X82366666Y-35776190D01*
X81985714Y-35776190D01*
X83509523Y-36252380D02*
X82938095Y-36252380D01*
X83223809Y-36252380D02*
X83223809Y-35252380D01*
X83128571Y-35395238D01*
X83033333Y-35490476D01*
X82938095Y-35538095D01*
X84366666Y-35252380D02*
X84176190Y-35252380D01*
X84080952Y-35300000D01*
X84033333Y-35347619D01*
X83938095Y-35490476D01*
X83890476Y-35680952D01*
X83890476Y-36061904D01*
X83938095Y-36157142D01*
X83985714Y-36204761D01*
X84080952Y-36252380D01*
X84271428Y-36252380D01*
X84366666Y-36204761D01*
X84414285Y-36157142D01*
X84461904Y-36061904D01*
X84461904Y-35823809D01*
X84414285Y-35728571D01*
X84366666Y-35680952D01*
X84271428Y-35633333D01*
X84080952Y-35633333D01*
X83985714Y-35680952D01*
X83938095Y-35728571D01*
X83890476Y-35823809D01*
%TO.C,C22*%
X66357142Y-28642857D02*
X66404761Y-28690476D01*
X66452380Y-28833333D01*
X66452380Y-28928571D01*
X66404761Y-29071428D01*
X66309523Y-29166666D01*
X66214285Y-29214285D01*
X66023809Y-29261904D01*
X65880952Y-29261904D01*
X65690476Y-29214285D01*
X65595238Y-29166666D01*
X65500000Y-29071428D01*
X65452380Y-28928571D01*
X65452380Y-28833333D01*
X65500000Y-28690476D01*
X65547619Y-28642857D01*
X65547619Y-28261904D02*
X65500000Y-28214285D01*
X65452380Y-28119047D01*
X65452380Y-27880952D01*
X65500000Y-27785714D01*
X65547619Y-27738095D01*
X65642857Y-27690476D01*
X65738095Y-27690476D01*
X65880952Y-27738095D01*
X66452380Y-28309523D01*
X66452380Y-27690476D01*
X65547619Y-27309523D02*
X65500000Y-27261904D01*
X65452380Y-27166666D01*
X65452380Y-26928571D01*
X65500000Y-26833333D01*
X65547619Y-26785714D01*
X65642857Y-26738095D01*
X65738095Y-26738095D01*
X65880952Y-26785714D01*
X66452380Y-27357142D01*
X66452380Y-26738095D01*
%TO.C,R44*%
X42457142Y-63952380D02*
X42123809Y-63476190D01*
X41885714Y-63952380D02*
X41885714Y-62952380D01*
X42266666Y-62952380D01*
X42361904Y-63000000D01*
X42409523Y-63047619D01*
X42457142Y-63142857D01*
X42457142Y-63285714D01*
X42409523Y-63380952D01*
X42361904Y-63428571D01*
X42266666Y-63476190D01*
X41885714Y-63476190D01*
X43314285Y-63285714D02*
X43314285Y-63952380D01*
X43076190Y-62904761D02*
X42838095Y-63619047D01*
X43457142Y-63619047D01*
X44266666Y-63285714D02*
X44266666Y-63952380D01*
X44028571Y-62904761D02*
X43790476Y-63619047D01*
X44409523Y-63619047D01*
%TO.C,IC3*%
X48323809Y-48252380D02*
X48323809Y-47252380D01*
X49371428Y-48157142D02*
X49323809Y-48204761D01*
X49180952Y-48252380D01*
X49085714Y-48252380D01*
X48942857Y-48204761D01*
X48847619Y-48109523D01*
X48800000Y-48014285D01*
X48752380Y-47823809D01*
X48752380Y-47680952D01*
X48800000Y-47490476D01*
X48847619Y-47395238D01*
X48942857Y-47300000D01*
X49085714Y-47252380D01*
X49180952Y-47252380D01*
X49323809Y-47300000D01*
X49371428Y-47347619D01*
X49704761Y-47252380D02*
X50323809Y-47252380D01*
X49990476Y-47633333D01*
X50133333Y-47633333D01*
X50228571Y-47680952D01*
X50276190Y-47728571D01*
X50323809Y-47823809D01*
X50323809Y-48061904D01*
X50276190Y-48157142D01*
X50228571Y-48204761D01*
X50133333Y-48252380D01*
X49847619Y-48252380D01*
X49752380Y-48204761D01*
X49704761Y-48157142D01*
%TO.C,R17*%
X61857142Y-39852380D02*
X61523809Y-39376190D01*
X61285714Y-39852380D02*
X61285714Y-38852380D01*
X61666666Y-38852380D01*
X61761904Y-38900000D01*
X61809523Y-38947619D01*
X61857142Y-39042857D01*
X61857142Y-39185714D01*
X61809523Y-39280952D01*
X61761904Y-39328571D01*
X61666666Y-39376190D01*
X61285714Y-39376190D01*
X62809523Y-39852380D02*
X62238095Y-39852380D01*
X62523809Y-39852380D02*
X62523809Y-38852380D01*
X62428571Y-38995238D01*
X62333333Y-39090476D01*
X62238095Y-39138095D01*
X63142857Y-38852380D02*
X63809523Y-38852380D01*
X63380952Y-39852380D01*
%TO.C,R19*%
X61857142Y-20352380D02*
X61523809Y-19876190D01*
X61285714Y-20352380D02*
X61285714Y-19352380D01*
X61666666Y-19352380D01*
X61761904Y-19400000D01*
X61809523Y-19447619D01*
X61857142Y-19542857D01*
X61857142Y-19685714D01*
X61809523Y-19780952D01*
X61761904Y-19828571D01*
X61666666Y-19876190D01*
X61285714Y-19876190D01*
X62809523Y-20352380D02*
X62238095Y-20352380D01*
X62523809Y-20352380D02*
X62523809Y-19352380D01*
X62428571Y-19495238D01*
X62333333Y-19590476D01*
X62238095Y-19638095D01*
X63285714Y-20352380D02*
X63476190Y-20352380D01*
X63571428Y-20304761D01*
X63619047Y-20257142D01*
X63714285Y-20114285D01*
X63761904Y-19923809D01*
X63761904Y-19542857D01*
X63714285Y-19447619D01*
X63666666Y-19400000D01*
X63571428Y-19352380D01*
X63380952Y-19352380D01*
X63285714Y-19400000D01*
X63238095Y-19447619D01*
X63190476Y-19542857D01*
X63190476Y-19780952D01*
X63238095Y-19876190D01*
X63285714Y-19923809D01*
X63380952Y-19971428D01*
X63571428Y-19971428D01*
X63666666Y-19923809D01*
X63714285Y-19876190D01*
X63761904Y-19780952D01*
%TO.C,D2*%
X87461904Y-37752380D02*
X87461904Y-36752380D01*
X87700000Y-36752380D01*
X87842857Y-36800000D01*
X87938095Y-36895238D01*
X87985714Y-36990476D01*
X88033333Y-37180952D01*
X88033333Y-37323809D01*
X87985714Y-37514285D01*
X87938095Y-37609523D01*
X87842857Y-37704761D01*
X87700000Y-37752380D01*
X87461904Y-37752380D01*
X88414285Y-36847619D02*
X88461904Y-36800000D01*
X88557142Y-36752380D01*
X88795238Y-36752380D01*
X88890476Y-36800000D01*
X88938095Y-36847619D01*
X88985714Y-36942857D01*
X88985714Y-37038095D01*
X88938095Y-37180952D01*
X88366666Y-37752380D01*
X88985714Y-37752380D01*
%TO.C,R7*%
X51133333Y-21752380D02*
X50800000Y-21276190D01*
X50561904Y-21752380D02*
X50561904Y-20752380D01*
X50942857Y-20752380D01*
X51038095Y-20800000D01*
X51085714Y-20847619D01*
X51133333Y-20942857D01*
X51133333Y-21085714D01*
X51085714Y-21180952D01*
X51038095Y-21228571D01*
X50942857Y-21276190D01*
X50561904Y-21276190D01*
X51466666Y-20752380D02*
X52133333Y-20752380D01*
X51704761Y-21752380D01*
%TO.C,C36*%
X109157142Y-50557142D02*
X109109523Y-50604761D01*
X108966666Y-50652380D01*
X108871428Y-50652380D01*
X108728571Y-50604761D01*
X108633333Y-50509523D01*
X108585714Y-50414285D01*
X108538095Y-50223809D01*
X108538095Y-50080952D01*
X108585714Y-49890476D01*
X108633333Y-49795238D01*
X108728571Y-49700000D01*
X108871428Y-49652380D01*
X108966666Y-49652380D01*
X109109523Y-49700000D01*
X109157142Y-49747619D01*
X109490476Y-49652380D02*
X110109523Y-49652380D01*
X109776190Y-50033333D01*
X109919047Y-50033333D01*
X110014285Y-50080952D01*
X110061904Y-50128571D01*
X110109523Y-50223809D01*
X110109523Y-50461904D01*
X110061904Y-50557142D01*
X110014285Y-50604761D01*
X109919047Y-50652380D01*
X109633333Y-50652380D01*
X109538095Y-50604761D01*
X109490476Y-50557142D01*
X110966666Y-49652380D02*
X110776190Y-49652380D01*
X110680952Y-49700000D01*
X110633333Y-49747619D01*
X110538095Y-49890476D01*
X110490476Y-50080952D01*
X110490476Y-50461904D01*
X110538095Y-50557142D01*
X110585714Y-50604761D01*
X110680952Y-50652380D01*
X110871428Y-50652380D01*
X110966666Y-50604761D01*
X111014285Y-50557142D01*
X111061904Y-50461904D01*
X111061904Y-50223809D01*
X111014285Y-50128571D01*
X110966666Y-50080952D01*
X110871428Y-50033333D01*
X110680952Y-50033333D01*
X110585714Y-50080952D01*
X110538095Y-50128571D01*
X110490476Y-50223809D01*
%TO.C,R46*%
X78957142Y-63952380D02*
X78623809Y-63476190D01*
X78385714Y-63952380D02*
X78385714Y-62952380D01*
X78766666Y-62952380D01*
X78861904Y-63000000D01*
X78909523Y-63047619D01*
X78957142Y-63142857D01*
X78957142Y-63285714D01*
X78909523Y-63380952D01*
X78861904Y-63428571D01*
X78766666Y-63476190D01*
X78385714Y-63476190D01*
X79814285Y-63285714D02*
X79814285Y-63952380D01*
X79576190Y-62904761D02*
X79338095Y-63619047D01*
X79957142Y-63619047D01*
X80766666Y-62952380D02*
X80576190Y-62952380D01*
X80480952Y-63000000D01*
X80433333Y-63047619D01*
X80338095Y-63190476D01*
X80290476Y-63380952D01*
X80290476Y-63761904D01*
X80338095Y-63857142D01*
X80385714Y-63904761D01*
X80480952Y-63952380D01*
X80671428Y-63952380D01*
X80766666Y-63904761D01*
X80814285Y-63857142D01*
X80861904Y-63761904D01*
X80861904Y-63523809D01*
X80814285Y-63428571D01*
X80766666Y-63380952D01*
X80671428Y-63333333D01*
X80480952Y-63333333D01*
X80385714Y-63380952D01*
X80338095Y-63428571D01*
X80290476Y-63523809D01*
%TO.C,C40*%
X105957142Y-25342857D02*
X106004761Y-25390476D01*
X106052380Y-25533333D01*
X106052380Y-25628571D01*
X106004761Y-25771428D01*
X105909523Y-25866666D01*
X105814285Y-25914285D01*
X105623809Y-25961904D01*
X105480952Y-25961904D01*
X105290476Y-25914285D01*
X105195238Y-25866666D01*
X105100000Y-25771428D01*
X105052380Y-25628571D01*
X105052380Y-25533333D01*
X105100000Y-25390476D01*
X105147619Y-25342857D01*
X105385714Y-24485714D02*
X106052380Y-24485714D01*
X105004761Y-24723809D02*
X105719047Y-24961904D01*
X105719047Y-24342857D01*
X105052380Y-23771428D02*
X105052380Y-23676190D01*
X105100000Y-23580952D01*
X105147619Y-23533333D01*
X105242857Y-23485714D01*
X105433333Y-23438095D01*
X105671428Y-23438095D01*
X105861904Y-23485714D01*
X105957142Y-23533333D01*
X106004761Y-23580952D01*
X106052380Y-23676190D01*
X106052380Y-23771428D01*
X106004761Y-23866666D01*
X105957142Y-23914285D01*
X105861904Y-23961904D01*
X105671428Y-24009523D01*
X105433333Y-24009523D01*
X105242857Y-23961904D01*
X105147619Y-23914285D01*
X105100000Y-23866666D01*
X105052380Y-23771428D01*
%TO.C,R31*%
X31957142Y-36252380D02*
X31623809Y-35776190D01*
X31385714Y-36252380D02*
X31385714Y-35252380D01*
X31766666Y-35252380D01*
X31861904Y-35300000D01*
X31909523Y-35347619D01*
X31957142Y-35442857D01*
X31957142Y-35585714D01*
X31909523Y-35680952D01*
X31861904Y-35728571D01*
X31766666Y-35776190D01*
X31385714Y-35776190D01*
X32290476Y-35252380D02*
X32909523Y-35252380D01*
X32576190Y-35633333D01*
X32719047Y-35633333D01*
X32814285Y-35680952D01*
X32861904Y-35728571D01*
X32909523Y-35823809D01*
X32909523Y-36061904D01*
X32861904Y-36157142D01*
X32814285Y-36204761D01*
X32719047Y-36252380D01*
X32433333Y-36252380D01*
X32338095Y-36204761D01*
X32290476Y-36157142D01*
X33861904Y-36252380D02*
X33290476Y-36252380D01*
X33576190Y-36252380D02*
X33576190Y-35252380D01*
X33480952Y-35395238D01*
X33385714Y-35490476D01*
X33290476Y-35538095D01*
%TO.C,D4*%
X87461904Y-20352380D02*
X87461904Y-19352380D01*
X87700000Y-19352380D01*
X87842857Y-19400000D01*
X87938095Y-19495238D01*
X87985714Y-19590476D01*
X88033333Y-19780952D01*
X88033333Y-19923809D01*
X87985714Y-20114285D01*
X87938095Y-20209523D01*
X87842857Y-20304761D01*
X87700000Y-20352380D01*
X87461904Y-20352380D01*
X88890476Y-19685714D02*
X88890476Y-20352380D01*
X88652380Y-19304761D02*
X88414285Y-20019047D01*
X89033333Y-20019047D01*
%TO.C,R6*%
X102133333Y-25952380D02*
X101800000Y-25476190D01*
X101561904Y-25952380D02*
X101561904Y-24952380D01*
X101942857Y-24952380D01*
X102038095Y-25000000D01*
X102085714Y-25047619D01*
X102133333Y-25142857D01*
X102133333Y-25285714D01*
X102085714Y-25380952D01*
X102038095Y-25428571D01*
X101942857Y-25476190D01*
X101561904Y-25476190D01*
X102990476Y-24952380D02*
X102800000Y-24952380D01*
X102704761Y-25000000D01*
X102657142Y-25047619D01*
X102561904Y-25190476D01*
X102514285Y-25380952D01*
X102514285Y-25761904D01*
X102561904Y-25857142D01*
X102609523Y-25904761D01*
X102704761Y-25952380D01*
X102895238Y-25952380D01*
X102990476Y-25904761D01*
X103038095Y-25857142D01*
X103085714Y-25761904D01*
X103085714Y-25523809D01*
X103038095Y-25428571D01*
X102990476Y-25380952D01*
X102895238Y-25333333D01*
X102704761Y-25333333D01*
X102609523Y-25380952D01*
X102561904Y-25428571D01*
X102514285Y-25523809D01*
%TO.C,C25*%
X87557142Y-23057142D02*
X87509523Y-23104761D01*
X87366666Y-23152380D01*
X87271428Y-23152380D01*
X87128571Y-23104761D01*
X87033333Y-23009523D01*
X86985714Y-22914285D01*
X86938095Y-22723809D01*
X86938095Y-22580952D01*
X86985714Y-22390476D01*
X87033333Y-22295238D01*
X87128571Y-22200000D01*
X87271428Y-22152380D01*
X87366666Y-22152380D01*
X87509523Y-22200000D01*
X87557142Y-22247619D01*
X87938095Y-22247619D02*
X87985714Y-22200000D01*
X88080952Y-22152380D01*
X88319047Y-22152380D01*
X88414285Y-22200000D01*
X88461904Y-22247619D01*
X88509523Y-22342857D01*
X88509523Y-22438095D01*
X88461904Y-22580952D01*
X87890476Y-23152380D01*
X88509523Y-23152380D01*
X89414285Y-22152380D02*
X88938095Y-22152380D01*
X88890476Y-22628571D01*
X88938095Y-22580952D01*
X89033333Y-22533333D01*
X89271428Y-22533333D01*
X89366666Y-22580952D01*
X89414285Y-22628571D01*
X89461904Y-22723809D01*
X89461904Y-22961904D01*
X89414285Y-23057142D01*
X89366666Y-23104761D01*
X89271428Y-23152380D01*
X89033333Y-23152380D01*
X88938095Y-23104761D01*
X88890476Y-23057142D01*
%TO.C,R45*%
X78957142Y-61952380D02*
X78623809Y-61476190D01*
X78385714Y-61952380D02*
X78385714Y-60952380D01*
X78766666Y-60952380D01*
X78861904Y-61000000D01*
X78909523Y-61047619D01*
X78957142Y-61142857D01*
X78957142Y-61285714D01*
X78909523Y-61380952D01*
X78861904Y-61428571D01*
X78766666Y-61476190D01*
X78385714Y-61476190D01*
X79814285Y-61285714D02*
X79814285Y-61952380D01*
X79576190Y-60904761D02*
X79338095Y-61619047D01*
X79957142Y-61619047D01*
X80814285Y-60952380D02*
X80338095Y-60952380D01*
X80290476Y-61428571D01*
X80338095Y-61380952D01*
X80433333Y-61333333D01*
X80671428Y-61333333D01*
X80766666Y-61380952D01*
X80814285Y-61428571D01*
X80861904Y-61523809D01*
X80861904Y-61761904D01*
X80814285Y-61857142D01*
X80766666Y-61904761D01*
X80671428Y-61952380D01*
X80433333Y-61952380D01*
X80338095Y-61904761D01*
X80290476Y-61857142D01*
%TO.C,R24*%
X71857142Y-39852380D02*
X71523809Y-39376190D01*
X71285714Y-39852380D02*
X71285714Y-38852380D01*
X71666666Y-38852380D01*
X71761904Y-38900000D01*
X71809523Y-38947619D01*
X71857142Y-39042857D01*
X71857142Y-39185714D01*
X71809523Y-39280952D01*
X71761904Y-39328571D01*
X71666666Y-39376190D01*
X71285714Y-39376190D01*
X72238095Y-38947619D02*
X72285714Y-38900000D01*
X72380952Y-38852380D01*
X72619047Y-38852380D01*
X72714285Y-38900000D01*
X72761904Y-38947619D01*
X72809523Y-39042857D01*
X72809523Y-39138095D01*
X72761904Y-39280952D01*
X72190476Y-39852380D01*
X72809523Y-39852380D01*
X73666666Y-39185714D02*
X73666666Y-39852380D01*
X73428571Y-38804761D02*
X73190476Y-39519047D01*
X73809523Y-39519047D01*
%TO.C,C42*%
X105957142Y-36542857D02*
X106004761Y-36590476D01*
X106052380Y-36733333D01*
X106052380Y-36828571D01*
X106004761Y-36971428D01*
X105909523Y-37066666D01*
X105814285Y-37114285D01*
X105623809Y-37161904D01*
X105480952Y-37161904D01*
X105290476Y-37114285D01*
X105195238Y-37066666D01*
X105100000Y-36971428D01*
X105052380Y-36828571D01*
X105052380Y-36733333D01*
X105100000Y-36590476D01*
X105147619Y-36542857D01*
X105385714Y-35685714D02*
X106052380Y-35685714D01*
X105004761Y-35923809D02*
X105719047Y-36161904D01*
X105719047Y-35542857D01*
X105147619Y-35209523D02*
X105100000Y-35161904D01*
X105052380Y-35066666D01*
X105052380Y-34828571D01*
X105100000Y-34733333D01*
X105147619Y-34685714D01*
X105242857Y-34638095D01*
X105338095Y-34638095D01*
X105480952Y-34685714D01*
X106052380Y-35257142D01*
X106052380Y-34638095D01*
%TO.C,C17*%
X72557142Y-60442857D02*
X72604761Y-60490476D01*
X72652380Y-60633333D01*
X72652380Y-60728571D01*
X72604761Y-60871428D01*
X72509523Y-60966666D01*
X72414285Y-61014285D01*
X72223809Y-61061904D01*
X72080952Y-61061904D01*
X71890476Y-61014285D01*
X71795238Y-60966666D01*
X71700000Y-60871428D01*
X71652380Y-60728571D01*
X71652380Y-60633333D01*
X71700000Y-60490476D01*
X71747619Y-60442857D01*
X72652380Y-59490476D02*
X72652380Y-60061904D01*
X72652380Y-59776190D02*
X71652380Y-59776190D01*
X71795238Y-59871428D01*
X71890476Y-59966666D01*
X71938095Y-60061904D01*
X71652380Y-59157142D02*
X71652380Y-58490476D01*
X72652380Y-58919047D01*
%TO.C,R11*%
X46657142Y-21752380D02*
X46323809Y-21276190D01*
X46085714Y-21752380D02*
X46085714Y-20752380D01*
X46466666Y-20752380D01*
X46561904Y-20800000D01*
X46609523Y-20847619D01*
X46657142Y-20942857D01*
X46657142Y-21085714D01*
X46609523Y-21180952D01*
X46561904Y-21228571D01*
X46466666Y-21276190D01*
X46085714Y-21276190D01*
X47609523Y-21752380D02*
X47038095Y-21752380D01*
X47323809Y-21752380D02*
X47323809Y-20752380D01*
X47228571Y-20895238D01*
X47133333Y-20990476D01*
X47038095Y-21038095D01*
X48561904Y-21752380D02*
X47990476Y-21752380D01*
X48276190Y-21752380D02*
X48276190Y-20752380D01*
X48180952Y-20895238D01*
X48085714Y-20990476D01*
X47990476Y-21038095D01*
%TO.C,R37*%
X46757142Y-18952380D02*
X46423809Y-18476190D01*
X46185714Y-18952380D02*
X46185714Y-17952380D01*
X46566666Y-17952380D01*
X46661904Y-18000000D01*
X46709523Y-18047619D01*
X46757142Y-18142857D01*
X46757142Y-18285714D01*
X46709523Y-18380952D01*
X46661904Y-18428571D01*
X46566666Y-18476190D01*
X46185714Y-18476190D01*
X47090476Y-17952380D02*
X47709523Y-17952380D01*
X47376190Y-18333333D01*
X47519047Y-18333333D01*
X47614285Y-18380952D01*
X47661904Y-18428571D01*
X47709523Y-18523809D01*
X47709523Y-18761904D01*
X47661904Y-18857142D01*
X47614285Y-18904761D01*
X47519047Y-18952380D01*
X47233333Y-18952380D01*
X47138095Y-18904761D01*
X47090476Y-18857142D01*
X48042857Y-17952380D02*
X48709523Y-17952380D01*
X48280952Y-18952380D01*
%TO.C,IC1*%
X66523809Y-74852380D02*
X66523809Y-73852380D01*
X67571428Y-74757142D02*
X67523809Y-74804761D01*
X67380952Y-74852380D01*
X67285714Y-74852380D01*
X67142857Y-74804761D01*
X67047619Y-74709523D01*
X67000000Y-74614285D01*
X66952380Y-74423809D01*
X66952380Y-74280952D01*
X67000000Y-74090476D01*
X67047619Y-73995238D01*
X67142857Y-73900000D01*
X67285714Y-73852380D01*
X67380952Y-73852380D01*
X67523809Y-73900000D01*
X67571428Y-73947619D01*
X68523809Y-74852380D02*
X67952380Y-74852380D01*
X68238095Y-74852380D02*
X68238095Y-73852380D01*
X68142857Y-73995238D01*
X68047619Y-74090476D01*
X67952380Y-74138095D01*
%TO.C,R34*%
X87657142Y-39252380D02*
X87323809Y-38776190D01*
X87085714Y-39252380D02*
X87085714Y-38252380D01*
X87466666Y-38252380D01*
X87561904Y-38300000D01*
X87609523Y-38347619D01*
X87657142Y-38442857D01*
X87657142Y-38585714D01*
X87609523Y-38680952D01*
X87561904Y-38728571D01*
X87466666Y-38776190D01*
X87085714Y-38776190D01*
X87990476Y-38252380D02*
X88609523Y-38252380D01*
X88276190Y-38633333D01*
X88419047Y-38633333D01*
X88514285Y-38680952D01*
X88561904Y-38728571D01*
X88609523Y-38823809D01*
X88609523Y-39061904D01*
X88561904Y-39157142D01*
X88514285Y-39204761D01*
X88419047Y-39252380D01*
X88133333Y-39252380D01*
X88038095Y-39204761D01*
X87990476Y-39157142D01*
X89466666Y-38585714D02*
X89466666Y-39252380D01*
X89228571Y-38204761D02*
X88990476Y-38919047D01*
X89609523Y-38919047D01*
%TO.C,R1*%
X65233333Y-34152380D02*
X64900000Y-33676190D01*
X64661904Y-34152380D02*
X64661904Y-33152380D01*
X65042857Y-33152380D01*
X65138095Y-33200000D01*
X65185714Y-33247619D01*
X65233333Y-33342857D01*
X65233333Y-33485714D01*
X65185714Y-33580952D01*
X65138095Y-33628571D01*
X65042857Y-33676190D01*
X64661904Y-33676190D01*
X66185714Y-34152380D02*
X65614285Y-34152380D01*
X65900000Y-34152380D02*
X65900000Y-33152380D01*
X65804761Y-33295238D01*
X65709523Y-33390476D01*
X65614285Y-33438095D01*
%TO.C,C29*%
X82657142Y-23057142D02*
X82609523Y-23104761D01*
X82466666Y-23152380D01*
X82371428Y-23152380D01*
X82228571Y-23104761D01*
X82133333Y-23009523D01*
X82085714Y-22914285D01*
X82038095Y-22723809D01*
X82038095Y-22580952D01*
X82085714Y-22390476D01*
X82133333Y-22295238D01*
X82228571Y-22200000D01*
X82371428Y-22152380D01*
X82466666Y-22152380D01*
X82609523Y-22200000D01*
X82657142Y-22247619D01*
X83038095Y-22247619D02*
X83085714Y-22200000D01*
X83180952Y-22152380D01*
X83419047Y-22152380D01*
X83514285Y-22200000D01*
X83561904Y-22247619D01*
X83609523Y-22342857D01*
X83609523Y-22438095D01*
X83561904Y-22580952D01*
X82990476Y-23152380D01*
X83609523Y-23152380D01*
X84085714Y-23152380D02*
X84276190Y-23152380D01*
X84371428Y-23104761D01*
X84419047Y-23057142D01*
X84514285Y-22914285D01*
X84561904Y-22723809D01*
X84561904Y-22342857D01*
X84514285Y-22247619D01*
X84466666Y-22200000D01*
X84371428Y-22152380D01*
X84180952Y-22152380D01*
X84085714Y-22200000D01*
X84038095Y-22247619D01*
X83990476Y-22342857D01*
X83990476Y-22580952D01*
X84038095Y-22676190D01*
X84085714Y-22723809D01*
X84180952Y-22771428D01*
X84371428Y-22771428D01*
X84466666Y-22723809D01*
X84514285Y-22676190D01*
X84561904Y-22580952D01*
%TO.C,IC8*%
X48273809Y-73552380D02*
X48273809Y-72552380D01*
X49321428Y-73457142D02*
X49273809Y-73504761D01*
X49130952Y-73552380D01*
X49035714Y-73552380D01*
X48892857Y-73504761D01*
X48797619Y-73409523D01*
X48750000Y-73314285D01*
X48702380Y-73123809D01*
X48702380Y-72980952D01*
X48750000Y-72790476D01*
X48797619Y-72695238D01*
X48892857Y-72600000D01*
X49035714Y-72552380D01*
X49130952Y-72552380D01*
X49273809Y-72600000D01*
X49321428Y-72647619D01*
X49892857Y-72980952D02*
X49797619Y-72933333D01*
X49750000Y-72885714D01*
X49702380Y-72790476D01*
X49702380Y-72742857D01*
X49750000Y-72647619D01*
X49797619Y-72600000D01*
X49892857Y-72552380D01*
X50083333Y-72552380D01*
X50178571Y-72600000D01*
X50226190Y-72647619D01*
X50273809Y-72742857D01*
X50273809Y-72790476D01*
X50226190Y-72885714D01*
X50178571Y-72933333D01*
X50083333Y-72980952D01*
X49892857Y-72980952D01*
X49797619Y-73028571D01*
X49750000Y-73076190D01*
X49702380Y-73171428D01*
X49702380Y-73361904D01*
X49750000Y-73457142D01*
X49797619Y-73504761D01*
X49892857Y-73552380D01*
X50083333Y-73552380D01*
X50178571Y-73504761D01*
X50226190Y-73457142D01*
X50273809Y-73361904D01*
X50273809Y-73171428D01*
X50226190Y-73076190D01*
X50178571Y-73028571D01*
X50083333Y-72980952D01*
%TO.C,C26*%
X31257142Y-28357142D02*
X31209523Y-28404761D01*
X31066666Y-28452380D01*
X30971428Y-28452380D01*
X30828571Y-28404761D01*
X30733333Y-28309523D01*
X30685714Y-28214285D01*
X30638095Y-28023809D01*
X30638095Y-27880952D01*
X30685714Y-27690476D01*
X30733333Y-27595238D01*
X30828571Y-27500000D01*
X30971428Y-27452380D01*
X31066666Y-27452380D01*
X31209523Y-27500000D01*
X31257142Y-27547619D01*
X31638095Y-27547619D02*
X31685714Y-27500000D01*
X31780952Y-27452380D01*
X32019047Y-27452380D01*
X32114285Y-27500000D01*
X32161904Y-27547619D01*
X32209523Y-27642857D01*
X32209523Y-27738095D01*
X32161904Y-27880952D01*
X31590476Y-28452380D01*
X32209523Y-28452380D01*
X33066666Y-27452380D02*
X32876190Y-27452380D01*
X32780952Y-27500000D01*
X32733333Y-27547619D01*
X32638095Y-27690476D01*
X32590476Y-27880952D01*
X32590476Y-28261904D01*
X32638095Y-28357142D01*
X32685714Y-28404761D01*
X32780952Y-28452380D01*
X32971428Y-28452380D01*
X33066666Y-28404761D01*
X33114285Y-28357142D01*
X33161904Y-28261904D01*
X33161904Y-28023809D01*
X33114285Y-27928571D01*
X33066666Y-27880952D01*
X32971428Y-27833333D01*
X32780952Y-27833333D01*
X32685714Y-27880952D01*
X32638095Y-27928571D01*
X32590476Y-28023809D01*
%TO.C,D7*%
X100011904Y-56352380D02*
X100011904Y-55352380D01*
X100250000Y-55352380D01*
X100392857Y-55400000D01*
X100488095Y-55495238D01*
X100535714Y-55590476D01*
X100583333Y-55780952D01*
X100583333Y-55923809D01*
X100535714Y-56114285D01*
X100488095Y-56209523D01*
X100392857Y-56304761D01*
X100250000Y-56352380D01*
X100011904Y-56352380D01*
X100916666Y-55352380D02*
X101583333Y-55352380D01*
X101154761Y-56352380D01*
%TO.C,IC2*%
X63352380Y-58976190D02*
X62352380Y-58976190D01*
X63257142Y-57928571D02*
X63304761Y-57976190D01*
X63352380Y-58119047D01*
X63352380Y-58214285D01*
X63304761Y-58357142D01*
X63209523Y-58452380D01*
X63114285Y-58500000D01*
X62923809Y-58547619D01*
X62780952Y-58547619D01*
X62590476Y-58500000D01*
X62495238Y-58452380D01*
X62400000Y-58357142D01*
X62352380Y-58214285D01*
X62352380Y-58119047D01*
X62400000Y-57976190D01*
X62447619Y-57928571D01*
X62447619Y-57547619D02*
X62400000Y-57500000D01*
X62352380Y-57404761D01*
X62352380Y-57166666D01*
X62400000Y-57071428D01*
X62447619Y-57023809D01*
X62542857Y-56976190D01*
X62638095Y-56976190D01*
X62780952Y-57023809D01*
X63352380Y-57595238D01*
X63352380Y-56976190D01*
%TO.C,C18*%
X66357142Y-31842857D02*
X66404761Y-31890476D01*
X66452380Y-32033333D01*
X66452380Y-32128571D01*
X66404761Y-32271428D01*
X66309523Y-32366666D01*
X66214285Y-32414285D01*
X66023809Y-32461904D01*
X65880952Y-32461904D01*
X65690476Y-32414285D01*
X65595238Y-32366666D01*
X65500000Y-32271428D01*
X65452380Y-32128571D01*
X65452380Y-32033333D01*
X65500000Y-31890476D01*
X65547619Y-31842857D01*
X66452380Y-30890476D02*
X66452380Y-31461904D01*
X66452380Y-31176190D02*
X65452380Y-31176190D01*
X65595238Y-31271428D01*
X65690476Y-31366666D01*
X65738095Y-31461904D01*
X65880952Y-30319047D02*
X65833333Y-30414285D01*
X65785714Y-30461904D01*
X65690476Y-30509523D01*
X65642857Y-30509523D01*
X65547619Y-30461904D01*
X65500000Y-30414285D01*
X65452380Y-30319047D01*
X65452380Y-30128571D01*
X65500000Y-30033333D01*
X65547619Y-29985714D01*
X65642857Y-29938095D01*
X65690476Y-29938095D01*
X65785714Y-29985714D01*
X65833333Y-30033333D01*
X65880952Y-30128571D01*
X65880952Y-30319047D01*
X65928571Y-30414285D01*
X65976190Y-30461904D01*
X66071428Y-30509523D01*
X66261904Y-30509523D01*
X66357142Y-30461904D01*
X66404761Y-30414285D01*
X66452380Y-30319047D01*
X66452380Y-30128571D01*
X66404761Y-30033333D01*
X66357142Y-29985714D01*
X66261904Y-29938095D01*
X66071428Y-29938095D01*
X65976190Y-29985714D01*
X65928571Y-30033333D01*
X65880952Y-30128571D01*
%TO.C,R35*%
X50657142Y-18952380D02*
X50323809Y-18476190D01*
X50085714Y-18952380D02*
X50085714Y-17952380D01*
X50466666Y-17952380D01*
X50561904Y-18000000D01*
X50609523Y-18047619D01*
X50657142Y-18142857D01*
X50657142Y-18285714D01*
X50609523Y-18380952D01*
X50561904Y-18428571D01*
X50466666Y-18476190D01*
X50085714Y-18476190D01*
X50990476Y-17952380D02*
X51609523Y-17952380D01*
X51276190Y-18333333D01*
X51419047Y-18333333D01*
X51514285Y-18380952D01*
X51561904Y-18428571D01*
X51609523Y-18523809D01*
X51609523Y-18761904D01*
X51561904Y-18857142D01*
X51514285Y-18904761D01*
X51419047Y-18952380D01*
X51133333Y-18952380D01*
X51038095Y-18904761D01*
X50990476Y-18857142D01*
X52514285Y-17952380D02*
X52038095Y-17952380D01*
X51990476Y-18428571D01*
X52038095Y-18380952D01*
X52133333Y-18333333D01*
X52371428Y-18333333D01*
X52466666Y-18380952D01*
X52514285Y-18428571D01*
X52561904Y-18523809D01*
X52561904Y-18761904D01*
X52514285Y-18857142D01*
X52466666Y-18904761D01*
X52371428Y-18952380D01*
X52133333Y-18952380D01*
X52038095Y-18904761D01*
X51990476Y-18857142D01*
%TO.C,R25*%
X65257142Y-36152380D02*
X64923809Y-35676190D01*
X64685714Y-36152380D02*
X64685714Y-35152380D01*
X65066666Y-35152380D01*
X65161904Y-35200000D01*
X65209523Y-35247619D01*
X65257142Y-35342857D01*
X65257142Y-35485714D01*
X65209523Y-35580952D01*
X65161904Y-35628571D01*
X65066666Y-35676190D01*
X64685714Y-35676190D01*
X65638095Y-35247619D02*
X65685714Y-35200000D01*
X65780952Y-35152380D01*
X66019047Y-35152380D01*
X66114285Y-35200000D01*
X66161904Y-35247619D01*
X66209523Y-35342857D01*
X66209523Y-35438095D01*
X66161904Y-35580952D01*
X65590476Y-36152380D01*
X66209523Y-36152380D01*
X67114285Y-35152380D02*
X66638095Y-35152380D01*
X66590476Y-35628571D01*
X66638095Y-35580952D01*
X66733333Y-35533333D01*
X66971428Y-35533333D01*
X67066666Y-35580952D01*
X67114285Y-35628571D01*
X67161904Y-35723809D01*
X67161904Y-35961904D01*
X67114285Y-36057142D01*
X67066666Y-36104761D01*
X66971428Y-36152380D01*
X66733333Y-36152380D01*
X66638095Y-36104761D01*
X66590476Y-36057142D01*
%TO.C,C34*%
X60107142Y-80457142D02*
X60059523Y-80504761D01*
X59916666Y-80552380D01*
X59821428Y-80552380D01*
X59678571Y-80504761D01*
X59583333Y-80409523D01*
X59535714Y-80314285D01*
X59488095Y-80123809D01*
X59488095Y-79980952D01*
X59535714Y-79790476D01*
X59583333Y-79695238D01*
X59678571Y-79600000D01*
X59821428Y-79552380D01*
X59916666Y-79552380D01*
X60059523Y-79600000D01*
X60107142Y-79647619D01*
X60440476Y-79552380D02*
X61059523Y-79552380D01*
X60726190Y-79933333D01*
X60869047Y-79933333D01*
X60964285Y-79980952D01*
X61011904Y-80028571D01*
X61059523Y-80123809D01*
X61059523Y-80361904D01*
X61011904Y-80457142D01*
X60964285Y-80504761D01*
X60869047Y-80552380D01*
X60583333Y-80552380D01*
X60488095Y-80504761D01*
X60440476Y-80457142D01*
X61916666Y-79885714D02*
X61916666Y-80552380D01*
X61678571Y-79504761D02*
X61440476Y-80219047D01*
X62059523Y-80219047D01*
%TO.C,D1*%
X51161904Y-37752380D02*
X51161904Y-36752380D01*
X51400000Y-36752380D01*
X51542857Y-36800000D01*
X51638095Y-36895238D01*
X51685714Y-36990476D01*
X51733333Y-37180952D01*
X51733333Y-37323809D01*
X51685714Y-37514285D01*
X51638095Y-37609523D01*
X51542857Y-37704761D01*
X51400000Y-37752380D01*
X51161904Y-37752380D01*
X52685714Y-37752380D02*
X52114285Y-37752380D01*
X52400000Y-37752380D02*
X52400000Y-36752380D01*
X52304761Y-36895238D01*
X52209523Y-36990476D01*
X52114285Y-37038095D01*
%TO.C,R43*%
X42457142Y-61952380D02*
X42123809Y-61476190D01*
X41885714Y-61952380D02*
X41885714Y-60952380D01*
X42266666Y-60952380D01*
X42361904Y-61000000D01*
X42409523Y-61047619D01*
X42457142Y-61142857D01*
X42457142Y-61285714D01*
X42409523Y-61380952D01*
X42361904Y-61428571D01*
X42266666Y-61476190D01*
X41885714Y-61476190D01*
X43314285Y-61285714D02*
X43314285Y-61952380D01*
X43076190Y-60904761D02*
X42838095Y-61619047D01*
X43457142Y-61619047D01*
X43742857Y-60952380D02*
X44361904Y-60952380D01*
X44028571Y-61333333D01*
X44171428Y-61333333D01*
X44266666Y-61380952D01*
X44314285Y-61428571D01*
X44361904Y-61523809D01*
X44361904Y-61761904D01*
X44314285Y-61857142D01*
X44266666Y-61904761D01*
X44171428Y-61952380D01*
X43885714Y-61952380D01*
X43790476Y-61904761D01*
X43742857Y-61857142D01*
%TO.C,R36*%
X87557142Y-18952380D02*
X87223809Y-18476190D01*
X86985714Y-18952380D02*
X86985714Y-17952380D01*
X87366666Y-17952380D01*
X87461904Y-18000000D01*
X87509523Y-18047619D01*
X87557142Y-18142857D01*
X87557142Y-18285714D01*
X87509523Y-18380952D01*
X87461904Y-18428571D01*
X87366666Y-18476190D01*
X86985714Y-18476190D01*
X87890476Y-17952380D02*
X88509523Y-17952380D01*
X88176190Y-18333333D01*
X88319047Y-18333333D01*
X88414285Y-18380952D01*
X88461904Y-18428571D01*
X88509523Y-18523809D01*
X88509523Y-18761904D01*
X88461904Y-18857142D01*
X88414285Y-18904761D01*
X88319047Y-18952380D01*
X88033333Y-18952380D01*
X87938095Y-18904761D01*
X87890476Y-18857142D01*
X89366666Y-17952380D02*
X89176190Y-17952380D01*
X89080952Y-18000000D01*
X89033333Y-18047619D01*
X88938095Y-18190476D01*
X88890476Y-18380952D01*
X88890476Y-18761904D01*
X88938095Y-18857142D01*
X88985714Y-18904761D01*
X89080952Y-18952380D01*
X89271428Y-18952380D01*
X89366666Y-18904761D01*
X89414285Y-18857142D01*
X89461904Y-18761904D01*
X89461904Y-18523809D01*
X89414285Y-18428571D01*
X89366666Y-18380952D01*
X89271428Y-18333333D01*
X89080952Y-18333333D01*
X88985714Y-18380952D01*
X88938095Y-18428571D01*
X88890476Y-18523809D01*
%TO.C,R29*%
X32157142Y-24352380D02*
X31823809Y-23876190D01*
X31585714Y-24352380D02*
X31585714Y-23352380D01*
X31966666Y-23352380D01*
X32061904Y-23400000D01*
X32109523Y-23447619D01*
X32157142Y-23542857D01*
X32157142Y-23685714D01*
X32109523Y-23780952D01*
X32061904Y-23828571D01*
X31966666Y-23876190D01*
X31585714Y-23876190D01*
X32538095Y-23447619D02*
X32585714Y-23400000D01*
X32680952Y-23352380D01*
X32919047Y-23352380D01*
X33014285Y-23400000D01*
X33061904Y-23447619D01*
X33109523Y-23542857D01*
X33109523Y-23638095D01*
X33061904Y-23780952D01*
X32490476Y-24352380D01*
X33109523Y-24352380D01*
X33585714Y-24352380D02*
X33776190Y-24352380D01*
X33871428Y-24304761D01*
X33919047Y-24257142D01*
X34014285Y-24114285D01*
X34061904Y-23923809D01*
X34061904Y-23542857D01*
X34014285Y-23447619D01*
X33966666Y-23400000D01*
X33871428Y-23352380D01*
X33680952Y-23352380D01*
X33585714Y-23400000D01*
X33538095Y-23447619D01*
X33490476Y-23542857D01*
X33490476Y-23780952D01*
X33538095Y-23876190D01*
X33585714Y-23923809D01*
X33680952Y-23971428D01*
X33871428Y-23971428D01*
X33966666Y-23923809D01*
X34014285Y-23876190D01*
X34061904Y-23780952D01*
%TO.C,C41*%
X110457142Y-31742857D02*
X110504761Y-31790476D01*
X110552380Y-31933333D01*
X110552380Y-32028571D01*
X110504761Y-32171428D01*
X110409523Y-32266666D01*
X110314285Y-32314285D01*
X110123809Y-32361904D01*
X109980952Y-32361904D01*
X109790476Y-32314285D01*
X109695238Y-32266666D01*
X109600000Y-32171428D01*
X109552380Y-32028571D01*
X109552380Y-31933333D01*
X109600000Y-31790476D01*
X109647619Y-31742857D01*
X109885714Y-30885714D02*
X110552380Y-30885714D01*
X109504761Y-31123809D02*
X110219047Y-31361904D01*
X110219047Y-30742857D01*
X110552380Y-29838095D02*
X110552380Y-30409523D01*
X110552380Y-30123809D02*
X109552380Y-30123809D01*
X109695238Y-30219047D01*
X109790476Y-30314285D01*
X109838095Y-30409523D01*
%TO.C,IC9*%
X84773809Y-73452380D02*
X84773809Y-72452380D01*
X85821428Y-73357142D02*
X85773809Y-73404761D01*
X85630952Y-73452380D01*
X85535714Y-73452380D01*
X85392857Y-73404761D01*
X85297619Y-73309523D01*
X85250000Y-73214285D01*
X85202380Y-73023809D01*
X85202380Y-72880952D01*
X85250000Y-72690476D01*
X85297619Y-72595238D01*
X85392857Y-72500000D01*
X85535714Y-72452380D01*
X85630952Y-72452380D01*
X85773809Y-72500000D01*
X85821428Y-72547619D01*
X86297619Y-73452380D02*
X86488095Y-73452380D01*
X86583333Y-73404761D01*
X86630952Y-73357142D01*
X86726190Y-73214285D01*
X86773809Y-73023809D01*
X86773809Y-72642857D01*
X86726190Y-72547619D01*
X86678571Y-72500000D01*
X86583333Y-72452380D01*
X86392857Y-72452380D01*
X86297619Y-72500000D01*
X86250000Y-72547619D01*
X86202380Y-72642857D01*
X86202380Y-72880952D01*
X86250000Y-72976190D01*
X86297619Y-73023809D01*
X86392857Y-73071428D01*
X86583333Y-73071428D01*
X86678571Y-73023809D01*
X86726190Y-72976190D01*
X86773809Y-72880952D01*
%TO.C,IC6*%
X84773809Y-35482380D02*
X84773809Y-34482380D01*
X85821428Y-35387142D02*
X85773809Y-35434761D01*
X85630952Y-35482380D01*
X85535714Y-35482380D01*
X85392857Y-35434761D01*
X85297619Y-35339523D01*
X85250000Y-35244285D01*
X85202380Y-35053809D01*
X85202380Y-34910952D01*
X85250000Y-34720476D01*
X85297619Y-34625238D01*
X85392857Y-34530000D01*
X85535714Y-34482380D01*
X85630952Y-34482380D01*
X85773809Y-34530000D01*
X85821428Y-34577619D01*
X86678571Y-34482380D02*
X86488095Y-34482380D01*
X86392857Y-34530000D01*
X86345238Y-34577619D01*
X86250000Y-34720476D01*
X86202380Y-34910952D01*
X86202380Y-35291904D01*
X86250000Y-35387142D01*
X86297619Y-35434761D01*
X86392857Y-35482380D01*
X86583333Y-35482380D01*
X86678571Y-35434761D01*
X86726190Y-35387142D01*
X86773809Y-35291904D01*
X86773809Y-35053809D01*
X86726190Y-34958571D01*
X86678571Y-34910952D01*
X86583333Y-34863333D01*
X86392857Y-34863333D01*
X86297619Y-34910952D01*
X86250000Y-34958571D01*
X86202380Y-35053809D01*
%TO.C,D6*%
X82561904Y-20352380D02*
X82561904Y-19352380D01*
X82800000Y-19352380D01*
X82942857Y-19400000D01*
X83038095Y-19495238D01*
X83085714Y-19590476D01*
X83133333Y-19780952D01*
X83133333Y-19923809D01*
X83085714Y-20114285D01*
X83038095Y-20209523D01*
X82942857Y-20304761D01*
X82800000Y-20352380D01*
X82561904Y-20352380D01*
X83990476Y-19352380D02*
X83800000Y-19352380D01*
X83704761Y-19400000D01*
X83657142Y-19447619D01*
X83561904Y-19590476D01*
X83514285Y-19780952D01*
X83514285Y-20161904D01*
X83561904Y-20257142D01*
X83609523Y-20304761D01*
X83704761Y-20352380D01*
X83895238Y-20352380D01*
X83990476Y-20304761D01*
X84038095Y-20257142D01*
X84085714Y-20161904D01*
X84085714Y-19923809D01*
X84038095Y-19828571D01*
X83990476Y-19780952D01*
X83895238Y-19733333D01*
X83704761Y-19733333D01*
X83609523Y-19780952D01*
X83561904Y-19828571D01*
X83514285Y-19923809D01*
%TO.C,IC4*%
X84773809Y-48152380D02*
X84773809Y-47152380D01*
X85821428Y-48057142D02*
X85773809Y-48104761D01*
X85630952Y-48152380D01*
X85535714Y-48152380D01*
X85392857Y-48104761D01*
X85297619Y-48009523D01*
X85250000Y-47914285D01*
X85202380Y-47723809D01*
X85202380Y-47580952D01*
X85250000Y-47390476D01*
X85297619Y-47295238D01*
X85392857Y-47200000D01*
X85535714Y-47152380D01*
X85630952Y-47152380D01*
X85773809Y-47200000D01*
X85821428Y-47247619D01*
X86678571Y-47485714D02*
X86678571Y-48152380D01*
X86440476Y-47104761D02*
X86202380Y-47819047D01*
X86821428Y-47819047D01*
%TO.C,R30*%
X68457142Y-24152380D02*
X68123809Y-23676190D01*
X67885714Y-24152380D02*
X67885714Y-23152380D01*
X68266666Y-23152380D01*
X68361904Y-23200000D01*
X68409523Y-23247619D01*
X68457142Y-23342857D01*
X68457142Y-23485714D01*
X68409523Y-23580952D01*
X68361904Y-23628571D01*
X68266666Y-23676190D01*
X67885714Y-23676190D01*
X68790476Y-23152380D02*
X69409523Y-23152380D01*
X69076190Y-23533333D01*
X69219047Y-23533333D01*
X69314285Y-23580952D01*
X69361904Y-23628571D01*
X69409523Y-23723809D01*
X69409523Y-23961904D01*
X69361904Y-24057142D01*
X69314285Y-24104761D01*
X69219047Y-24152380D01*
X68933333Y-24152380D01*
X68838095Y-24104761D01*
X68790476Y-24057142D01*
X70028571Y-23152380D02*
X70123809Y-23152380D01*
X70219047Y-23200000D01*
X70266666Y-23247619D01*
X70314285Y-23342857D01*
X70361904Y-23533333D01*
X70361904Y-23771428D01*
X70314285Y-23961904D01*
X70266666Y-24057142D01*
X70219047Y-24104761D01*
X70123809Y-24152380D01*
X70028571Y-24152380D01*
X69933333Y-24104761D01*
X69885714Y-24057142D01*
X69838095Y-23961904D01*
X69790476Y-23771428D01*
X69790476Y-23533333D01*
X69838095Y-23342857D01*
X69885714Y-23247619D01*
X69933333Y-23200000D01*
X70028571Y-23152380D01*
%TO.C,C20*%
X50657142Y-24457142D02*
X50609523Y-24504761D01*
X50466666Y-24552380D01*
X50371428Y-24552380D01*
X50228571Y-24504761D01*
X50133333Y-24409523D01*
X50085714Y-24314285D01*
X50038095Y-24123809D01*
X50038095Y-23980952D01*
X50085714Y-23790476D01*
X50133333Y-23695238D01*
X50228571Y-23600000D01*
X50371428Y-23552380D01*
X50466666Y-23552380D01*
X50609523Y-23600000D01*
X50657142Y-23647619D01*
X51038095Y-23647619D02*
X51085714Y-23600000D01*
X51180952Y-23552380D01*
X51419047Y-23552380D01*
X51514285Y-23600000D01*
X51561904Y-23647619D01*
X51609523Y-23742857D01*
X51609523Y-23838095D01*
X51561904Y-23980952D01*
X50990476Y-24552380D01*
X51609523Y-24552380D01*
X52228571Y-23552380D02*
X52323809Y-23552380D01*
X52419047Y-23600000D01*
X52466666Y-23647619D01*
X52514285Y-23742857D01*
X52561904Y-23933333D01*
X52561904Y-24171428D01*
X52514285Y-24361904D01*
X52466666Y-24457142D01*
X52419047Y-24504761D01*
X52323809Y-24552380D01*
X52228571Y-24552380D01*
X52133333Y-24504761D01*
X52085714Y-24457142D01*
X52038095Y-24361904D01*
X51990476Y-24171428D01*
X51990476Y-23933333D01*
X52038095Y-23742857D01*
X52085714Y-23647619D01*
X52133333Y-23600000D01*
X52228571Y-23552380D01*
%TO.C,R8*%
X88033333Y-21752380D02*
X87700000Y-21276190D01*
X87461904Y-21752380D02*
X87461904Y-20752380D01*
X87842857Y-20752380D01*
X87938095Y-20800000D01*
X87985714Y-20847619D01*
X88033333Y-20942857D01*
X88033333Y-21085714D01*
X87985714Y-21180952D01*
X87938095Y-21228571D01*
X87842857Y-21276190D01*
X87461904Y-21276190D01*
X88604761Y-21180952D02*
X88509523Y-21133333D01*
X88461904Y-21085714D01*
X88414285Y-20990476D01*
X88414285Y-20942857D01*
X88461904Y-20847619D01*
X88509523Y-20800000D01*
X88604761Y-20752380D01*
X88795238Y-20752380D01*
X88890476Y-20800000D01*
X88938095Y-20847619D01*
X88985714Y-20942857D01*
X88985714Y-20990476D01*
X88938095Y-21085714D01*
X88890476Y-21133333D01*
X88795238Y-21180952D01*
X88604761Y-21180952D01*
X88509523Y-21228571D01*
X88461904Y-21276190D01*
X88414285Y-21371428D01*
X88414285Y-21561904D01*
X88461904Y-21657142D01*
X88509523Y-21704761D01*
X88604761Y-21752380D01*
X88795238Y-21752380D01*
X88890476Y-21704761D01*
X88938095Y-21657142D01*
X88985714Y-21561904D01*
X88985714Y-21371428D01*
X88938095Y-21276190D01*
X88890476Y-21228571D01*
X88795238Y-21180952D01*
%TO.C,R40*%
X82557142Y-39252380D02*
X82223809Y-38776190D01*
X81985714Y-39252380D02*
X81985714Y-38252380D01*
X82366666Y-38252380D01*
X82461904Y-38300000D01*
X82509523Y-38347619D01*
X82557142Y-38442857D01*
X82557142Y-38585714D01*
X82509523Y-38680952D01*
X82461904Y-38728571D01*
X82366666Y-38776190D01*
X81985714Y-38776190D01*
X83414285Y-38585714D02*
X83414285Y-39252380D01*
X83176190Y-38204761D02*
X82938095Y-38919047D01*
X83557142Y-38919047D01*
X84128571Y-38252380D02*
X84223809Y-38252380D01*
X84319047Y-38300000D01*
X84366666Y-38347619D01*
X84414285Y-38442857D01*
X84461904Y-38633333D01*
X84461904Y-38871428D01*
X84414285Y-39061904D01*
X84366666Y-39157142D01*
X84319047Y-39204761D01*
X84223809Y-39252380D01*
X84128571Y-39252380D01*
X84033333Y-39204761D01*
X83985714Y-39157142D01*
X83938095Y-39061904D01*
X83890476Y-38871428D01*
X83890476Y-38633333D01*
X83938095Y-38442857D01*
X83985714Y-38347619D01*
X84033333Y-38300000D01*
X84128571Y-38252380D01*
%TO.C,R4*%
X88033333Y-36252380D02*
X87700000Y-35776190D01*
X87461904Y-36252380D02*
X87461904Y-35252380D01*
X87842857Y-35252380D01*
X87938095Y-35300000D01*
X87985714Y-35347619D01*
X88033333Y-35442857D01*
X88033333Y-35585714D01*
X87985714Y-35680952D01*
X87938095Y-35728571D01*
X87842857Y-35776190D01*
X87461904Y-35776190D01*
X88890476Y-35585714D02*
X88890476Y-36252380D01*
X88652380Y-35204761D02*
X88414285Y-35919047D01*
X89033333Y-35919047D01*
%TO.C,C30*%
X31257142Y-31557142D02*
X31209523Y-31604761D01*
X31066666Y-31652380D01*
X30971428Y-31652380D01*
X30828571Y-31604761D01*
X30733333Y-31509523D01*
X30685714Y-31414285D01*
X30638095Y-31223809D01*
X30638095Y-31080952D01*
X30685714Y-30890476D01*
X30733333Y-30795238D01*
X30828571Y-30700000D01*
X30971428Y-30652380D01*
X31066666Y-30652380D01*
X31209523Y-30700000D01*
X31257142Y-30747619D01*
X31590476Y-30652380D02*
X32209523Y-30652380D01*
X31876190Y-31033333D01*
X32019047Y-31033333D01*
X32114285Y-31080952D01*
X32161904Y-31128571D01*
X32209523Y-31223809D01*
X32209523Y-31461904D01*
X32161904Y-31557142D01*
X32114285Y-31604761D01*
X32019047Y-31652380D01*
X31733333Y-31652380D01*
X31638095Y-31604761D01*
X31590476Y-31557142D01*
X32828571Y-30652380D02*
X32923809Y-30652380D01*
X33019047Y-30700000D01*
X33066666Y-30747619D01*
X33114285Y-30842857D01*
X33161904Y-31033333D01*
X33161904Y-31271428D01*
X33114285Y-31461904D01*
X33066666Y-31557142D01*
X33019047Y-31604761D01*
X32923809Y-31652380D01*
X32828571Y-31652380D01*
X32733333Y-31604761D01*
X32685714Y-31557142D01*
X32638095Y-31461904D01*
X32590476Y-31271428D01*
X32590476Y-31033333D01*
X32638095Y-30842857D01*
X32685714Y-30747619D01*
X32733333Y-30700000D01*
X32828571Y-30652380D01*
%TO.C,R12*%
X82657142Y-21752380D02*
X82323809Y-21276190D01*
X82085714Y-21752380D02*
X82085714Y-20752380D01*
X82466666Y-20752380D01*
X82561904Y-20800000D01*
X82609523Y-20847619D01*
X82657142Y-20942857D01*
X82657142Y-21085714D01*
X82609523Y-21180952D01*
X82561904Y-21228571D01*
X82466666Y-21276190D01*
X82085714Y-21276190D01*
X83609523Y-21752380D02*
X83038095Y-21752380D01*
X83323809Y-21752380D02*
X83323809Y-20752380D01*
X83228571Y-20895238D01*
X83133333Y-20990476D01*
X83038095Y-21038095D01*
X83990476Y-20847619D02*
X84038095Y-20800000D01*
X84133333Y-20752380D01*
X84371428Y-20752380D01*
X84466666Y-20800000D01*
X84514285Y-20847619D01*
X84561904Y-20942857D01*
X84561904Y-21038095D01*
X84514285Y-21180952D01*
X83942857Y-21752380D01*
X84561904Y-21752380D01*
%TO.C,R3*%
X51733333Y-36252380D02*
X51400000Y-35776190D01*
X51161904Y-36252380D02*
X51161904Y-35252380D01*
X51542857Y-35252380D01*
X51638095Y-35300000D01*
X51685714Y-35347619D01*
X51733333Y-35442857D01*
X51733333Y-35585714D01*
X51685714Y-35680952D01*
X51638095Y-35728571D01*
X51542857Y-35776190D01*
X51161904Y-35776190D01*
X52066666Y-35252380D02*
X52685714Y-35252380D01*
X52352380Y-35633333D01*
X52495238Y-35633333D01*
X52590476Y-35680952D01*
X52638095Y-35728571D01*
X52685714Y-35823809D01*
X52685714Y-36061904D01*
X52638095Y-36157142D01*
X52590476Y-36204761D01*
X52495238Y-36252380D01*
X52209523Y-36252380D01*
X52114285Y-36204761D01*
X52066666Y-36157142D01*
%TO.C,C38*%
X109057142Y-75857142D02*
X109009523Y-75904761D01*
X108866666Y-75952380D01*
X108771428Y-75952380D01*
X108628571Y-75904761D01*
X108533333Y-75809523D01*
X108485714Y-75714285D01*
X108438095Y-75523809D01*
X108438095Y-75380952D01*
X108485714Y-75190476D01*
X108533333Y-75095238D01*
X108628571Y-75000000D01*
X108771428Y-74952380D01*
X108866666Y-74952380D01*
X109009523Y-75000000D01*
X109057142Y-75047619D01*
X109390476Y-74952380D02*
X110009523Y-74952380D01*
X109676190Y-75333333D01*
X109819047Y-75333333D01*
X109914285Y-75380952D01*
X109961904Y-75428571D01*
X110009523Y-75523809D01*
X110009523Y-75761904D01*
X109961904Y-75857142D01*
X109914285Y-75904761D01*
X109819047Y-75952380D01*
X109533333Y-75952380D01*
X109438095Y-75904761D01*
X109390476Y-75857142D01*
X110580952Y-75380952D02*
X110485714Y-75333333D01*
X110438095Y-75285714D01*
X110390476Y-75190476D01*
X110390476Y-75142857D01*
X110438095Y-75047619D01*
X110485714Y-75000000D01*
X110580952Y-74952380D01*
X110771428Y-74952380D01*
X110866666Y-75000000D01*
X110914285Y-75047619D01*
X110961904Y-75142857D01*
X110961904Y-75190476D01*
X110914285Y-75285714D01*
X110866666Y-75333333D01*
X110771428Y-75380952D01*
X110580952Y-75380952D01*
X110485714Y-75428571D01*
X110438095Y-75476190D01*
X110390476Y-75571428D01*
X110390476Y-75761904D01*
X110438095Y-75857142D01*
X110485714Y-75904761D01*
X110580952Y-75952380D01*
X110771428Y-75952380D01*
X110866666Y-75904761D01*
X110914285Y-75857142D01*
X110961904Y-75761904D01*
X110961904Y-75571428D01*
X110914285Y-75476190D01*
X110866666Y-75428571D01*
X110771428Y-75380952D01*
%TO.C,R47*%
X54657142Y-61952380D02*
X54323809Y-61476190D01*
X54085714Y-61952380D02*
X54085714Y-60952380D01*
X54466666Y-60952380D01*
X54561904Y-61000000D01*
X54609523Y-61047619D01*
X54657142Y-61142857D01*
X54657142Y-61285714D01*
X54609523Y-61380952D01*
X54561904Y-61428571D01*
X54466666Y-61476190D01*
X54085714Y-61476190D01*
X55514285Y-61285714D02*
X55514285Y-61952380D01*
X55276190Y-60904761D02*
X55038095Y-61619047D01*
X55657142Y-61619047D01*
X55942857Y-60952380D02*
X56609523Y-60952380D01*
X56180952Y-61952380D01*
%TO.C,D8*%
X99961904Y-64852380D02*
X99961904Y-63852380D01*
X100200000Y-63852380D01*
X100342857Y-63900000D01*
X100438095Y-63995238D01*
X100485714Y-64090476D01*
X100533333Y-64280952D01*
X100533333Y-64423809D01*
X100485714Y-64614285D01*
X100438095Y-64709523D01*
X100342857Y-64804761D01*
X100200000Y-64852380D01*
X99961904Y-64852380D01*
X101104761Y-64280952D02*
X101009523Y-64233333D01*
X100961904Y-64185714D01*
X100914285Y-64090476D01*
X100914285Y-64042857D01*
X100961904Y-63947619D01*
X101009523Y-63900000D01*
X101104761Y-63852380D01*
X101295238Y-63852380D01*
X101390476Y-63900000D01*
X101438095Y-63947619D01*
X101485714Y-64042857D01*
X101485714Y-64090476D01*
X101438095Y-64185714D01*
X101390476Y-64233333D01*
X101295238Y-64280952D01*
X101104761Y-64280952D01*
X101009523Y-64328571D01*
X100961904Y-64376190D01*
X100914285Y-64471428D01*
X100914285Y-64661904D01*
X100961904Y-64757142D01*
X101009523Y-64804761D01*
X101104761Y-64852380D01*
X101295238Y-64852380D01*
X101390476Y-64804761D01*
X101438095Y-64757142D01*
X101485714Y-64661904D01*
X101485714Y-64471428D01*
X101438095Y-64376190D01*
X101390476Y-64328571D01*
X101295238Y-64280952D01*
%TO.C,C13*%
X54657142Y-63857142D02*
X54609523Y-63904761D01*
X54466666Y-63952380D01*
X54371428Y-63952380D01*
X54228571Y-63904761D01*
X54133333Y-63809523D01*
X54085714Y-63714285D01*
X54038095Y-63523809D01*
X54038095Y-63380952D01*
X54085714Y-63190476D01*
X54133333Y-63095238D01*
X54228571Y-63000000D01*
X54371428Y-62952380D01*
X54466666Y-62952380D01*
X54609523Y-63000000D01*
X54657142Y-63047619D01*
X55609523Y-63952380D02*
X55038095Y-63952380D01*
X55323809Y-63952380D02*
X55323809Y-62952380D01*
X55228571Y-63095238D01*
X55133333Y-63190476D01*
X55038095Y-63238095D01*
X55942857Y-62952380D02*
X56561904Y-62952380D01*
X56228571Y-63333333D01*
X56371428Y-63333333D01*
X56466666Y-63380952D01*
X56514285Y-63428571D01*
X56561904Y-63523809D01*
X56561904Y-63761904D01*
X56514285Y-63857142D01*
X56466666Y-63904761D01*
X56371428Y-63952380D01*
X56085714Y-63952380D01*
X55990476Y-63904761D01*
X55942857Y-63857142D01*
%TO.C,C23*%
X102157142Y-28357142D02*
X102109523Y-28404761D01*
X101966666Y-28452380D01*
X101871428Y-28452380D01*
X101728571Y-28404761D01*
X101633333Y-28309523D01*
X101585714Y-28214285D01*
X101538095Y-28023809D01*
X101538095Y-27880952D01*
X101585714Y-27690476D01*
X101633333Y-27595238D01*
X101728571Y-27500000D01*
X101871428Y-27452380D01*
X101966666Y-27452380D01*
X102109523Y-27500000D01*
X102157142Y-27547619D01*
X102538095Y-27547619D02*
X102585714Y-27500000D01*
X102680952Y-27452380D01*
X102919047Y-27452380D01*
X103014285Y-27500000D01*
X103061904Y-27547619D01*
X103109523Y-27642857D01*
X103109523Y-27738095D01*
X103061904Y-27880952D01*
X102490476Y-28452380D01*
X103109523Y-28452380D01*
X103442857Y-27452380D02*
X104061904Y-27452380D01*
X103728571Y-27833333D01*
X103871428Y-27833333D01*
X103966666Y-27880952D01*
X104014285Y-27928571D01*
X104061904Y-28023809D01*
X104061904Y-28261904D01*
X104014285Y-28357142D01*
X103966666Y-28404761D01*
X103871428Y-28452380D01*
X103585714Y-28452380D01*
X103490476Y-28404761D01*
X103442857Y-28357142D01*
%TO.C,R5*%
X65233333Y-25952380D02*
X64900000Y-25476190D01*
X64661904Y-25952380D02*
X64661904Y-24952380D01*
X65042857Y-24952380D01*
X65138095Y-25000000D01*
X65185714Y-25047619D01*
X65233333Y-25142857D01*
X65233333Y-25285714D01*
X65185714Y-25380952D01*
X65138095Y-25428571D01*
X65042857Y-25476190D01*
X64661904Y-25476190D01*
X66138095Y-24952380D02*
X65661904Y-24952380D01*
X65614285Y-25428571D01*
X65661904Y-25380952D01*
X65757142Y-25333333D01*
X65995238Y-25333333D01*
X66090476Y-25380952D01*
X66138095Y-25428571D01*
X66185714Y-25523809D01*
X66185714Y-25761904D01*
X66138095Y-25857142D01*
X66090476Y-25904761D01*
X65995238Y-25952380D01*
X65757142Y-25952380D01*
X65661904Y-25904761D01*
X65614285Y-25857142D01*
%TO.C,R15*%
X45757142Y-36252380D02*
X45423809Y-35776190D01*
X45185714Y-36252380D02*
X45185714Y-35252380D01*
X45566666Y-35252380D01*
X45661904Y-35300000D01*
X45709523Y-35347619D01*
X45757142Y-35442857D01*
X45757142Y-35585714D01*
X45709523Y-35680952D01*
X45661904Y-35728571D01*
X45566666Y-35776190D01*
X45185714Y-35776190D01*
X46709523Y-36252380D02*
X46138095Y-36252380D01*
X46423809Y-36252380D02*
X46423809Y-35252380D01*
X46328571Y-35395238D01*
X46233333Y-35490476D01*
X46138095Y-35538095D01*
X47614285Y-35252380D02*
X47138095Y-35252380D01*
X47090476Y-35728571D01*
X47138095Y-35680952D01*
X47233333Y-35633333D01*
X47471428Y-35633333D01*
X47566666Y-35680952D01*
X47614285Y-35728571D01*
X47661904Y-35823809D01*
X47661904Y-36061904D01*
X47614285Y-36157142D01*
X47566666Y-36204761D01*
X47471428Y-36252380D01*
X47233333Y-36252380D01*
X47138095Y-36204761D01*
X47090476Y-36157142D01*
%TO.C,C35*%
X109057142Y-56257142D02*
X109009523Y-56304761D01*
X108866666Y-56352380D01*
X108771428Y-56352380D01*
X108628571Y-56304761D01*
X108533333Y-56209523D01*
X108485714Y-56114285D01*
X108438095Y-55923809D01*
X108438095Y-55780952D01*
X108485714Y-55590476D01*
X108533333Y-55495238D01*
X108628571Y-55400000D01*
X108771428Y-55352380D01*
X108866666Y-55352380D01*
X109009523Y-55400000D01*
X109057142Y-55447619D01*
X109390476Y-55352380D02*
X110009523Y-55352380D01*
X109676190Y-55733333D01*
X109819047Y-55733333D01*
X109914285Y-55780952D01*
X109961904Y-55828571D01*
X110009523Y-55923809D01*
X110009523Y-56161904D01*
X109961904Y-56257142D01*
X109914285Y-56304761D01*
X109819047Y-56352380D01*
X109533333Y-56352380D01*
X109438095Y-56304761D01*
X109390476Y-56257142D01*
X110914285Y-55352380D02*
X110438095Y-55352380D01*
X110390476Y-55828571D01*
X110438095Y-55780952D01*
X110533333Y-55733333D01*
X110771428Y-55733333D01*
X110866666Y-55780952D01*
X110914285Y-55828571D01*
X110961904Y-55923809D01*
X110961904Y-56161904D01*
X110914285Y-56257142D01*
X110866666Y-56304761D01*
X110771428Y-56352380D01*
X110533333Y-56352380D01*
X110438095Y-56304761D01*
X110390476Y-56257142D01*
%TO.C,R22*%
X71857142Y-20352380D02*
X71523809Y-19876190D01*
X71285714Y-20352380D02*
X71285714Y-19352380D01*
X71666666Y-19352380D01*
X71761904Y-19400000D01*
X71809523Y-19447619D01*
X71857142Y-19542857D01*
X71857142Y-19685714D01*
X71809523Y-19780952D01*
X71761904Y-19828571D01*
X71666666Y-19876190D01*
X71285714Y-19876190D01*
X72238095Y-19447619D02*
X72285714Y-19400000D01*
X72380952Y-19352380D01*
X72619047Y-19352380D01*
X72714285Y-19400000D01*
X72761904Y-19447619D01*
X72809523Y-19542857D01*
X72809523Y-19638095D01*
X72761904Y-19780952D01*
X72190476Y-20352380D01*
X72809523Y-20352380D01*
X73190476Y-19447619D02*
X73238095Y-19400000D01*
X73333333Y-19352380D01*
X73571428Y-19352380D01*
X73666666Y-19400000D01*
X73714285Y-19447619D01*
X73761904Y-19542857D01*
X73761904Y-19638095D01*
X73714285Y-19780952D01*
X73142857Y-20352380D01*
X73761904Y-20352380D01*
%TO.C,R2*%
X102333333Y-34252380D02*
X102000000Y-33776190D01*
X101761904Y-34252380D02*
X101761904Y-33252380D01*
X102142857Y-33252380D01*
X102238095Y-33300000D01*
X102285714Y-33347619D01*
X102333333Y-33442857D01*
X102333333Y-33585714D01*
X102285714Y-33680952D01*
X102238095Y-33728571D01*
X102142857Y-33776190D01*
X101761904Y-33776190D01*
X102714285Y-33347619D02*
X102761904Y-33300000D01*
X102857142Y-33252380D01*
X103095238Y-33252380D01*
X103190476Y-33300000D01*
X103238095Y-33347619D01*
X103285714Y-33442857D01*
X103285714Y-33538095D01*
X103238095Y-33680952D01*
X102666666Y-34252380D01*
X103285714Y-34252380D01*
%TO.C,R39*%
X45857142Y-39252380D02*
X45523809Y-38776190D01*
X45285714Y-39252380D02*
X45285714Y-38252380D01*
X45666666Y-38252380D01*
X45761904Y-38300000D01*
X45809523Y-38347619D01*
X45857142Y-38442857D01*
X45857142Y-38585714D01*
X45809523Y-38680952D01*
X45761904Y-38728571D01*
X45666666Y-38776190D01*
X45285714Y-38776190D01*
X46190476Y-38252380D02*
X46809523Y-38252380D01*
X46476190Y-38633333D01*
X46619047Y-38633333D01*
X46714285Y-38680952D01*
X46761904Y-38728571D01*
X46809523Y-38823809D01*
X46809523Y-39061904D01*
X46761904Y-39157142D01*
X46714285Y-39204761D01*
X46619047Y-39252380D01*
X46333333Y-39252380D01*
X46238095Y-39204761D01*
X46190476Y-39157142D01*
X47285714Y-39252380D02*
X47476190Y-39252380D01*
X47571428Y-39204761D01*
X47619047Y-39157142D01*
X47714285Y-39014285D01*
X47761904Y-38823809D01*
X47761904Y-38442857D01*
X47714285Y-38347619D01*
X47666666Y-38300000D01*
X47571428Y-38252380D01*
X47380952Y-38252380D01*
X47285714Y-38300000D01*
X47238095Y-38347619D01*
X47190476Y-38442857D01*
X47190476Y-38680952D01*
X47238095Y-38776190D01*
X47285714Y-38823809D01*
X47380952Y-38871428D01*
X47571428Y-38871428D01*
X47666666Y-38823809D01*
X47714285Y-38776190D01*
X47761904Y-38680952D01*
%TO.C,C19*%
X102157142Y-31357142D02*
X102109523Y-31404761D01*
X101966666Y-31452380D01*
X101871428Y-31452380D01*
X101728571Y-31404761D01*
X101633333Y-31309523D01*
X101585714Y-31214285D01*
X101538095Y-31023809D01*
X101538095Y-30880952D01*
X101585714Y-30690476D01*
X101633333Y-30595238D01*
X101728571Y-30500000D01*
X101871428Y-30452380D01*
X101966666Y-30452380D01*
X102109523Y-30500000D01*
X102157142Y-30547619D01*
X103109523Y-31452380D02*
X102538095Y-31452380D01*
X102823809Y-31452380D02*
X102823809Y-30452380D01*
X102728571Y-30595238D01*
X102633333Y-30690476D01*
X102538095Y-30738095D01*
X103585714Y-31452380D02*
X103776190Y-31452380D01*
X103871428Y-31404761D01*
X103919047Y-31357142D01*
X104014285Y-31214285D01*
X104061904Y-31023809D01*
X104061904Y-30642857D01*
X104014285Y-30547619D01*
X103966666Y-30500000D01*
X103871428Y-30452380D01*
X103680952Y-30452380D01*
X103585714Y-30500000D01*
X103538095Y-30547619D01*
X103490476Y-30642857D01*
X103490476Y-30880952D01*
X103538095Y-30976190D01*
X103585714Y-31023809D01*
X103680952Y-31071428D01*
X103871428Y-31071428D01*
X103966666Y-31023809D01*
X104014285Y-30976190D01*
X104061904Y-30880952D01*
%TO.C,R18*%
X98357142Y-39952380D02*
X98023809Y-39476190D01*
X97785714Y-39952380D02*
X97785714Y-38952380D01*
X98166666Y-38952380D01*
X98261904Y-39000000D01*
X98309523Y-39047619D01*
X98357142Y-39142857D01*
X98357142Y-39285714D01*
X98309523Y-39380952D01*
X98261904Y-39428571D01*
X98166666Y-39476190D01*
X97785714Y-39476190D01*
X99309523Y-39952380D02*
X98738095Y-39952380D01*
X99023809Y-39952380D02*
X99023809Y-38952380D01*
X98928571Y-39095238D01*
X98833333Y-39190476D01*
X98738095Y-39238095D01*
X99880952Y-39380952D02*
X99785714Y-39333333D01*
X99738095Y-39285714D01*
X99690476Y-39190476D01*
X99690476Y-39142857D01*
X99738095Y-39047619D01*
X99785714Y-39000000D01*
X99880952Y-38952380D01*
X100071428Y-38952380D01*
X100166666Y-39000000D01*
X100214285Y-39047619D01*
X100261904Y-39142857D01*
X100261904Y-39190476D01*
X100214285Y-39285714D01*
X100166666Y-39333333D01*
X100071428Y-39380952D01*
X99880952Y-39380952D01*
X99785714Y-39428571D01*
X99738095Y-39476190D01*
X99690476Y-39571428D01*
X99690476Y-39761904D01*
X99738095Y-39857142D01*
X99785714Y-39904761D01*
X99880952Y-39952380D01*
X100071428Y-39952380D01*
X100166666Y-39904761D01*
X100214285Y-39857142D01*
X100261904Y-39761904D01*
X100261904Y-39571428D01*
X100214285Y-39476190D01*
X100166666Y-39428571D01*
X100071428Y-39380952D01*
%TO.C,R42*%
X79107142Y-48772380D02*
X78773809Y-48296190D01*
X78535714Y-48772380D02*
X78535714Y-47772380D01*
X78916666Y-47772380D01*
X79011904Y-47820000D01*
X79059523Y-47867619D01*
X79107142Y-47962857D01*
X79107142Y-48105714D01*
X79059523Y-48200952D01*
X79011904Y-48248571D01*
X78916666Y-48296190D01*
X78535714Y-48296190D01*
X79964285Y-48105714D02*
X79964285Y-48772380D01*
X79726190Y-47724761D02*
X79488095Y-48439047D01*
X80107142Y-48439047D01*
X80440476Y-47867619D02*
X80488095Y-47820000D01*
X80583333Y-47772380D01*
X80821428Y-47772380D01*
X80916666Y-47820000D01*
X80964285Y-47867619D01*
X81011904Y-47962857D01*
X81011904Y-48058095D01*
X80964285Y-48200952D01*
X80392857Y-48772380D01*
X81011904Y-48772380D01*
%TO.C,Y1*%
X42276190Y-69226190D02*
X42752380Y-69226190D01*
X41752380Y-69559523D02*
X42276190Y-69226190D01*
X41752380Y-68892857D01*
X42752380Y-68035714D02*
X42752380Y-68607142D01*
X42752380Y-68321428D02*
X41752380Y-68321428D01*
X41895238Y-68416666D01*
X41990476Y-68511904D01*
X42038095Y-68607142D01*
%TO.C,IC7*%
X66523809Y-47552380D02*
X66523809Y-46552380D01*
X67571428Y-47457142D02*
X67523809Y-47504761D01*
X67380952Y-47552380D01*
X67285714Y-47552380D01*
X67142857Y-47504761D01*
X67047619Y-47409523D01*
X67000000Y-47314285D01*
X66952380Y-47123809D01*
X66952380Y-46980952D01*
X67000000Y-46790476D01*
X67047619Y-46695238D01*
X67142857Y-46600000D01*
X67285714Y-46552380D01*
X67380952Y-46552380D01*
X67523809Y-46600000D01*
X67571428Y-46647619D01*
X67904761Y-46552380D02*
X68571428Y-46552380D01*
X68142857Y-47552380D01*
%TO.C,C32*%
X46657142Y-24457142D02*
X46609523Y-24504761D01*
X46466666Y-24552380D01*
X46371428Y-24552380D01*
X46228571Y-24504761D01*
X46133333Y-24409523D01*
X46085714Y-24314285D01*
X46038095Y-24123809D01*
X46038095Y-23980952D01*
X46085714Y-23790476D01*
X46133333Y-23695238D01*
X46228571Y-23600000D01*
X46371428Y-23552380D01*
X46466666Y-23552380D01*
X46609523Y-23600000D01*
X46657142Y-23647619D01*
X46990476Y-23552380D02*
X47609523Y-23552380D01*
X47276190Y-23933333D01*
X47419047Y-23933333D01*
X47514285Y-23980952D01*
X47561904Y-24028571D01*
X47609523Y-24123809D01*
X47609523Y-24361904D01*
X47561904Y-24457142D01*
X47514285Y-24504761D01*
X47419047Y-24552380D01*
X47133333Y-24552380D01*
X47038095Y-24504761D01*
X46990476Y-24457142D01*
X47990476Y-23647619D02*
X48038095Y-23600000D01*
X48133333Y-23552380D01*
X48371428Y-23552380D01*
X48466666Y-23600000D01*
X48514285Y-23647619D01*
X48561904Y-23742857D01*
X48561904Y-23838095D01*
X48514285Y-23980952D01*
X47942857Y-24552380D01*
X48561904Y-24552380D01*
%TO.C,C33*%
X82657142Y-24457142D02*
X82609523Y-24504761D01*
X82466666Y-24552380D01*
X82371428Y-24552380D01*
X82228571Y-24504761D01*
X82133333Y-24409523D01*
X82085714Y-24314285D01*
X82038095Y-24123809D01*
X82038095Y-23980952D01*
X82085714Y-23790476D01*
X82133333Y-23695238D01*
X82228571Y-23600000D01*
X82371428Y-23552380D01*
X82466666Y-23552380D01*
X82609523Y-23600000D01*
X82657142Y-23647619D01*
X82990476Y-23552380D02*
X83609523Y-23552380D01*
X83276190Y-23933333D01*
X83419047Y-23933333D01*
X83514285Y-23980952D01*
X83561904Y-24028571D01*
X83609523Y-24123809D01*
X83609523Y-24361904D01*
X83561904Y-24457142D01*
X83514285Y-24504761D01*
X83419047Y-24552380D01*
X83133333Y-24552380D01*
X83038095Y-24504761D01*
X82990476Y-24457142D01*
X83942857Y-23552380D02*
X84561904Y-23552380D01*
X84228571Y-23933333D01*
X84371428Y-23933333D01*
X84466666Y-23980952D01*
X84514285Y-24028571D01*
X84561904Y-24123809D01*
X84561904Y-24361904D01*
X84514285Y-24457142D01*
X84466666Y-24504761D01*
X84371428Y-24552380D01*
X84085714Y-24552380D01*
X83990476Y-24504761D01*
X83942857Y-24457142D01*
%TO.C,D9*%
X45661904Y-37752380D02*
X45661904Y-36752380D01*
X45900000Y-36752380D01*
X46042857Y-36800000D01*
X46138095Y-36895238D01*
X46185714Y-36990476D01*
X46233333Y-37180952D01*
X46233333Y-37323809D01*
X46185714Y-37514285D01*
X46138095Y-37609523D01*
X46042857Y-37704761D01*
X45900000Y-37752380D01*
X45661904Y-37752380D01*
X46709523Y-37752380D02*
X46900000Y-37752380D01*
X46995238Y-37704761D01*
X47042857Y-37657142D01*
X47138095Y-37514285D01*
X47185714Y-37323809D01*
X47185714Y-36942857D01*
X47138095Y-36847619D01*
X47090476Y-36800000D01*
X46995238Y-36752380D01*
X46804761Y-36752380D01*
X46709523Y-36800000D01*
X46661904Y-36847619D01*
X46614285Y-36942857D01*
X46614285Y-37180952D01*
X46661904Y-37276190D01*
X46709523Y-37323809D01*
X46804761Y-37371428D01*
X46995238Y-37371428D01*
X47090476Y-37323809D01*
X47138095Y-37276190D01*
X47185714Y-37180952D01*
%TO.C,C39*%
X110457142Y-28942857D02*
X110504761Y-28990476D01*
X110552380Y-29133333D01*
X110552380Y-29228571D01*
X110504761Y-29371428D01*
X110409523Y-29466666D01*
X110314285Y-29514285D01*
X110123809Y-29561904D01*
X109980952Y-29561904D01*
X109790476Y-29514285D01*
X109695238Y-29466666D01*
X109600000Y-29371428D01*
X109552380Y-29228571D01*
X109552380Y-29133333D01*
X109600000Y-28990476D01*
X109647619Y-28942857D01*
X109552380Y-28609523D02*
X109552380Y-27990476D01*
X109933333Y-28323809D01*
X109933333Y-28180952D01*
X109980952Y-28085714D01*
X110028571Y-28038095D01*
X110123809Y-27990476D01*
X110361904Y-27990476D01*
X110457142Y-28038095D01*
X110504761Y-28085714D01*
X110552380Y-28180952D01*
X110552380Y-28466666D01*
X110504761Y-28561904D01*
X110457142Y-28609523D01*
X110552380Y-27514285D02*
X110552380Y-27323809D01*
X110504761Y-27228571D01*
X110457142Y-27180952D01*
X110314285Y-27085714D01*
X110123809Y-27038095D01*
X109742857Y-27038095D01*
X109647619Y-27085714D01*
X109600000Y-27133333D01*
X109552380Y-27228571D01*
X109552380Y-27419047D01*
X109600000Y-27514285D01*
X109647619Y-27561904D01*
X109742857Y-27609523D01*
X109980952Y-27609523D01*
X110076190Y-27561904D01*
X110123809Y-27514285D01*
X110171428Y-27419047D01*
X110171428Y-27228571D01*
X110123809Y-27133333D01*
X110076190Y-27085714D01*
X109980952Y-27038095D01*
%TO.C,J1*%
X112436666Y-67652380D02*
X112436666Y-68366666D01*
X112389047Y-68509523D01*
X112293809Y-68604761D01*
X112150952Y-68652380D01*
X112055714Y-68652380D01*
X113436666Y-68652380D02*
X112865238Y-68652380D01*
X113150952Y-68652380D02*
X113150952Y-67652380D01*
X113055714Y-67795238D01*
X112960476Y-67890476D01*
X112865238Y-67938095D01*
%TO.C,D5*%
X46561904Y-20352380D02*
X46561904Y-19352380D01*
X46800000Y-19352380D01*
X46942857Y-19400000D01*
X47038095Y-19495238D01*
X47085714Y-19590476D01*
X47133333Y-19780952D01*
X47133333Y-19923809D01*
X47085714Y-20114285D01*
X47038095Y-20209523D01*
X46942857Y-20304761D01*
X46800000Y-20352380D01*
X46561904Y-20352380D01*
X48038095Y-19352380D02*
X47561904Y-19352380D01*
X47514285Y-19828571D01*
X47561904Y-19780952D01*
X47657142Y-19733333D01*
X47895238Y-19733333D01*
X47990476Y-19780952D01*
X48038095Y-19828571D01*
X48085714Y-19923809D01*
X48085714Y-20161904D01*
X48038095Y-20257142D01*
X47990476Y-20304761D01*
X47895238Y-20352380D01*
X47657142Y-20352380D01*
X47561904Y-20304761D01*
X47514285Y-20257142D01*
%TO.C,R14*%
X68457142Y-34052380D02*
X68123809Y-33576190D01*
X67885714Y-34052380D02*
X67885714Y-33052380D01*
X68266666Y-33052380D01*
X68361904Y-33100000D01*
X68409523Y-33147619D01*
X68457142Y-33242857D01*
X68457142Y-33385714D01*
X68409523Y-33480952D01*
X68361904Y-33528571D01*
X68266666Y-33576190D01*
X67885714Y-33576190D01*
X69409523Y-34052380D02*
X68838095Y-34052380D01*
X69123809Y-34052380D02*
X69123809Y-33052380D01*
X69028571Y-33195238D01*
X68933333Y-33290476D01*
X68838095Y-33338095D01*
X70266666Y-33385714D02*
X70266666Y-34052380D01*
X70028571Y-33004761D02*
X69790476Y-33719047D01*
X70409523Y-33719047D01*
%TO.C,C37*%
X109057142Y-70057142D02*
X109009523Y-70104761D01*
X108866666Y-70152380D01*
X108771428Y-70152380D01*
X108628571Y-70104761D01*
X108533333Y-70009523D01*
X108485714Y-69914285D01*
X108438095Y-69723809D01*
X108438095Y-69580952D01*
X108485714Y-69390476D01*
X108533333Y-69295238D01*
X108628571Y-69200000D01*
X108771428Y-69152380D01*
X108866666Y-69152380D01*
X109009523Y-69200000D01*
X109057142Y-69247619D01*
X109390476Y-69152380D02*
X110009523Y-69152380D01*
X109676190Y-69533333D01*
X109819047Y-69533333D01*
X109914285Y-69580952D01*
X109961904Y-69628571D01*
X110009523Y-69723809D01*
X110009523Y-69961904D01*
X109961904Y-70057142D01*
X109914285Y-70104761D01*
X109819047Y-70152380D01*
X109533333Y-70152380D01*
X109438095Y-70104761D01*
X109390476Y-70057142D01*
X110342857Y-69152380D02*
X111009523Y-69152380D01*
X110580952Y-70152380D01*
%TO.C,R27*%
X65257142Y-24152380D02*
X64923809Y-23676190D01*
X64685714Y-24152380D02*
X64685714Y-23152380D01*
X65066666Y-23152380D01*
X65161904Y-23200000D01*
X65209523Y-23247619D01*
X65257142Y-23342857D01*
X65257142Y-23485714D01*
X65209523Y-23580952D01*
X65161904Y-23628571D01*
X65066666Y-23676190D01*
X64685714Y-23676190D01*
X65638095Y-23247619D02*
X65685714Y-23200000D01*
X65780952Y-23152380D01*
X66019047Y-23152380D01*
X66114285Y-23200000D01*
X66161904Y-23247619D01*
X66209523Y-23342857D01*
X66209523Y-23438095D01*
X66161904Y-23580952D01*
X65590476Y-24152380D01*
X66209523Y-24152380D01*
X66542857Y-23152380D02*
X67209523Y-23152380D01*
X66780952Y-24152380D01*
%TO.C,R26*%
X101957142Y-36252380D02*
X101623809Y-35776190D01*
X101385714Y-36252380D02*
X101385714Y-35252380D01*
X101766666Y-35252380D01*
X101861904Y-35300000D01*
X101909523Y-35347619D01*
X101957142Y-35442857D01*
X101957142Y-35585714D01*
X101909523Y-35680952D01*
X101861904Y-35728571D01*
X101766666Y-35776190D01*
X101385714Y-35776190D01*
X102338095Y-35347619D02*
X102385714Y-35300000D01*
X102480952Y-35252380D01*
X102719047Y-35252380D01*
X102814285Y-35300000D01*
X102861904Y-35347619D01*
X102909523Y-35442857D01*
X102909523Y-35538095D01*
X102861904Y-35680952D01*
X102290476Y-36252380D01*
X102909523Y-36252380D01*
X103766666Y-35252380D02*
X103576190Y-35252380D01*
X103480952Y-35300000D01*
X103433333Y-35347619D01*
X103338095Y-35490476D01*
X103290476Y-35680952D01*
X103290476Y-36061904D01*
X103338095Y-36157142D01*
X103385714Y-36204761D01*
X103480952Y-36252380D01*
X103671428Y-36252380D01*
X103766666Y-36204761D01*
X103814285Y-36157142D01*
X103861904Y-36061904D01*
X103861904Y-35823809D01*
X103814285Y-35728571D01*
X103766666Y-35680952D01*
X103671428Y-35633333D01*
X103480952Y-35633333D01*
X103385714Y-35680952D01*
X103338095Y-35728571D01*
X103290476Y-35823809D01*
%TO.C,R38*%
X82657142Y-18952380D02*
X82323809Y-18476190D01*
X82085714Y-18952380D02*
X82085714Y-17952380D01*
X82466666Y-17952380D01*
X82561904Y-18000000D01*
X82609523Y-18047619D01*
X82657142Y-18142857D01*
X82657142Y-18285714D01*
X82609523Y-18380952D01*
X82561904Y-18428571D01*
X82466666Y-18476190D01*
X82085714Y-18476190D01*
X82990476Y-17952380D02*
X83609523Y-17952380D01*
X83276190Y-18333333D01*
X83419047Y-18333333D01*
X83514285Y-18380952D01*
X83561904Y-18428571D01*
X83609523Y-18523809D01*
X83609523Y-18761904D01*
X83561904Y-18857142D01*
X83514285Y-18904761D01*
X83419047Y-18952380D01*
X83133333Y-18952380D01*
X83038095Y-18904761D01*
X82990476Y-18857142D01*
X84180952Y-18380952D02*
X84085714Y-18333333D01*
X84038095Y-18285714D01*
X83990476Y-18190476D01*
X83990476Y-18142857D01*
X84038095Y-18047619D01*
X84085714Y-18000000D01*
X84180952Y-17952380D01*
X84371428Y-17952380D01*
X84466666Y-18000000D01*
X84514285Y-18047619D01*
X84561904Y-18142857D01*
X84561904Y-18190476D01*
X84514285Y-18285714D01*
X84466666Y-18333333D01*
X84371428Y-18380952D01*
X84180952Y-18380952D01*
X84085714Y-18428571D01*
X84038095Y-18476190D01*
X83990476Y-18571428D01*
X83990476Y-18761904D01*
X84038095Y-18857142D01*
X84085714Y-18904761D01*
X84180952Y-18952380D01*
X84371428Y-18952380D01*
X84466666Y-18904761D01*
X84514285Y-18857142D01*
X84561904Y-18761904D01*
X84561904Y-18571428D01*
X84514285Y-18476190D01*
X84466666Y-18428571D01*
X84371428Y-18380952D01*
%TO.C,R23*%
X35357142Y-39852380D02*
X35023809Y-39376190D01*
X34785714Y-39852380D02*
X34785714Y-38852380D01*
X35166666Y-38852380D01*
X35261904Y-38900000D01*
X35309523Y-38947619D01*
X35357142Y-39042857D01*
X35357142Y-39185714D01*
X35309523Y-39280952D01*
X35261904Y-39328571D01*
X35166666Y-39376190D01*
X34785714Y-39376190D01*
X35738095Y-38947619D02*
X35785714Y-38900000D01*
X35880952Y-38852380D01*
X36119047Y-38852380D01*
X36214285Y-38900000D01*
X36261904Y-38947619D01*
X36309523Y-39042857D01*
X36309523Y-39138095D01*
X36261904Y-39280952D01*
X35690476Y-39852380D01*
X36309523Y-39852380D01*
X36642857Y-38852380D02*
X37261904Y-38852380D01*
X36928571Y-39233333D01*
X37071428Y-39233333D01*
X37166666Y-39280952D01*
X37214285Y-39328571D01*
X37261904Y-39423809D01*
X37261904Y-39661904D01*
X37214285Y-39757142D01*
X37166666Y-39804761D01*
X37071428Y-39852380D01*
X36785714Y-39852380D01*
X36690476Y-39804761D01*
X36642857Y-39757142D01*
%TO.C,C14*%
X91457142Y-64557142D02*
X91409523Y-64604761D01*
X91266666Y-64652380D01*
X91171428Y-64652380D01*
X91028571Y-64604761D01*
X90933333Y-64509523D01*
X90885714Y-64414285D01*
X90838095Y-64223809D01*
X90838095Y-64080952D01*
X90885714Y-63890476D01*
X90933333Y-63795238D01*
X91028571Y-63700000D01*
X91171428Y-63652380D01*
X91266666Y-63652380D01*
X91409523Y-63700000D01*
X91457142Y-63747619D01*
X92409523Y-64652380D02*
X91838095Y-64652380D01*
X92123809Y-64652380D02*
X92123809Y-63652380D01*
X92028571Y-63795238D01*
X91933333Y-63890476D01*
X91838095Y-63938095D01*
X93266666Y-63985714D02*
X93266666Y-64652380D01*
X93028571Y-63604761D02*
X92790476Y-64319047D01*
X93409523Y-64319047D01*
%TO.C,R48*%
X91457142Y-61952380D02*
X91123809Y-61476190D01*
X90885714Y-61952380D02*
X90885714Y-60952380D01*
X91266666Y-60952380D01*
X91361904Y-61000000D01*
X91409523Y-61047619D01*
X91457142Y-61142857D01*
X91457142Y-61285714D01*
X91409523Y-61380952D01*
X91361904Y-61428571D01*
X91266666Y-61476190D01*
X90885714Y-61476190D01*
X92314285Y-61285714D02*
X92314285Y-61952380D01*
X92076190Y-60904761D02*
X91838095Y-61619047D01*
X92457142Y-61619047D01*
X92980952Y-61380952D02*
X92885714Y-61333333D01*
X92838095Y-61285714D01*
X92790476Y-61190476D01*
X92790476Y-61142857D01*
X92838095Y-61047619D01*
X92885714Y-61000000D01*
X92980952Y-60952380D01*
X93171428Y-60952380D01*
X93266666Y-61000000D01*
X93314285Y-61047619D01*
X93361904Y-61142857D01*
X93361904Y-61190476D01*
X93314285Y-61285714D01*
X93266666Y-61333333D01*
X93171428Y-61380952D01*
X92980952Y-61380952D01*
X92885714Y-61428571D01*
X92838095Y-61476190D01*
X92790476Y-61571428D01*
X92790476Y-61761904D01*
X92838095Y-61857142D01*
X92885714Y-61904761D01*
X92980952Y-61952380D01*
X93171428Y-61952380D01*
X93266666Y-61904761D01*
X93314285Y-61857142D01*
X93361904Y-61761904D01*
X93361904Y-61571428D01*
X93314285Y-61476190D01*
X93266666Y-61428571D01*
X93171428Y-61380952D01*
%TO.C,D3*%
X50561904Y-20352380D02*
X50561904Y-19352380D01*
X50800000Y-19352380D01*
X50942857Y-19400000D01*
X51038095Y-19495238D01*
X51085714Y-19590476D01*
X51133333Y-19780952D01*
X51133333Y-19923809D01*
X51085714Y-20114285D01*
X51038095Y-20209523D01*
X50942857Y-20304761D01*
X50800000Y-20352380D01*
X50561904Y-20352380D01*
X51466666Y-19352380D02*
X52085714Y-19352380D01*
X51752380Y-19733333D01*
X51895238Y-19733333D01*
X51990476Y-19780952D01*
X52038095Y-19828571D01*
X52085714Y-19923809D01*
X52085714Y-20161904D01*
X52038095Y-20257142D01*
X51990476Y-20304761D01*
X51895238Y-20352380D01*
X51609523Y-20352380D01*
X51514285Y-20304761D01*
X51466666Y-20257142D01*
%TO.C,R21*%
X35357142Y-20452380D02*
X35023809Y-19976190D01*
X34785714Y-20452380D02*
X34785714Y-19452380D01*
X35166666Y-19452380D01*
X35261904Y-19500000D01*
X35309523Y-19547619D01*
X35357142Y-19642857D01*
X35357142Y-19785714D01*
X35309523Y-19880952D01*
X35261904Y-19928571D01*
X35166666Y-19976190D01*
X34785714Y-19976190D01*
X35738095Y-19547619D02*
X35785714Y-19500000D01*
X35880952Y-19452380D01*
X36119047Y-19452380D01*
X36214285Y-19500000D01*
X36261904Y-19547619D01*
X36309523Y-19642857D01*
X36309523Y-19738095D01*
X36261904Y-19880952D01*
X35690476Y-20452380D01*
X36309523Y-20452380D01*
X37261904Y-20452380D02*
X36690476Y-20452380D01*
X36976190Y-20452380D02*
X36976190Y-19452380D01*
X36880952Y-19595238D01*
X36785714Y-19690476D01*
X36690476Y-19738095D01*
%TO.C,C31*%
X69557142Y-31842857D02*
X69604761Y-31890476D01*
X69652380Y-32033333D01*
X69652380Y-32128571D01*
X69604761Y-32271428D01*
X69509523Y-32366666D01*
X69414285Y-32414285D01*
X69223809Y-32461904D01*
X69080952Y-32461904D01*
X68890476Y-32414285D01*
X68795238Y-32366666D01*
X68700000Y-32271428D01*
X68652380Y-32128571D01*
X68652380Y-32033333D01*
X68700000Y-31890476D01*
X68747619Y-31842857D01*
X68652380Y-31509523D02*
X68652380Y-30890476D01*
X69033333Y-31223809D01*
X69033333Y-31080952D01*
X69080952Y-30985714D01*
X69128571Y-30938095D01*
X69223809Y-30890476D01*
X69461904Y-30890476D01*
X69557142Y-30938095D01*
X69604761Y-30985714D01*
X69652380Y-31080952D01*
X69652380Y-31366666D01*
X69604761Y-31461904D01*
X69557142Y-31509523D01*
X69652380Y-29938095D02*
X69652380Y-30509523D01*
X69652380Y-30223809D02*
X68652380Y-30223809D01*
X68795238Y-30319047D01*
X68890476Y-30414285D01*
X68938095Y-30509523D01*
%TO.C,C24*%
X50657142Y-23057142D02*
X50609523Y-23104761D01*
X50466666Y-23152380D01*
X50371428Y-23152380D01*
X50228571Y-23104761D01*
X50133333Y-23009523D01*
X50085714Y-22914285D01*
X50038095Y-22723809D01*
X50038095Y-22580952D01*
X50085714Y-22390476D01*
X50133333Y-22295238D01*
X50228571Y-22200000D01*
X50371428Y-22152380D01*
X50466666Y-22152380D01*
X50609523Y-22200000D01*
X50657142Y-22247619D01*
X51038095Y-22247619D02*
X51085714Y-22200000D01*
X51180952Y-22152380D01*
X51419047Y-22152380D01*
X51514285Y-22200000D01*
X51561904Y-22247619D01*
X51609523Y-22342857D01*
X51609523Y-22438095D01*
X51561904Y-22580952D01*
X50990476Y-23152380D01*
X51609523Y-23152380D01*
X52466666Y-22485714D02*
X52466666Y-23152380D01*
X52228571Y-22104761D02*
X51990476Y-22819047D01*
X52609523Y-22819047D01*
%TO.C,R13*%
X31957142Y-34252380D02*
X31623809Y-33776190D01*
X31385714Y-34252380D02*
X31385714Y-33252380D01*
X31766666Y-33252380D01*
X31861904Y-33300000D01*
X31909523Y-33347619D01*
X31957142Y-33442857D01*
X31957142Y-33585714D01*
X31909523Y-33680952D01*
X31861904Y-33728571D01*
X31766666Y-33776190D01*
X31385714Y-33776190D01*
X32909523Y-34252380D02*
X32338095Y-34252380D01*
X32623809Y-34252380D02*
X32623809Y-33252380D01*
X32528571Y-33395238D01*
X32433333Y-33490476D01*
X32338095Y-33538095D01*
X33242857Y-33252380D02*
X33861904Y-33252380D01*
X33528571Y-33633333D01*
X33671428Y-33633333D01*
X33766666Y-33680952D01*
X33814285Y-33728571D01*
X33861904Y-33823809D01*
X33861904Y-34061904D01*
X33814285Y-34157142D01*
X33766666Y-34204761D01*
X33671428Y-34252380D01*
X33385714Y-34252380D01*
X33290476Y-34204761D01*
X33242857Y-34157142D01*
%TO.C,RV2*%
X74104761Y-53652380D02*
X73771428Y-53176190D01*
X73533333Y-53652380D02*
X73533333Y-52652380D01*
X73914285Y-52652380D01*
X74009523Y-52700000D01*
X74057142Y-52747619D01*
X74104761Y-52842857D01*
X74104761Y-52985714D01*
X74057142Y-53080952D01*
X74009523Y-53128571D01*
X73914285Y-53176190D01*
X73533333Y-53176190D01*
X74390476Y-52652380D02*
X74723809Y-53652380D01*
X75057142Y-52652380D01*
X75342857Y-52747619D02*
X75390476Y-52700000D01*
X75485714Y-52652380D01*
X75723809Y-52652380D01*
X75819047Y-52700000D01*
X75866666Y-52747619D01*
X75914285Y-52842857D01*
X75914285Y-52938095D01*
X75866666Y-53080952D01*
X75295238Y-53652380D01*
X75914285Y-53652380D01*
%TO.C,R20*%
X98357142Y-20452380D02*
X98023809Y-19976190D01*
X97785714Y-20452380D02*
X97785714Y-19452380D01*
X98166666Y-19452380D01*
X98261904Y-19500000D01*
X98309523Y-19547619D01*
X98357142Y-19642857D01*
X98357142Y-19785714D01*
X98309523Y-19880952D01*
X98261904Y-19928571D01*
X98166666Y-19976190D01*
X97785714Y-19976190D01*
X98738095Y-19547619D02*
X98785714Y-19500000D01*
X98880952Y-19452380D01*
X99119047Y-19452380D01*
X99214285Y-19500000D01*
X99261904Y-19547619D01*
X99309523Y-19642857D01*
X99309523Y-19738095D01*
X99261904Y-19880952D01*
X98690476Y-20452380D01*
X99309523Y-20452380D01*
X99928571Y-19452380D02*
X100023809Y-19452380D01*
X100119047Y-19500000D01*
X100166666Y-19547619D01*
X100214285Y-19642857D01*
X100261904Y-19833333D01*
X100261904Y-20071428D01*
X100214285Y-20261904D01*
X100166666Y-20357142D01*
X100119047Y-20404761D01*
X100023809Y-20452380D01*
X99928571Y-20452380D01*
X99833333Y-20404761D01*
X99785714Y-20357142D01*
X99738095Y-20261904D01*
X99690476Y-20071428D01*
X99690476Y-19833333D01*
X99738095Y-19642857D01*
X99785714Y-19547619D01*
X99833333Y-19500000D01*
X99928571Y-19452380D01*
%TO.C,R9*%
X32933333Y-25952380D02*
X32600000Y-25476190D01*
X32361904Y-25952380D02*
X32361904Y-24952380D01*
X32742857Y-24952380D01*
X32838095Y-25000000D01*
X32885714Y-25047619D01*
X32933333Y-25142857D01*
X32933333Y-25285714D01*
X32885714Y-25380952D01*
X32838095Y-25428571D01*
X32742857Y-25476190D01*
X32361904Y-25476190D01*
X33409523Y-25952380D02*
X33600000Y-25952380D01*
X33695238Y-25904761D01*
X33742857Y-25857142D01*
X33838095Y-25714285D01*
X33885714Y-25523809D01*
X33885714Y-25142857D01*
X33838095Y-25047619D01*
X33790476Y-25000000D01*
X33695238Y-24952380D01*
X33504761Y-24952380D01*
X33409523Y-25000000D01*
X33361904Y-25047619D01*
X33314285Y-25142857D01*
X33314285Y-25380952D01*
X33361904Y-25476190D01*
X33409523Y-25523809D01*
X33504761Y-25571428D01*
X33695238Y-25571428D01*
X33790476Y-25523809D01*
X33838095Y-25476190D01*
X33885714Y-25380952D01*
%TO.C,C27*%
X69557142Y-28642857D02*
X69604761Y-28690476D01*
X69652380Y-28833333D01*
X69652380Y-28928571D01*
X69604761Y-29071428D01*
X69509523Y-29166666D01*
X69414285Y-29214285D01*
X69223809Y-29261904D01*
X69080952Y-29261904D01*
X68890476Y-29214285D01*
X68795238Y-29166666D01*
X68700000Y-29071428D01*
X68652380Y-28928571D01*
X68652380Y-28833333D01*
X68700000Y-28690476D01*
X68747619Y-28642857D01*
X68747619Y-28261904D02*
X68700000Y-28214285D01*
X68652380Y-28119047D01*
X68652380Y-27880952D01*
X68700000Y-27785714D01*
X68747619Y-27738095D01*
X68842857Y-27690476D01*
X68938095Y-27690476D01*
X69080952Y-27738095D01*
X69652380Y-28309523D01*
X69652380Y-27690476D01*
X68652380Y-27357142D02*
X68652380Y-26690476D01*
X69652380Y-27119047D01*
%TO.C,R33*%
X51257142Y-39252380D02*
X50923809Y-38776190D01*
X50685714Y-39252380D02*
X50685714Y-38252380D01*
X51066666Y-38252380D01*
X51161904Y-38300000D01*
X51209523Y-38347619D01*
X51257142Y-38442857D01*
X51257142Y-38585714D01*
X51209523Y-38680952D01*
X51161904Y-38728571D01*
X51066666Y-38776190D01*
X50685714Y-38776190D01*
X51590476Y-38252380D02*
X52209523Y-38252380D01*
X51876190Y-38633333D01*
X52019047Y-38633333D01*
X52114285Y-38680952D01*
X52161904Y-38728571D01*
X52209523Y-38823809D01*
X52209523Y-39061904D01*
X52161904Y-39157142D01*
X52114285Y-39204761D01*
X52019047Y-39252380D01*
X51733333Y-39252380D01*
X51638095Y-39204761D01*
X51590476Y-39157142D01*
X52542857Y-38252380D02*
X53161904Y-38252380D01*
X52828571Y-38633333D01*
X52971428Y-38633333D01*
X53066666Y-38680952D01*
X53114285Y-38728571D01*
X53161904Y-38823809D01*
X53161904Y-39061904D01*
X53114285Y-39157142D01*
X53066666Y-39204761D01*
X52971428Y-39252380D01*
X52685714Y-39252380D01*
X52590476Y-39204761D01*
X52542857Y-39157142D01*
%TO.C,C21*%
X87557142Y-24457142D02*
X87509523Y-24504761D01*
X87366666Y-24552380D01*
X87271428Y-24552380D01*
X87128571Y-24504761D01*
X87033333Y-24409523D01*
X86985714Y-24314285D01*
X86938095Y-24123809D01*
X86938095Y-23980952D01*
X86985714Y-23790476D01*
X87033333Y-23695238D01*
X87128571Y-23600000D01*
X87271428Y-23552380D01*
X87366666Y-23552380D01*
X87509523Y-23600000D01*
X87557142Y-23647619D01*
X87938095Y-23647619D02*
X87985714Y-23600000D01*
X88080952Y-23552380D01*
X88319047Y-23552380D01*
X88414285Y-23600000D01*
X88461904Y-23647619D01*
X88509523Y-23742857D01*
X88509523Y-23838095D01*
X88461904Y-23980952D01*
X87890476Y-24552380D01*
X88509523Y-24552380D01*
X89461904Y-24552380D02*
X88890476Y-24552380D01*
X89176190Y-24552380D02*
X89176190Y-23552380D01*
X89080952Y-23695238D01*
X88985714Y-23790476D01*
X88890476Y-23838095D01*
D12*
%TO.C,D10*%
X78250000Y-38310000D02*
X77600000Y-38310000D01*
X78250000Y-35190000D02*
X78900000Y-35190000D01*
X78250000Y-35190000D02*
X76575000Y-35190000D01*
X78250000Y-38310000D02*
X78900000Y-38310000D01*
%TO.C,R28*%
X98745276Y-22977500D02*
X99254724Y-22977500D01*
X98745276Y-24022500D02*
X99254724Y-24022500D01*
%TO.C,R10*%
X72245276Y-26022500D02*
X72754724Y-26022500D01*
X72245276Y-24977500D02*
X72754724Y-24977500D01*
%TO.C,J2*%
X110170000Y-34840000D02*
X110170000Y-33510000D01*
X110170000Y-48870000D02*
X115370000Y-48870000D01*
X112770000Y-36110000D02*
X112770000Y-33510000D01*
X110170000Y-33510000D02*
X111500000Y-33510000D01*
X110170000Y-36110000D02*
X112770000Y-36110000D01*
X112770000Y-33510000D02*
X115370000Y-33510000D01*
X115370000Y-33510000D02*
X115370000Y-48870000D01*
X110170000Y-36110000D02*
X110170000Y-48870000D01*
%TO.C,R41*%
X55504724Y-50272500D02*
X54995276Y-50272500D01*
X55504724Y-49227500D02*
X54995276Y-49227500D01*
%TO.C,IC5*%
X49250000Y-25315000D02*
X47300000Y-25315000D01*
X49250000Y-25315000D02*
X51200000Y-25315000D01*
X49250000Y-34185000D02*
X52700000Y-34185000D01*
X49250000Y-34185000D02*
X47300000Y-34185000D01*
%TO.C,C28*%
X41038748Y-27090000D02*
X42461252Y-27090000D01*
X41038748Y-28910000D02*
X42461252Y-28910000D01*
%TO.C,RV1*%
X57720000Y-52175000D02*
X57720000Y-42405000D01*
X57720000Y-52175000D02*
X62790000Y-52175000D01*
X57720000Y-42405000D02*
X62790000Y-42405000D01*
X62790000Y-52175000D02*
X62790000Y-42405000D01*
%TO.C,R32*%
X72754724Y-35227500D02*
X72245276Y-35227500D01*
X72754724Y-36272500D02*
X72245276Y-36272500D01*
%TO.C,R16*%
X78504724Y-34272500D02*
X77995276Y-34272500D01*
X78504724Y-33227500D02*
X77995276Y-33227500D01*
%TO.C,C22*%
X63211252Y-27090000D02*
X61788748Y-27090000D01*
X63211252Y-28910000D02*
X61788748Y-28910000D01*
%TO.C,R44*%
X46245276Y-64022500D02*
X46754724Y-64022500D01*
X46245276Y-62977500D02*
X46754724Y-62977500D01*
%TO.C,IC3*%
X49250000Y-46235000D02*
X47050000Y-46235000D01*
X49250000Y-40765000D02*
X51450000Y-40765000D01*
X49250000Y-46235000D02*
X52850000Y-46235000D01*
X49250000Y-40765000D02*
X47050000Y-40765000D01*
%TO.C,R17*%
X62245276Y-38272500D02*
X62754724Y-38272500D01*
X62245276Y-37227500D02*
X62754724Y-37227500D01*
%TO.C,R19*%
X62245276Y-20977500D02*
X62754724Y-20977500D01*
X62245276Y-22022500D02*
X62754724Y-22022500D01*
%TO.C,D2*%
X93250000Y-35190000D02*
X92600000Y-35190000D01*
X93250000Y-38310000D02*
X94925000Y-38310000D01*
X93250000Y-38310000D02*
X92600000Y-38310000D01*
X93250000Y-35190000D02*
X93900000Y-35190000D01*
%TO.C,R7*%
X56495276Y-26022500D02*
X57004724Y-26022500D01*
X56495276Y-24977500D02*
X57004724Y-24977500D01*
%TO.C,C36*%
X108645000Y-52525000D02*
G75*
G03*
X108645000Y-52525000I-2620000J0D01*
G01*
%TO.C,R46*%
X82745276Y-62977500D02*
X83254724Y-62977500D01*
X82745276Y-64022500D02*
X83254724Y-64022500D01*
%TO.C,C40*%
X104465000Y-27938748D02*
X104465000Y-28461252D01*
X105935000Y-27938748D02*
X105935000Y-28461252D01*
%TO.C,R31*%
X36254724Y-36272500D02*
X35745276Y-36272500D01*
X36254724Y-35227500D02*
X35745276Y-35227500D01*
%TO.C,D4*%
X93250000Y-20940000D02*
X92600000Y-20940000D01*
X93250000Y-24060000D02*
X92600000Y-24060000D01*
X93250000Y-20940000D02*
X93900000Y-20940000D01*
X93250000Y-24060000D02*
X94925000Y-24060000D01*
%TO.C,R6*%
X99254724Y-26022500D02*
X98745276Y-26022500D01*
X99254724Y-24977500D02*
X98745276Y-24977500D01*
%TO.C,C25*%
X93961252Y-27090000D02*
X92538748Y-27090000D01*
X93961252Y-28910000D02*
X92538748Y-28910000D01*
%TO.C,R45*%
X83254724Y-62022500D02*
X82745276Y-62022500D01*
X83254724Y-60977500D02*
X82745276Y-60977500D01*
%TO.C,R24*%
X72754724Y-38272500D02*
X72245276Y-38272500D01*
X72754724Y-37227500D02*
X72245276Y-37227500D01*
%TO.C,C42*%
X105935000Y-32661252D02*
X105935000Y-32138748D01*
X104465000Y-32661252D02*
X104465000Y-32138748D01*
%TO.C,C17*%
X72760000Y-63283767D02*
X72760000Y-62991233D01*
X71740000Y-63283767D02*
X71740000Y-62991233D01*
%TO.C,R11*%
X42004724Y-26022500D02*
X41495276Y-26022500D01*
X42004724Y-24977500D02*
X41495276Y-24977500D01*
%TO.C,R37*%
X42004724Y-20022500D02*
X41495276Y-20022500D01*
X42004724Y-18977500D02*
X41495276Y-18977500D01*
%TO.C,IC1*%
X67500000Y-65215000D02*
X69700000Y-65215000D01*
X67500000Y-65215000D02*
X63900000Y-65215000D01*
X67500000Y-73285000D02*
X65300000Y-73285000D01*
X67500000Y-73285000D02*
X69700000Y-73285000D01*
%TO.C,R34*%
X92995276Y-40272500D02*
X93504724Y-40272500D01*
X92995276Y-39227500D02*
X93504724Y-39227500D01*
%TO.C,R1*%
X62754724Y-33227500D02*
X62245276Y-33227500D01*
X62754724Y-34272500D02*
X62245276Y-34272500D01*
%TO.C,C29*%
X77538748Y-27090000D02*
X78961252Y-27090000D01*
X77538748Y-28910000D02*
X78961252Y-28910000D01*
%TO.C,IC8*%
X52010000Y-64540000D02*
X52010000Y-64815000D01*
X46490000Y-64540000D02*
X46490000Y-64815000D01*
X49250000Y-71960000D02*
X46490000Y-71960000D01*
X49250000Y-64540000D02*
X52010000Y-64540000D01*
X46490000Y-71960000D02*
X46490000Y-71685000D01*
X49250000Y-71960000D02*
X52010000Y-71960000D01*
X52010000Y-71960000D02*
X52010000Y-71685000D01*
X49250000Y-64540000D02*
X46490000Y-64540000D01*
X46490000Y-64815000D02*
X44800000Y-64815000D01*
%TO.C,C26*%
X35288748Y-27090000D02*
X36711252Y-27090000D01*
X35288748Y-28910000D02*
X36711252Y-28910000D01*
%TO.C,D7*%
X100750000Y-56940000D02*
X99075000Y-56940000D01*
X100750000Y-60060000D02*
X100100000Y-60060000D01*
X100750000Y-60060000D02*
X101400000Y-60060000D01*
X100750000Y-56940000D02*
X101400000Y-56940000D01*
%TO.C,IC2*%
X64115000Y-58000000D02*
X64115000Y-61600000D01*
X64115000Y-58000000D02*
X64115000Y-55800000D01*
X70885000Y-58000000D02*
X70885000Y-60200000D01*
X70885000Y-58000000D02*
X70885000Y-55800000D01*
%TO.C,C18*%
X63211252Y-32160000D02*
X61788748Y-32160000D01*
X63211252Y-30340000D02*
X61788748Y-30340000D01*
%TO.C,R35*%
X56495276Y-18977500D02*
X57004724Y-18977500D01*
X56495276Y-20022500D02*
X57004724Y-20022500D01*
%TO.C,R25*%
X62245276Y-36272500D02*
X62754724Y-36272500D01*
X62245276Y-35227500D02*
X62754724Y-35227500D01*
%TO.C,C34*%
X60896267Y-79010000D02*
X60603733Y-79010000D01*
X60896267Y-77990000D02*
X60603733Y-77990000D01*
%TO.C,D1*%
X56750000Y-35190000D02*
X57400000Y-35190000D01*
X56750000Y-35190000D02*
X56100000Y-35190000D01*
X56750000Y-38310000D02*
X58425000Y-38310000D01*
X56750000Y-38310000D02*
X56100000Y-38310000D01*
%TO.C,R43*%
X46754724Y-60977500D02*
X46245276Y-60977500D01*
X46754724Y-62022500D02*
X46245276Y-62022500D01*
%TO.C,R36*%
X92995276Y-18977500D02*
X93504724Y-18977500D01*
X92995276Y-20022500D02*
X93504724Y-20022500D01*
%TO.C,R29*%
X36254724Y-22977500D02*
X35745276Y-22977500D01*
X36254724Y-24022500D02*
X35745276Y-24022500D01*
%TO.C,C41*%
X107265000Y-32661252D02*
X107265000Y-32138748D01*
X108735000Y-32661252D02*
X108735000Y-32138748D01*
%TO.C,IC9*%
X82990000Y-71955000D02*
X82990000Y-71680000D01*
X88510000Y-71955000D02*
X88510000Y-71680000D01*
X85750000Y-64535000D02*
X88510000Y-64535000D01*
X85750000Y-71955000D02*
X82990000Y-71955000D01*
X88510000Y-64535000D02*
X88510000Y-64810000D01*
X85750000Y-64535000D02*
X82990000Y-64535000D01*
X82990000Y-64535000D02*
X82990000Y-64810000D01*
X85750000Y-71955000D02*
X88510000Y-71955000D01*
X82990000Y-64810000D02*
X81300000Y-64810000D01*
%TO.C,IC6*%
X85750000Y-34185000D02*
X83800000Y-34185000D01*
X85750000Y-25315000D02*
X87700000Y-25315000D01*
X85750000Y-34185000D02*
X89200000Y-34185000D01*
X85750000Y-25315000D02*
X83800000Y-25315000D01*
%TO.C,D6*%
X78250000Y-20940000D02*
X76575000Y-20940000D01*
X78250000Y-24060000D02*
X78900000Y-24060000D01*
X78250000Y-20940000D02*
X78900000Y-20940000D01*
X78250000Y-24060000D02*
X77600000Y-24060000D01*
%TO.C,IC4*%
X85750000Y-40765000D02*
X83550000Y-40765000D01*
X85750000Y-46235000D02*
X83550000Y-46235000D01*
X85750000Y-46235000D02*
X89350000Y-46235000D01*
X85750000Y-40765000D02*
X87950000Y-40765000D01*
%TO.C,R30*%
X72754724Y-22977500D02*
X72245276Y-22977500D01*
X72754724Y-24022500D02*
X72245276Y-24022500D01*
%TO.C,C20*%
X57461252Y-30340000D02*
X56038748Y-30340000D01*
X57461252Y-32160000D02*
X56038748Y-32160000D01*
%TO.C,R8*%
X92995276Y-26022500D02*
X93504724Y-26022500D01*
X92995276Y-24977500D02*
X93504724Y-24977500D01*
%TO.C,R40*%
X78504724Y-39227500D02*
X77995276Y-39227500D01*
X78504724Y-40272500D02*
X77995276Y-40272500D01*
%TO.C,R4*%
X92995276Y-33227500D02*
X93504724Y-33227500D01*
X92995276Y-34272500D02*
X93504724Y-34272500D01*
%TO.C,C30*%
X35288748Y-32160000D02*
X36711252Y-32160000D01*
X35288748Y-30340000D02*
X36711252Y-30340000D01*
%TO.C,R12*%
X78504724Y-26022500D02*
X77995276Y-26022500D01*
X78504724Y-24977500D02*
X77995276Y-24977500D01*
%TO.C,R3*%
X56495276Y-33227500D02*
X57004724Y-33227500D01*
X56495276Y-34272500D02*
X57004724Y-34272500D01*
%TO.C,C38*%
X108645000Y-73025000D02*
G75*
G03*
X108645000Y-73025000I-2620000J0D01*
G01*
%TO.C,R47*%
X52254724Y-60977500D02*
X51745276Y-60977500D01*
X52254724Y-62022500D02*
X51745276Y-62022500D01*
%TO.C,D8*%
X100750000Y-68560000D02*
X100100000Y-68560000D01*
X100750000Y-65440000D02*
X101400000Y-65440000D01*
X100750000Y-65440000D02*
X99075000Y-65440000D01*
X100750000Y-68560000D02*
X101400000Y-68560000D01*
%TO.C,C13*%
X51853733Y-64010000D02*
X52146267Y-64010000D01*
X51853733Y-62990000D02*
X52146267Y-62990000D01*
%TO.C,C23*%
X99711252Y-28910000D02*
X98288748Y-28910000D01*
X99711252Y-27090000D02*
X98288748Y-27090000D01*
%TO.C,R5*%
X62754724Y-24977500D02*
X62245276Y-24977500D01*
X62754724Y-26022500D02*
X62245276Y-26022500D01*
%TO.C,R15*%
X42004724Y-34272500D02*
X41495276Y-34272500D01*
X42004724Y-33227500D02*
X41495276Y-33227500D01*
%TO.C,C35*%
X108645000Y-58525000D02*
G75*
G03*
X108645000Y-58525000I-2620000J0D01*
G01*
%TO.C,R22*%
X72754724Y-20977500D02*
X72245276Y-20977500D01*
X72754724Y-22022500D02*
X72245276Y-22022500D01*
%TO.C,R2*%
X99254724Y-33227500D02*
X98745276Y-33227500D01*
X99254724Y-34272500D02*
X98745276Y-34272500D01*
%TO.C,R39*%
X42004724Y-39227500D02*
X41495276Y-39227500D01*
X42004724Y-40272500D02*
X41495276Y-40272500D01*
%TO.C,C19*%
X99711252Y-32160000D02*
X98288748Y-32160000D01*
X99711252Y-30340000D02*
X98288748Y-30340000D01*
%TO.C,R18*%
X98745276Y-37227500D02*
X99254724Y-37227500D01*
X98745276Y-38272500D02*
X99254724Y-38272500D01*
%TO.C,R42*%
X79495276Y-49227500D02*
X80004724Y-49227500D01*
X79495276Y-50272500D02*
X80004724Y-50272500D01*
%TO.C,Y1*%
X36200000Y-58675000D02*
X36200000Y-74650000D01*
X41300000Y-74650000D02*
X41300000Y-58675000D01*
X41300000Y-58675000D02*
X36200000Y-58675000D01*
%TO.C,IC7*%
X67500000Y-46060000D02*
X69450000Y-46060000D01*
X67500000Y-40940000D02*
X64050000Y-40940000D01*
X67500000Y-46060000D02*
X65550000Y-46060000D01*
X67500000Y-40940000D02*
X69450000Y-40940000D01*
%TO.C,C32*%
X41038748Y-32160000D02*
X42461252Y-32160000D01*
X41038748Y-30340000D02*
X42461252Y-30340000D01*
%TO.C,C33*%
X77538748Y-32160000D02*
X78961252Y-32160000D01*
X77538748Y-30340000D02*
X78961252Y-30340000D01*
%TO.C,D9*%
X41750000Y-38310000D02*
X42400000Y-38310000D01*
X41750000Y-38310000D02*
X41100000Y-38310000D01*
X41750000Y-35190000D02*
X40075000Y-35190000D01*
X41750000Y-35190000D02*
X42400000Y-35190000D01*
%TO.C,C39*%
X107265000Y-28461252D02*
X107265000Y-27938748D01*
X108735000Y-28461252D02*
X108735000Y-27938748D01*
%TO.C,J1*%
X110170000Y-60250000D02*
X110170000Y-58920000D01*
X110170000Y-58920000D02*
X111500000Y-58920000D01*
X110170000Y-61520000D02*
X112770000Y-61520000D01*
X110170000Y-61520000D02*
X110170000Y-66660000D01*
X110170000Y-66660000D02*
X115370000Y-66660000D01*
X112770000Y-61520000D02*
X112770000Y-58920000D01*
X112770000Y-58920000D02*
X115370000Y-58920000D01*
X115370000Y-58920000D02*
X115370000Y-66660000D01*
%TO.C,D5*%
X41750000Y-20940000D02*
X42400000Y-20940000D01*
X41750000Y-24060000D02*
X42400000Y-24060000D01*
X41750000Y-24060000D02*
X41100000Y-24060000D01*
X41750000Y-20940000D02*
X40075000Y-20940000D01*
%TO.C,R14*%
X72245276Y-33227500D02*
X72754724Y-33227500D01*
X72245276Y-34272500D02*
X72754724Y-34272500D01*
%TO.C,C37*%
X108645000Y-67025000D02*
G75*
G03*
X108645000Y-67025000I-2620000J0D01*
G01*
%TO.C,R27*%
X62245276Y-22977500D02*
X62754724Y-22977500D01*
X62245276Y-24022500D02*
X62754724Y-24022500D01*
%TO.C,R26*%
X98745276Y-35227500D02*
X99254724Y-35227500D01*
X98745276Y-36272500D02*
X99254724Y-36272500D01*
%TO.C,R38*%
X78504724Y-20022500D02*
X77995276Y-20022500D01*
X78504724Y-18977500D02*
X77995276Y-18977500D01*
%TO.C,R23*%
X36254724Y-38272500D02*
X35745276Y-38272500D01*
X36254724Y-37227500D02*
X35745276Y-37227500D01*
%TO.C,C14*%
X88603733Y-62990000D02*
X88896267Y-62990000D01*
X88603733Y-64010000D02*
X88896267Y-64010000D01*
%TO.C,R48*%
X89004724Y-62022500D02*
X88495276Y-62022500D01*
X89004724Y-60977500D02*
X88495276Y-60977500D01*
%TO.C,D3*%
X56750000Y-20940000D02*
X56100000Y-20940000D01*
X56750000Y-24060000D02*
X56100000Y-24060000D01*
X56750000Y-20940000D02*
X57400000Y-20940000D01*
X56750000Y-24060000D02*
X58425000Y-24060000D01*
%TO.C,R21*%
X36254724Y-20977500D02*
X35745276Y-20977500D01*
X36254724Y-22022500D02*
X35745276Y-22022500D01*
%TO.C,C31*%
X71788748Y-30340000D02*
X73211252Y-30340000D01*
X71788748Y-32160000D02*
X73211252Y-32160000D01*
%TO.C,C24*%
X57461252Y-28910000D02*
X56038748Y-28910000D01*
X57461252Y-27090000D02*
X56038748Y-27090000D01*
%TO.C,R13*%
X35745276Y-33227500D02*
X36254724Y-33227500D01*
X35745276Y-34272500D02*
X36254724Y-34272500D01*
%TO.C,RV2*%
X72220000Y-52175000D02*
X77290000Y-52175000D01*
X77290000Y-52175000D02*
X77290000Y-42405000D01*
X72220000Y-42405000D02*
X77290000Y-42405000D01*
X72220000Y-52175000D02*
X72220000Y-42405000D01*
%TO.C,R20*%
X98745276Y-22022500D02*
X99254724Y-22022500D01*
X98745276Y-20977500D02*
X99254724Y-20977500D01*
%TO.C,R9*%
X35745276Y-24977500D02*
X36254724Y-24977500D01*
X35745276Y-26022500D02*
X36254724Y-26022500D01*
%TO.C,C27*%
X71788748Y-27090000D02*
X73211252Y-27090000D01*
X71788748Y-28910000D02*
X73211252Y-28910000D01*
%TO.C,R33*%
X56495276Y-40272500D02*
X57004724Y-40272500D01*
X56495276Y-39227500D02*
X57004724Y-39227500D01*
%TO.C,C21*%
X93961252Y-30340000D02*
X92538748Y-30340000D01*
X93961252Y-32160000D02*
X92538748Y-32160000D01*
%TD*%
M02*
