%TF.GenerationSoftware,KiCad,Pcbnew,(5.1.7)-1*%
%TF.CreationDate,2021-08-03T20:44:09-04:00*%
%TF.ProjectId,PhoneInterface,50686f6e-6549-46e7-9465-72666163652e,rev?*%
%TF.SameCoordinates,Original*%
%TF.FileFunction,Other,User*%
%FSLAX46Y46*%
G04 Gerber Fmt 4.6, Leading zero omitted, Abs format (unit mm)*
G04 Created by KiCad (PCBNEW (5.1.7)-1) date 2021-08-03 20:44:09*
%MOMM*%
%LPD*%
G01*
G04 APERTURE LIST*
%ADD10C,0.050000*%
%ADD11C,0.100000*%
G04 APERTURE END LIST*
D10*
%TO.C,H4*%
X98327000Y-78613000D02*
G75*
G03*
X98327000Y-78613000I-2950000J0D01*
G01*
%TO.C,H3*%
X98327000Y-123317000D02*
G75*
G03*
X98327000Y-123317000I-2950000J0D01*
G01*
%TO.C,U2*%
X133482000Y-119993000D02*
X137282000Y-119993000D01*
X137282000Y-119993000D02*
X137282000Y-123593000D01*
X137282000Y-123593000D02*
X133482000Y-123593000D01*
X133482000Y-123593000D02*
X133482000Y-119993000D01*
%TO.C,U1*%
X148217000Y-123914500D02*
X148217000Y-120814500D01*
X148217000Y-120814500D02*
X139717000Y-120814500D01*
X139717000Y-120814500D02*
X139717000Y-123914500D01*
X139717000Y-123914500D02*
X148217000Y-123914500D01*
%TO.C,R10*%
X151839000Y-76117000D02*
X151839000Y-81617000D01*
X151839000Y-81617000D02*
X175059000Y-81617000D01*
X175059000Y-81617000D02*
X175059000Y-76117000D01*
X175059000Y-76117000D02*
X151839000Y-76117000D01*
%TO.C,R3*%
X151839000Y-120313000D02*
X151839000Y-125813000D01*
X151839000Y-125813000D02*
X175059000Y-125813000D01*
X175059000Y-125813000D02*
X175059000Y-120313000D01*
X175059000Y-120313000D02*
X151839000Y-120313000D01*
%TO.C,R2*%
X151000500Y-124738500D02*
X149100500Y-124738500D01*
X149100500Y-124738500D02*
X149100500Y-121038500D01*
X149100500Y-121038500D02*
X151000500Y-121038500D01*
X151000500Y-121038500D02*
X151000500Y-124738500D01*
%TO.C,R1*%
X139327500Y-116715500D02*
X139327500Y-118615500D01*
X139327500Y-118615500D02*
X135627500Y-118615500D01*
X135627500Y-118615500D02*
X135627500Y-116715500D01*
X135627500Y-116715500D02*
X139327500Y-116715500D01*
%TO.C,Q2*%
X188074000Y-84816500D02*
X188074000Y-90316500D01*
X188074000Y-84816500D02*
X180734000Y-84816500D01*
X180734000Y-90316500D02*
X188074000Y-90316500D01*
X180734000Y-90316500D02*
X180734000Y-84816500D01*
%TO.C,Q1*%
X188074000Y-111613500D02*
X188074000Y-117113500D01*
X188074000Y-111613500D02*
X180734000Y-111613500D01*
X180734000Y-117113500D02*
X188074000Y-117113500D01*
X180734000Y-117113500D02*
X180734000Y-111613500D01*
%TO.C,K5*%
X133226000Y-91821500D02*
X117726000Y-91821500D01*
X133226000Y-99821500D02*
X117726000Y-99821500D01*
X133226000Y-99821500D02*
X133226000Y-91821500D01*
X117726000Y-91821500D02*
X117726000Y-99821500D01*
%TO.C,K4*%
X134617000Y-84137000D02*
X150117000Y-84137000D01*
X134617000Y-76137000D02*
X150117000Y-76137000D01*
X134617000Y-76137000D02*
X134617000Y-84137000D01*
X150117000Y-84137000D02*
X150117000Y-76137000D01*
%TO.C,Ke*%
X169802000Y-96901500D02*
X154302000Y-96901500D01*
X169802000Y-104901500D02*
X154302000Y-104901500D01*
X169802000Y-104901500D02*
X169802000Y-96901500D01*
X154302000Y-96901500D02*
X154302000Y-104901500D01*
%TO.C,K2*%
X151514000Y-96901500D02*
X136014000Y-96901500D01*
X151514000Y-104901500D02*
X136014000Y-104901500D01*
X151514000Y-104901500D02*
X151514000Y-96901500D01*
X136014000Y-96901500D02*
X136014000Y-104901500D01*
%TO.C,K1*%
X133226000Y-101981500D02*
X117726000Y-101981500D01*
X133226000Y-109981500D02*
X117726000Y-109981500D01*
X133226000Y-109981500D02*
X133226000Y-101981500D01*
X117726000Y-101981500D02*
X117726000Y-109981500D01*
D11*
%TO.C,J2*%
X179594000Y-108462000D02*
X179594000Y-93482000D01*
X179594000Y-93482000D02*
X198104000Y-93482000D01*
X198104000Y-93482000D02*
X198104000Y-108462000D01*
X198104000Y-108462000D02*
X179594000Y-108462000D01*
D10*
%TO.C,H2*%
X193831000Y-123317000D02*
G75*
G03*
X193831000Y-123317000I-2950000J0D01*
G01*
%TO.C,H1*%
X193831000Y-78613000D02*
G75*
G03*
X193831000Y-78613000I-2950000J0D01*
G01*
D11*
%TO.C,F1*%
X101811000Y-76030000D02*
X112311000Y-76030000D01*
X112311000Y-76030000D02*
X112311000Y-86530000D01*
X112311000Y-86530000D02*
X101811000Y-86530000D01*
X101811000Y-86530000D02*
X101811000Y-76030000D01*
D10*
%TO.C,D9*%
X132876000Y-90975500D02*
X132876000Y-88475500D01*
X132876000Y-88475500D02*
X123156000Y-88475500D01*
X123156000Y-88475500D02*
X123156000Y-90975500D01*
X123156000Y-90975500D02*
X132876000Y-90975500D01*
%TO.C,D8*%
X130576000Y-86267000D02*
X133076000Y-86267000D01*
X133076000Y-86267000D02*
X133076000Y-76547000D01*
X133076000Y-76547000D02*
X130576000Y-76547000D01*
X130576000Y-76547000D02*
X130576000Y-86267000D01*
%TO.C,D6*%
X176750000Y-77490000D02*
X176750000Y-79990000D01*
X176750000Y-79990000D02*
X186470000Y-79990000D01*
X186470000Y-79990000D02*
X186470000Y-77490000D01*
X186470000Y-77490000D02*
X176750000Y-77490000D01*
%TO.C,D5*%
X167152000Y-115096000D02*
X169652000Y-115096000D01*
X169652000Y-115096000D02*
X169652000Y-105376000D01*
X169652000Y-105376000D02*
X167152000Y-105376000D01*
X167152000Y-105376000D02*
X167152000Y-115096000D01*
%TO.C,D4*%
X144990500Y-115096000D02*
X147490500Y-115096000D01*
X147490500Y-115096000D02*
X147490500Y-105376000D01*
X147490500Y-105376000D02*
X144990500Y-105376000D01*
X144990500Y-105376000D02*
X144990500Y-115096000D01*
%TO.C,D3*%
X176750000Y-121813000D02*
X176750000Y-124313000D01*
X176750000Y-124313000D02*
X186470000Y-124313000D01*
X186470000Y-124313000D02*
X186470000Y-121813000D01*
X186470000Y-121813000D02*
X176750000Y-121813000D01*
%TO.C,D1*%
X139856500Y-116415500D02*
X139856500Y-118915500D01*
X139856500Y-118915500D02*
X149576500Y-118915500D01*
X149576500Y-118915500D02*
X149576500Y-116415500D01*
X149576500Y-116415500D02*
X139856500Y-116415500D01*
%TO.C,C8*%
X123654000Y-81280000D02*
G75*
G03*
X123654000Y-81280000I-5250000J0D01*
G01*
%TO.C,C6*%
X135291000Y-116935500D02*
X135291000Y-118395500D01*
X135291000Y-118395500D02*
X131991000Y-118395500D01*
X131991000Y-118395500D02*
X131991000Y-116935500D01*
X131991000Y-116935500D02*
X135291000Y-116935500D01*
%TO.C,C5*%
X129178500Y-121777000D02*
G75*
G03*
X129178500Y-121777000I-2750000J0D01*
G01*
%TO.C,C4*%
X177518000Y-89535000D02*
G75*
G03*
X177518000Y-89535000I-2750000J0D01*
G01*
%TO.C,C3*%
X177371000Y-98298000D02*
G75*
G03*
X177371000Y-98298000I-2250000J0D01*
G01*
%TO.C,C2*%
X177395000Y-103505000D02*
G75*
G03*
X177395000Y-103505000I-2250000J0D01*
G01*
%TO.C,C1*%
X177518000Y-116205000D02*
G75*
G03*
X177518000Y-116205000I-2750000J0D01*
G01*
%TD*%
M02*
