M48
; DRILL file {KiCad (5.1.7)-1} date 08/03/21 20:44:17
; FORMAT={-:-/ absolute / inch / decimal}
; #@! TF.CreationDate,2021-08-03T20:44:17-04:00
; #@! TF.GenerationSoftware,Kicad,Pcbnew,(5.1.7)-1
; #@! TF.FileFunction,Plated,1,2,PTH
FMAT,2
INCH
T1C0.0157
T2C0.0236
T3C0.0315
T4C0.0370
T5C0.0394
T6C0.0433
T7C0.0472
T8C0.1063
%
G90
G05
T1
X4.39Y-3.724
X4.439Y-3.991
X4.444Y-3.056
X4.461Y-3.956
X4.672Y-3.2
X4.775Y-4.1525
X4.775Y-4.1975
X5.175Y-4.6325
X5.2175Y-4.8325
X5.32Y-3.9945
X5.386Y-3.974
X5.445Y-4.7925
X5.502Y-4.219
X6.353Y-4.395
X7.015Y-4.65
X7.0725Y-3.3725
X7.0725Y-3.525
X7.0725Y-4.4273
X7.0725Y-4.575
X7.1025Y-3.7275
X7.44Y-3.25
X7.44Y-3.3
X7.44Y-3.35
X7.44Y-3.4
X7.44Y-3.45
X7.44Y-3.5
X7.44Y-3.55
X7.44Y-3.6
X7.44Y-3.65
X7.44Y-4.3
X7.44Y-4.35
X7.44Y-4.4
X7.44Y-4.45
X7.44Y-4.5
X7.44Y-4.55
X7.44Y-4.6
X7.44Y-4.65
X7.44Y-4.7
X7.49Y-3.25
X7.49Y-3.3
X7.49Y-3.35
X7.49Y-3.4
X7.49Y-3.45
X7.49Y-3.5
X7.49Y-3.55
X7.49Y-3.6
X7.49Y-3.65
X7.49Y-4.3
X7.49Y-4.35
X7.49Y-4.4
X7.49Y-4.45
X7.49Y-4.5
X7.49Y-4.55
X7.49Y-4.6
X7.49Y-4.65
X7.49Y-4.7
X7.54Y-3.25
X7.54Y-3.3
X7.54Y-3.35
X7.54Y-3.4
X7.54Y-3.45
X7.54Y-3.5
X7.54Y-3.55
X7.54Y-3.6
X7.54Y-3.65
X7.54Y-4.3
X7.54Y-4.35
X7.54Y-4.4
X7.54Y-4.45
X7.54Y-4.5
X7.54Y-4.55
X7.54Y-4.6
X7.54Y-4.65
X7.54Y-4.7
X7.59Y-3.25
X7.59Y-3.3
X7.59Y-3.35
X7.59Y-3.4
X7.59Y-3.45
X7.59Y-3.5
X7.59Y-3.55
X7.59Y-3.6
X7.59Y-3.65
X7.59Y-4.3
X7.59Y-4.35
X7.59Y-4.4
X7.59Y-4.45
X7.59Y-4.5
X7.59Y-4.55
X7.59Y-4.6
X7.59Y-4.65
X7.59Y-4.7
T2
X6.865Y-3.87
X6.9241Y-3.87
X6.8659Y-4.075
X6.925Y-4.075
T3
X5.7575Y-4.19
X5.7575Y-4.49
X5.51Y-3.8725
X5.51Y-4.0725
X5.61Y-3.8725
X5.61Y-4.0725
X5.71Y-3.8725
X5.71Y-4.0725
X5.91Y-3.8725
X5.91Y-4.0725
X4.79Y-3.6725
X4.79Y-3.8725
X4.89Y-3.6725
X4.89Y-3.8725
X4.99Y-3.6725
X4.99Y-3.8725
X5.19Y-3.6725
X5.19Y-3.8725
X4.9775Y-4.755
X4.9775Y-4.8337
X5.5475Y-4.6325
X5.8475Y-4.6325
X7.0Y-3.1
X7.3Y-3.1
X6.63Y-4.19
X6.63Y-4.49
X6.8413Y-4.575
X6.92Y-4.575
X4.89Y-3.5325
X5.19Y-3.5325
X5.19Y-3.055
X5.19Y-3.355
X6.23Y-3.8725
X6.23Y-4.0725
X6.33Y-3.8725
X6.33Y-4.0725
X6.43Y-3.8725
X6.43Y-4.0725
X6.63Y-3.8725
X6.63Y-4.0725
X6.8413Y-3.525
X6.92Y-3.525
X7.0Y-4.845
X7.3Y-4.845
X4.79Y-4.0725
X4.79Y-4.2725
X4.89Y-4.0725
X4.89Y-4.2725
X4.99Y-4.0725
X4.99Y-4.2725
X5.19Y-4.0725
X5.19Y-4.2725
X5.355Y-3.055
X5.355Y-3.255
X5.555Y-3.055
X5.555Y-3.255
X5.655Y-3.055
X5.655Y-3.255
X5.755Y-3.055
X5.755Y-3.255
T4
X7.26Y-3.955
X7.3399Y-3.9952
T5
X3.81Y-3.475
X3.81Y-3.575
X3.81Y-3.675
X3.81Y-3.775
X3.81Y-3.875
X3.81Y-3.975
X3.81Y-4.075
X3.81Y-4.175
X3.81Y-4.275
X3.81Y-4.375
X3.81Y-4.475
X3.91Y-3.475
X3.91Y-3.575
X3.91Y-3.675
X3.91Y-3.775
X3.91Y-3.875
X3.91Y-3.975
X3.91Y-4.075
X3.91Y-4.175
X3.91Y-4.275
X3.91Y-4.375
X3.91Y-4.475
X4.5631Y-3.2
X4.76Y-3.2
T6
X4.115Y-3.2
X4.315Y-3.2
T7
X6.035Y-4.845
X6.835Y-4.845
X6.035Y-3.105
X6.835Y-3.105
T8
X7.515Y-3.095
X7.515Y-4.855
X3.755Y-4.855
X3.755Y-3.095
T0
M30
