%TF.GenerationSoftware,KiCad,Pcbnew,(5.1.7)-1*%
%TF.CreationDate,2021-08-03T20:44:09-04:00*%
%TF.ProjectId,PhoneInterface,50686f6e-6549-46e7-9465-72666163652e,rev?*%
%TF.SameCoordinates,Original*%
%TF.FileFunction,Soldermask,Bot*%
%TF.FilePolarity,Negative*%
%FSLAX46Y46*%
G04 Gerber Fmt 4.6, Leading zero omitted, Abs format (unit mm)*
G04 Created by KiCad (PCBNEW (5.1.7)-1) date 2021-08-03 20:44:09*
%MOMM*%
%LPD*%
G01*
G04 APERTURE LIST*
%ADD10C,5.400000*%
%ADD11O,2.400000X2.400000*%
%ADD12C,2.400000*%
%ADD13R,0.450000X1.500000*%
%ADD14R,1.500000X0.450000*%
%ADD15C,1.500000*%
%ADD16C,1.462000*%
%ADD17O,1.700000X1.700000*%
%ADD18R,1.700000X1.700000*%
%ADD19C,1.650000*%
%ADD20O,1.600000X1.600000*%
%ADD21R,1.600000X1.600000*%
%ADD22R,0.900000X0.800000*%
%ADD23C,2.000000*%
%ADD24R,2.000000X2.000000*%
%ADD25C,1.600000*%
%ADD26C,1.200000*%
%ADD27R,1.200000X1.200000*%
G04 APERTURE END LIST*
D10*
%TO.C,H4*%
X95377000Y-78613000D03*
%TD*%
%TO.C,H3*%
X95377000Y-123317000D03*
%TD*%
%TO.C,R19*%
G36*
G01*
X96421400Y-84092201D02*
X96421400Y-83192199D01*
G75*
G02*
X96671399Y-82942200I249999J0D01*
G01*
X97371401Y-82942200D01*
G75*
G02*
X97621400Y-83192199I0J-249999D01*
G01*
X97621400Y-84092201D01*
G75*
G02*
X97371401Y-84342200I-249999J0D01*
G01*
X96671399Y-84342200D01*
G75*
G02*
X96421400Y-84092201I0J249999D01*
G01*
G37*
G36*
G01*
X94421400Y-84092201D02*
X94421400Y-83192199D01*
G75*
G02*
X94671399Y-82942200I249999J0D01*
G01*
X95371401Y-82942200D01*
G75*
G02*
X95621400Y-83192199I0J-249999D01*
G01*
X95621400Y-84092201D01*
G75*
G02*
X95371401Y-84342200I-249999J0D01*
G01*
X94671399Y-84342200D01*
G75*
G02*
X94421400Y-84092201I0J249999D01*
G01*
G37*
%TD*%
%TO.C,R18*%
G36*
G01*
X155644001Y-109121500D02*
X154743999Y-109121500D01*
G75*
G02*
X154494000Y-108871501I0J249999D01*
G01*
X154494000Y-108171499D01*
G75*
G02*
X154743999Y-107921500I249999J0D01*
G01*
X155644001Y-107921500D01*
G75*
G02*
X155894000Y-108171499I0J-249999D01*
G01*
X155894000Y-108871501D01*
G75*
G02*
X155644001Y-109121500I-249999J0D01*
G01*
G37*
G36*
G01*
X155644001Y-111121500D02*
X154743999Y-111121500D01*
G75*
G02*
X154494000Y-110871501I0J249999D01*
G01*
X154494000Y-110171499D01*
G75*
G02*
X154743999Y-109921500I249999J0D01*
G01*
X155644001Y-109921500D01*
G75*
G02*
X155894000Y-110171499I0J-249999D01*
G01*
X155894000Y-110871501D01*
G75*
G02*
X155644001Y-111121500I-249999J0D01*
G01*
G37*
%TD*%
%TO.C,R17*%
G36*
G01*
X115500999Y-91792500D02*
X116401001Y-91792500D01*
G75*
G02*
X116651000Y-92042499I0J-249999D01*
G01*
X116651000Y-92742501D01*
G75*
G02*
X116401001Y-92992500I-249999J0D01*
G01*
X115500999Y-92992500D01*
G75*
G02*
X115251000Y-92742501I0J249999D01*
G01*
X115251000Y-92042499D01*
G75*
G02*
X115500999Y-91792500I249999J0D01*
G01*
G37*
G36*
G01*
X115500999Y-89792500D02*
X116401001Y-89792500D01*
G75*
G02*
X116651000Y-90042499I0J-249999D01*
G01*
X116651000Y-90742501D01*
G75*
G02*
X116401001Y-90992500I-249999J0D01*
G01*
X115500999Y-90992500D01*
G75*
G02*
X115251000Y-90742501I0J249999D01*
G01*
X115251000Y-90042499D01*
G75*
G02*
X115500999Y-89792500I249999J0D01*
G01*
G37*
%TD*%
%TO.C,R16*%
G36*
G01*
X153421501Y-109121500D02*
X152521499Y-109121500D01*
G75*
G02*
X152271500Y-108871501I0J249999D01*
G01*
X152271500Y-108171499D01*
G75*
G02*
X152521499Y-107921500I249999J0D01*
G01*
X153421501Y-107921500D01*
G75*
G02*
X153671500Y-108171499I0J-249999D01*
G01*
X153671500Y-108871501D01*
G75*
G02*
X153421501Y-109121500I-249999J0D01*
G01*
G37*
G36*
G01*
X153421501Y-111121500D02*
X152521499Y-111121500D01*
G75*
G02*
X152271500Y-110871501I0J249999D01*
G01*
X152271500Y-110171499D01*
G75*
G02*
X152521499Y-109921500I249999J0D01*
G01*
X153421501Y-109921500D01*
G75*
G02*
X153671500Y-110171499I0J-249999D01*
G01*
X153671500Y-110871501D01*
G75*
G02*
X153421501Y-111121500I-249999J0D01*
G01*
G37*
%TD*%
%TO.C,R15*%
G36*
G01*
X113214999Y-91798600D02*
X114115001Y-91798600D01*
G75*
G02*
X114365000Y-92048599I0J-249999D01*
G01*
X114365000Y-92748601D01*
G75*
G02*
X114115001Y-92998600I-249999J0D01*
G01*
X113214999Y-92998600D01*
G75*
G02*
X112965000Y-92748601I0J249999D01*
G01*
X112965000Y-92048599D01*
G75*
G02*
X113214999Y-91798600I249999J0D01*
G01*
G37*
G36*
G01*
X113214999Y-89798600D02*
X114115001Y-89798600D01*
G75*
G02*
X114365000Y-90048599I0J-249999D01*
G01*
X114365000Y-90748601D01*
G75*
G02*
X114115001Y-90998600I-249999J0D01*
G01*
X113214999Y-90998600D01*
G75*
G02*
X112965000Y-90748601I0J249999D01*
G01*
X112965000Y-90048599D01*
G75*
G02*
X113214999Y-89798600I249999J0D01*
G01*
G37*
%TD*%
%TO.C,R14*%
G36*
G01*
X125914999Y-80918000D02*
X126815001Y-80918000D01*
G75*
G02*
X127065000Y-81167999I0J-249999D01*
G01*
X127065000Y-81868001D01*
G75*
G02*
X126815001Y-82118000I-249999J0D01*
G01*
X125914999Y-82118000D01*
G75*
G02*
X125665000Y-81868001I0J249999D01*
G01*
X125665000Y-81167999D01*
G75*
G02*
X125914999Y-80918000I249999J0D01*
G01*
G37*
G36*
G01*
X125914999Y-78918000D02*
X126815001Y-78918000D01*
G75*
G02*
X127065000Y-79167999I0J-249999D01*
G01*
X127065000Y-79868001D01*
G75*
G02*
X126815001Y-80118000I-249999J0D01*
G01*
X125914999Y-80118000D01*
G75*
G02*
X125665000Y-79868001I0J249999D01*
G01*
X125665000Y-79167999D01*
G75*
G02*
X125914999Y-78918000I249999J0D01*
G01*
G37*
%TD*%
%TO.C,R13*%
G36*
G01*
X165135000Y-114305501D02*
X165135000Y-113405499D01*
G75*
G02*
X165384999Y-113155500I249999J0D01*
G01*
X166085001Y-113155500D01*
G75*
G02*
X166335000Y-113405499I0J-249999D01*
G01*
X166335000Y-114305501D01*
G75*
G02*
X166085001Y-114555500I-249999J0D01*
G01*
X165384999Y-114555500D01*
G75*
G02*
X165135000Y-114305501I0J249999D01*
G01*
G37*
G36*
G01*
X163135000Y-114305501D02*
X163135000Y-113405499D01*
G75*
G02*
X163384999Y-113155500I249999J0D01*
G01*
X164085001Y-113155500D01*
G75*
G02*
X164335000Y-113405499I0J-249999D01*
G01*
X164335000Y-114305501D01*
G75*
G02*
X164085001Y-114555500I-249999J0D01*
G01*
X163384999Y-114555500D01*
G75*
G02*
X163135000Y-114305501I0J249999D01*
G01*
G37*
%TD*%
%TO.C,R12*%
G36*
G01*
X123425799Y-78908600D02*
X124325801Y-78908600D01*
G75*
G02*
X124575800Y-79158599I0J-249999D01*
G01*
X124575800Y-79858601D01*
G75*
G02*
X124325801Y-80108600I-249999J0D01*
G01*
X123425799Y-80108600D01*
G75*
G02*
X123175800Y-79858601I0J249999D01*
G01*
X123175800Y-79158599D01*
G75*
G02*
X123425799Y-78908600I249999J0D01*
G01*
G37*
G36*
G01*
X123425799Y-80908600D02*
X124325801Y-80908600D01*
G75*
G02*
X124575800Y-81158599I0J-249999D01*
G01*
X124575800Y-81858601D01*
G75*
G02*
X124325801Y-82108600I-249999J0D01*
G01*
X123425799Y-82108600D01*
G75*
G02*
X123175800Y-81858601I0J249999D01*
G01*
X123175800Y-81158599D01*
G75*
G02*
X123425799Y-80908600I249999J0D01*
G01*
G37*
%TD*%
%TO.C,R11*%
G36*
G01*
X165135000Y-112083001D02*
X165135000Y-111182999D01*
G75*
G02*
X165384999Y-110933000I249999J0D01*
G01*
X166085001Y-110933000D01*
G75*
G02*
X166335000Y-111182999I0J-249999D01*
G01*
X166335000Y-112083001D01*
G75*
G02*
X166085001Y-112333000I-249999J0D01*
G01*
X165384999Y-112333000D01*
G75*
G02*
X165135000Y-112083001I0J249999D01*
G01*
G37*
G36*
G01*
X163135000Y-112083001D02*
X163135000Y-111182999D01*
G75*
G02*
X163384999Y-110933000I249999J0D01*
G01*
X164085001Y-110933000D01*
G75*
G02*
X164335000Y-111182999I0J-249999D01*
G01*
X164335000Y-112083001D01*
G75*
G02*
X164085001Y-112333000I-249999J0D01*
G01*
X163384999Y-112333000D01*
G75*
G02*
X163135000Y-112083001I0J249999D01*
G01*
G37*
%TD*%
D11*
%TO.C,R10*%
X173609000Y-78867000D03*
D12*
X153289000Y-78867000D03*
%TD*%
%TO.C,R9*%
G36*
G01*
X184647000Y-84522999D02*
X184647000Y-86673001D01*
G75*
G02*
X184397001Y-86923000I-249999J0D01*
G01*
X183596999Y-86923000D01*
G75*
G02*
X183347000Y-86673001I0J249999D01*
G01*
X183347000Y-84522999D01*
G75*
G02*
X183596999Y-84273000I249999J0D01*
G01*
X184397001Y-84273000D01*
G75*
G02*
X184647000Y-84522999I0J-249999D01*
G01*
G37*
G36*
G01*
X187747000Y-84522999D02*
X187747000Y-86673001D01*
G75*
G02*
X187497001Y-86923000I-249999J0D01*
G01*
X186696999Y-86923000D01*
G75*
G02*
X186447000Y-86673001I0J249999D01*
G01*
X186447000Y-84522999D01*
G75*
G02*
X186696999Y-84273000I249999J0D01*
G01*
X187497001Y-84273000D01*
G75*
G02*
X187747000Y-84522999I0J-249999D01*
G01*
G37*
%TD*%
%TO.C,R8*%
G36*
G01*
X184647000Y-88459999D02*
X184647000Y-90610001D01*
G75*
G02*
X184397001Y-90860000I-249999J0D01*
G01*
X183596999Y-90860000D01*
G75*
G02*
X183347000Y-90610001I0J249999D01*
G01*
X183347000Y-88459999D01*
G75*
G02*
X183596999Y-88210000I249999J0D01*
G01*
X184397001Y-88210000D01*
G75*
G02*
X184647000Y-88459999I0J-249999D01*
G01*
G37*
G36*
G01*
X187747000Y-88459999D02*
X187747000Y-90610001D01*
G75*
G02*
X187497001Y-90860000I-249999J0D01*
G01*
X186696999Y-90860000D01*
G75*
G02*
X186447000Y-90610001I0J249999D01*
G01*
X186447000Y-88459999D01*
G75*
G02*
X186696999Y-88210000I249999J0D01*
G01*
X187497001Y-88210000D01*
G75*
G02*
X187747000Y-88459999I0J-249999D01*
G01*
G37*
%TD*%
%TO.C,R7*%
G36*
G01*
X162871999Y-94904000D02*
X163772001Y-94904000D01*
G75*
G02*
X164022000Y-95153999I0J-249999D01*
G01*
X164022000Y-95854001D01*
G75*
G02*
X163772001Y-96104000I-249999J0D01*
G01*
X162871999Y-96104000D01*
G75*
G02*
X162622000Y-95854001I0J249999D01*
G01*
X162622000Y-95153999D01*
G75*
G02*
X162871999Y-94904000I249999J0D01*
G01*
G37*
G36*
G01*
X162871999Y-92904000D02*
X163772001Y-92904000D01*
G75*
G02*
X164022000Y-93153999I0J-249999D01*
G01*
X164022000Y-93854001D01*
G75*
G02*
X163772001Y-94104000I-249999J0D01*
G01*
X162871999Y-94104000D01*
G75*
G02*
X162622000Y-93854001I0J249999D01*
G01*
X162622000Y-93153999D01*
G75*
G02*
X162871999Y-92904000I249999J0D01*
G01*
G37*
%TD*%
%TO.C,R6*%
G36*
G01*
X163772001Y-106788000D02*
X162871999Y-106788000D01*
G75*
G02*
X162622000Y-106538001I0J249999D01*
G01*
X162622000Y-105837999D01*
G75*
G02*
X162871999Y-105588000I249999J0D01*
G01*
X163772001Y-105588000D01*
G75*
G02*
X164022000Y-105837999I0J-249999D01*
G01*
X164022000Y-106538001D01*
G75*
G02*
X163772001Y-106788000I-249999J0D01*
G01*
G37*
G36*
G01*
X163772001Y-108788000D02*
X162871999Y-108788000D01*
G75*
G02*
X162622000Y-108538001I0J249999D01*
G01*
X162622000Y-107837999D01*
G75*
G02*
X162871999Y-107588000I249999J0D01*
G01*
X163772001Y-107588000D01*
G75*
G02*
X164022000Y-107837999I0J-249999D01*
G01*
X164022000Y-108538001D01*
G75*
G02*
X163772001Y-108788000I-249999J0D01*
G01*
G37*
%TD*%
%TO.C,R5*%
G36*
G01*
X184647000Y-115256999D02*
X184647000Y-117407001D01*
G75*
G02*
X184397001Y-117657000I-249999J0D01*
G01*
X183596999Y-117657000D01*
G75*
G02*
X183347000Y-117407001I0J249999D01*
G01*
X183347000Y-115256999D01*
G75*
G02*
X183596999Y-115007000I249999J0D01*
G01*
X184397001Y-115007000D01*
G75*
G02*
X184647000Y-115256999I0J-249999D01*
G01*
G37*
G36*
G01*
X187747000Y-115256999D02*
X187747000Y-117407001D01*
G75*
G02*
X187497001Y-117657000I-249999J0D01*
G01*
X186696999Y-117657000D01*
G75*
G02*
X186447000Y-117407001I0J249999D01*
G01*
X186447000Y-115256999D01*
G75*
G02*
X186696999Y-115007000I249999J0D01*
G01*
X187497001Y-115007000D01*
G75*
G02*
X187747000Y-115256999I0J-249999D01*
G01*
G37*
%TD*%
%TO.C,R4*%
G36*
G01*
X184647000Y-111573999D02*
X184647000Y-113724001D01*
G75*
G02*
X184397001Y-113974000I-249999J0D01*
G01*
X183596999Y-113974000D01*
G75*
G02*
X183347000Y-113724001I0J249999D01*
G01*
X183347000Y-111573999D01*
G75*
G02*
X183596999Y-111324000I249999J0D01*
G01*
X184397001Y-111324000D01*
G75*
G02*
X184647000Y-111573999I0J-249999D01*
G01*
G37*
G36*
G01*
X187747000Y-111573999D02*
X187747000Y-113724001D01*
G75*
G02*
X187497001Y-113974000I-249999J0D01*
G01*
X186696999Y-113974000D01*
G75*
G02*
X186447000Y-113724001I0J249999D01*
G01*
X186447000Y-111573999D01*
G75*
G02*
X186696999Y-111324000I249999J0D01*
G01*
X187497001Y-111324000D01*
G75*
G02*
X187747000Y-111573999I0J-249999D01*
G01*
G37*
%TD*%
D11*
%TO.C,R3*%
X173609000Y-123063000D03*
D12*
X153289000Y-123063000D03*
%TD*%
D13*
%TO.C,Q6*%
X150114000Y-105921500D03*
X149464000Y-108581500D03*
X150764000Y-108581500D03*
%TD*%
D14*
%TO.C,Q5*%
X121091000Y-89725500D03*
X118431000Y-89075500D03*
X118431000Y-90375500D03*
%TD*%
%TO.C,Q4*%
X131826000Y-80835500D03*
X129166000Y-80185500D03*
X129166000Y-81485500D03*
%TD*%
%TO.C,Q3*%
X168398500Y-108839000D03*
X165738500Y-108189000D03*
X165738500Y-109489000D03*
%TD*%
D15*
%TO.C,K5*%
X131826000Y-98361500D03*
X126746000Y-98361500D03*
X124206000Y-98361500D03*
X121666000Y-98361500D03*
X121666000Y-93281500D03*
X124206000Y-93281500D03*
X126746000Y-93281500D03*
G36*
G01*
X131326500Y-92531500D02*
X132325500Y-92531500D01*
G75*
G02*
X132576000Y-92782000I0J-250500D01*
G01*
X132576000Y-93781000D01*
G75*
G02*
X132325500Y-94031500I-250500J0D01*
G01*
X131326500Y-94031500D01*
G75*
G02*
X131076000Y-93781000I0J250500D01*
G01*
X131076000Y-92782000D01*
G75*
G02*
X131326500Y-92531500I250500J0D01*
G01*
G37*
%TD*%
%TO.C,K4*%
X136017000Y-77597000D03*
X141097000Y-77597000D03*
X143637000Y-77597000D03*
X146177000Y-77597000D03*
X146177000Y-82677000D03*
X143637000Y-82677000D03*
X141097000Y-82677000D03*
G36*
G01*
X136516500Y-83427000D02*
X135517500Y-83427000D01*
G75*
G02*
X135267000Y-83176500I0J250500D01*
G01*
X135267000Y-82177500D01*
G75*
G02*
X135517500Y-81927000I250500J0D01*
G01*
X136516500Y-81927000D01*
G75*
G02*
X136767000Y-82177500I0J-250500D01*
G01*
X136767000Y-83176500D01*
G75*
G02*
X136516500Y-83427000I-250500J0D01*
G01*
G37*
%TD*%
%TO.C,Ke*%
X168402000Y-103441500D03*
X163322000Y-103441500D03*
X160782000Y-103441500D03*
X158242000Y-103441500D03*
X158242000Y-98361500D03*
X160782000Y-98361500D03*
X163322000Y-98361500D03*
G36*
G01*
X167902500Y-97611500D02*
X168901500Y-97611500D01*
G75*
G02*
X169152000Y-97862000I0J-250500D01*
G01*
X169152000Y-98861000D01*
G75*
G02*
X168901500Y-99111500I-250500J0D01*
G01*
X167902500Y-99111500D01*
G75*
G02*
X167652000Y-98861000I0J250500D01*
G01*
X167652000Y-97862000D01*
G75*
G02*
X167902500Y-97611500I250500J0D01*
G01*
G37*
%TD*%
%TO.C,K2*%
X150114000Y-103441500D03*
X145034000Y-103441500D03*
X142494000Y-103441500D03*
X139954000Y-103441500D03*
X139954000Y-98361500D03*
X142494000Y-98361500D03*
X145034000Y-98361500D03*
G36*
G01*
X149614500Y-97611500D02*
X150613500Y-97611500D01*
G75*
G02*
X150864000Y-97862000I0J-250500D01*
G01*
X150864000Y-98861000D01*
G75*
G02*
X150613500Y-99111500I-250500J0D01*
G01*
X149614500Y-99111500D01*
G75*
G02*
X149364000Y-98861000I0J250500D01*
G01*
X149364000Y-97862000D01*
G75*
G02*
X149614500Y-97611500I250500J0D01*
G01*
G37*
%TD*%
%TO.C,K1*%
X131826000Y-108521500D03*
X126746000Y-108521500D03*
X124206000Y-108521500D03*
X121666000Y-108521500D03*
X121666000Y-103441500D03*
X124206000Y-103441500D03*
X126746000Y-103441500D03*
G36*
G01*
X131326500Y-102691500D02*
X132325500Y-102691500D01*
G75*
G02*
X132576000Y-102942000I0J-250500D01*
G01*
X132576000Y-103941000D01*
G75*
G02*
X132325500Y-104191500I-250500J0D01*
G01*
X131326500Y-104191500D01*
G75*
G02*
X131076000Y-103941000I0J250500D01*
G01*
X131076000Y-102942000D01*
G75*
G02*
X131326500Y-102691500I250500J0D01*
G01*
G37*
%TD*%
D16*
%TO.C,J2*%
X186434000Y-101477000D03*
X184404000Y-100457000D03*
%TD*%
D17*
%TO.C,J1*%
X99314000Y-88265000D03*
X96774000Y-88265000D03*
X99314000Y-90805000D03*
X96774000Y-90805000D03*
X99314000Y-93345000D03*
X96774000Y-93345000D03*
X99314000Y-95885000D03*
X96774000Y-95885000D03*
X99314000Y-98425000D03*
X96774000Y-98425000D03*
X99314000Y-100965000D03*
X96774000Y-100965000D03*
X99314000Y-103505000D03*
X96774000Y-103505000D03*
X99314000Y-106045000D03*
X96774000Y-106045000D03*
X99314000Y-108585000D03*
X96774000Y-108585000D03*
X99314000Y-111125000D03*
X96774000Y-111125000D03*
X99314000Y-113665000D03*
D18*
X96774000Y-113665000D03*
%TD*%
D10*
%TO.C,H2*%
X190881000Y-123317000D03*
%TD*%
%TO.C,H1*%
X190881000Y-78613000D03*
%TD*%
D19*
%TO.C,F1*%
X109601000Y-81280000D03*
X104521000Y-81280000D03*
%TD*%
D20*
%TO.C,D9*%
X124206000Y-89725500D03*
D21*
X131826000Y-89725500D03*
%TD*%
D20*
%TO.C,D8*%
X131826000Y-77597000D03*
D21*
X131826000Y-85217000D03*
%TD*%
D22*
%TO.C,D7*%
X184023000Y-93726000D03*
X182023000Y-92776000D03*
X182023000Y-94676000D03*
%TD*%
D20*
%TO.C,D6*%
X185420000Y-78740000D03*
D21*
X177800000Y-78740000D03*
%TD*%
D20*
%TO.C,D5*%
X168402000Y-106426000D03*
D21*
X168402000Y-114046000D03*
%TD*%
D20*
%TO.C,D4*%
X146240500Y-106426000D03*
D21*
X146240500Y-114046000D03*
%TD*%
D20*
%TO.C,D3*%
X185420000Y-123063000D03*
D21*
X177800000Y-123063000D03*
%TD*%
D22*
%TO.C,D2*%
X182134000Y-108585000D03*
X184134000Y-109535000D03*
X184134000Y-107635000D03*
%TD*%
D20*
%TO.C,D1*%
X148526500Y-117665500D03*
D21*
X140906500Y-117665500D03*
%TD*%
D23*
%TO.C,C8*%
X115904000Y-81280000D03*
D24*
X120904000Y-81280000D03*
%TD*%
D25*
%TO.C,C5*%
X126428500Y-122777000D03*
D21*
X126428500Y-120777000D03*
%TD*%
D25*
%TO.C,C4*%
X173768000Y-89535000D03*
D21*
X175768000Y-89535000D03*
%TD*%
D26*
%TO.C,C3*%
X175871000Y-98298000D03*
D27*
X174371000Y-98298000D03*
%TD*%
D26*
%TO.C,C2*%
X174395000Y-103505000D03*
D27*
X175895000Y-103505000D03*
%TD*%
D25*
%TO.C,C1*%
X173768000Y-116205000D03*
D21*
X175768000Y-116205000D03*
%TD*%
M02*
