%TF.GenerationSoftware,KiCad,Pcbnew,(5.1.7)-1*%
%TF.CreationDate,2021-08-03T20:44:08-04:00*%
%TF.ProjectId,PhoneInterface,50686f6e-6549-46e7-9465-72666163652e,rev?*%
%TF.SameCoordinates,Original*%
%TF.FileFunction,Paste,Top*%
%TF.FilePolarity,Positive*%
%FSLAX46Y46*%
G04 Gerber Fmt 4.6, Leading zero omitted, Abs format (unit mm)*
G04 Created by KiCad (PCBNEW (5.1.7)-1) date 2021-08-03 20:44:08*
%MOMM*%
%LPD*%
G01*
G04 APERTURE LIST*
%ADD10R,1.060000X0.650000*%
%ADD11R,0.600000X0.900000*%
%ADD12R,0.900000X0.600000*%
%ADD13R,1.050000X0.600000*%
G04 APERTURE END LIST*
D10*
%TO.C,U2*%
X136482000Y-120843000D03*
X136482000Y-122743000D03*
X134282000Y-122743000D03*
X134282000Y-121793000D03*
X134282000Y-120843000D03*
%TD*%
%TO.C,U1*%
G36*
G01*
X141592000Y-122849500D02*
X141592000Y-123149500D01*
G75*
G02*
X141442000Y-123299500I-150000J0D01*
G01*
X140117000Y-123299500D01*
G75*
G02*
X139967000Y-123149500I0J150000D01*
G01*
X139967000Y-122849500D01*
G75*
G02*
X140117000Y-122699500I150000J0D01*
G01*
X141442000Y-122699500D01*
G75*
G02*
X141592000Y-122849500I0J-150000D01*
G01*
G37*
G36*
G01*
X141592000Y-121579500D02*
X141592000Y-121879500D01*
G75*
G02*
X141442000Y-122029500I-150000J0D01*
G01*
X140117000Y-122029500D01*
G75*
G02*
X139967000Y-121879500I0J150000D01*
G01*
X139967000Y-121579500D01*
G75*
G02*
X140117000Y-121429500I150000J0D01*
G01*
X141442000Y-121429500D01*
G75*
G02*
X141592000Y-121579500I0J-150000D01*
G01*
G37*
G36*
G01*
X147967000Y-121579500D02*
X147967000Y-121879500D01*
G75*
G02*
X147817000Y-122029500I-150000J0D01*
G01*
X146492000Y-122029500D01*
G75*
G02*
X146342000Y-121879500I0J150000D01*
G01*
X146342000Y-121579500D01*
G75*
G02*
X146492000Y-121429500I150000J0D01*
G01*
X147817000Y-121429500D01*
G75*
G02*
X147967000Y-121579500I0J-150000D01*
G01*
G37*
G36*
G01*
X147967000Y-122849500D02*
X147967000Y-123149500D01*
G75*
G02*
X147817000Y-123299500I-150000J0D01*
G01*
X146492000Y-123299500D01*
G75*
G02*
X146342000Y-123149500I0J150000D01*
G01*
X146342000Y-122849500D01*
G75*
G02*
X146492000Y-122699500I150000J0D01*
G01*
X147817000Y-122699500D01*
G75*
G02*
X147967000Y-122849500I0J-150000D01*
G01*
G37*
%TD*%
%TO.C,R2*%
G36*
G01*
X150500501Y-122488500D02*
X149600499Y-122488500D01*
G75*
G02*
X149350500Y-122238501I0J249999D01*
G01*
X149350500Y-121538499D01*
G75*
G02*
X149600499Y-121288500I249999J0D01*
G01*
X150500501Y-121288500D01*
G75*
G02*
X150750500Y-121538499I0J-249999D01*
G01*
X150750500Y-122238501D01*
G75*
G02*
X150500501Y-122488500I-249999J0D01*
G01*
G37*
G36*
G01*
X150500501Y-124488500D02*
X149600499Y-124488500D01*
G75*
G02*
X149350500Y-124238501I0J249999D01*
G01*
X149350500Y-123538499D01*
G75*
G02*
X149600499Y-123288500I249999J0D01*
G01*
X150500501Y-123288500D01*
G75*
G02*
X150750500Y-123538499I0J-249999D01*
G01*
X150750500Y-124238501D01*
G75*
G02*
X150500501Y-124488500I-249999J0D01*
G01*
G37*
%TD*%
%TO.C,R1*%
G36*
G01*
X137077500Y-117215499D02*
X137077500Y-118115501D01*
G75*
G02*
X136827501Y-118365500I-249999J0D01*
G01*
X136127499Y-118365500D01*
G75*
G02*
X135877500Y-118115501I0J249999D01*
G01*
X135877500Y-117215499D01*
G75*
G02*
X136127499Y-116965500I249999J0D01*
G01*
X136827501Y-116965500D01*
G75*
G02*
X137077500Y-117215499I0J-249999D01*
G01*
G37*
G36*
G01*
X139077500Y-117215499D02*
X139077500Y-118115501D01*
G75*
G02*
X138827501Y-118365500I-249999J0D01*
G01*
X138127499Y-118365500D01*
G75*
G02*
X137877500Y-118115501I0J249999D01*
G01*
X137877500Y-117215499D01*
G75*
G02*
X138127499Y-116965500I249999J0D01*
G01*
X138827501Y-116965500D01*
G75*
G02*
X139077500Y-117215499I0J-249999D01*
G01*
G37*
%TD*%
D11*
%TO.C,Q2*%
X184589000Y-87566500D03*
D12*
X187289000Y-88166500D03*
D13*
X181569000Y-89476500D03*
X181569000Y-88206500D03*
X181569000Y-85656500D03*
X181569000Y-86926500D03*
D12*
X187289000Y-86966500D03*
X187289000Y-89446500D03*
X187289000Y-85686500D03*
D11*
X183739000Y-87566500D03*
X185439000Y-87566500D03*
X185439000Y-88716500D03*
X183739000Y-88716500D03*
X184589000Y-88716500D03*
X185439000Y-86416500D03*
X183739000Y-86416500D03*
X184589000Y-86416500D03*
%TD*%
%TO.C,Q1*%
X184589000Y-114363500D03*
D12*
X187289000Y-114963500D03*
D13*
X181569000Y-116273500D03*
X181569000Y-115003500D03*
X181569000Y-112453500D03*
X181569000Y-113723500D03*
D12*
X187289000Y-113763500D03*
X187289000Y-116243500D03*
X187289000Y-112483500D03*
D11*
X183739000Y-114363500D03*
X185439000Y-114363500D03*
X185439000Y-115513500D03*
X183739000Y-115513500D03*
X184589000Y-115513500D03*
X185439000Y-113213500D03*
X183739000Y-113213500D03*
X184589000Y-113213500D03*
%TD*%
%TO.C,C6*%
G36*
G01*
X133316000Y-117428000D02*
X133316000Y-117903000D01*
G75*
G02*
X133078500Y-118140500I-237500J0D01*
G01*
X132478500Y-118140500D01*
G75*
G02*
X132241000Y-117903000I0J237500D01*
G01*
X132241000Y-117428000D01*
G75*
G02*
X132478500Y-117190500I237500J0D01*
G01*
X133078500Y-117190500D01*
G75*
G02*
X133316000Y-117428000I0J-237500D01*
G01*
G37*
G36*
G01*
X135041000Y-117428000D02*
X135041000Y-117903000D01*
G75*
G02*
X134803500Y-118140500I-237500J0D01*
G01*
X134203500Y-118140500D01*
G75*
G02*
X133966000Y-117903000I0J237500D01*
G01*
X133966000Y-117428000D01*
G75*
G02*
X134203500Y-117190500I237500J0D01*
G01*
X134803500Y-117190500D01*
G75*
G02*
X135041000Y-117428000I0J-237500D01*
G01*
G37*
%TD*%
M02*
