%TF.GenerationSoftware,KiCad,Pcbnew,(5.1.7)-1*%
%TF.CreationDate,2021-08-03T20:44:09-04:00*%
%TF.ProjectId,PhoneInterface,50686f6e-6549-46e7-9465-72666163652e,rev?*%
%TF.SameCoordinates,Original*%
%TF.FileFunction,Soldermask,Top*%
%TF.FilePolarity,Negative*%
%FSLAX46Y46*%
G04 Gerber Fmt 4.6, Leading zero omitted, Abs format (unit mm)*
G04 Created by KiCad (PCBNEW (5.1.7)-1) date 2021-08-03 20:44:09*
%MOMM*%
%LPD*%
G01*
G04 APERTURE LIST*
%ADD10C,5.400000*%
%ADD11R,1.060000X0.650000*%
%ADD12O,2.400000X2.400000*%
%ADD13C,2.400000*%
%ADD14C,0.100000*%
%ADD15C,1.500000*%
%ADD16C,1.462000*%
%ADD17O,1.700000X1.700000*%
%ADD18R,1.700000X1.700000*%
%ADD19C,1.650000*%
%ADD20O,1.600000X1.600000*%
%ADD21R,1.600000X1.600000*%
%ADD22C,2.000000*%
%ADD23R,2.000000X2.000000*%
%ADD24C,1.600000*%
%ADD25C,1.200000*%
%ADD26R,1.200000X1.200000*%
G04 APERTURE END LIST*
D10*
%TO.C,H4*%
X95377000Y-78613000D03*
%TD*%
%TO.C,H3*%
X95377000Y-123317000D03*
%TD*%
D11*
%TO.C,U2*%
X136482000Y-120843000D03*
X136482000Y-122743000D03*
X134282000Y-122743000D03*
X134282000Y-121793000D03*
X134282000Y-120843000D03*
%TD*%
%TO.C,U1*%
G36*
G01*
X141592000Y-122849500D02*
X141592000Y-123149500D01*
G75*
G02*
X141442000Y-123299500I-150000J0D01*
G01*
X140117000Y-123299500D01*
G75*
G02*
X139967000Y-123149500I0J150000D01*
G01*
X139967000Y-122849500D01*
G75*
G02*
X140117000Y-122699500I150000J0D01*
G01*
X141442000Y-122699500D01*
G75*
G02*
X141592000Y-122849500I0J-150000D01*
G01*
G37*
G36*
G01*
X141592000Y-121579500D02*
X141592000Y-121879500D01*
G75*
G02*
X141442000Y-122029500I-150000J0D01*
G01*
X140117000Y-122029500D01*
G75*
G02*
X139967000Y-121879500I0J150000D01*
G01*
X139967000Y-121579500D01*
G75*
G02*
X140117000Y-121429500I150000J0D01*
G01*
X141442000Y-121429500D01*
G75*
G02*
X141592000Y-121579500I0J-150000D01*
G01*
G37*
G36*
G01*
X147967000Y-121579500D02*
X147967000Y-121879500D01*
G75*
G02*
X147817000Y-122029500I-150000J0D01*
G01*
X146492000Y-122029500D01*
G75*
G02*
X146342000Y-121879500I0J150000D01*
G01*
X146342000Y-121579500D01*
G75*
G02*
X146492000Y-121429500I150000J0D01*
G01*
X147817000Y-121429500D01*
G75*
G02*
X147967000Y-121579500I0J-150000D01*
G01*
G37*
G36*
G01*
X147967000Y-122849500D02*
X147967000Y-123149500D01*
G75*
G02*
X147817000Y-123299500I-150000J0D01*
G01*
X146492000Y-123299500D01*
G75*
G02*
X146342000Y-123149500I0J150000D01*
G01*
X146342000Y-122849500D01*
G75*
G02*
X146492000Y-122699500I150000J0D01*
G01*
X147817000Y-122699500D01*
G75*
G02*
X147967000Y-122849500I0J-150000D01*
G01*
G37*
%TD*%
D12*
%TO.C,R10*%
X173609000Y-78867000D03*
D13*
X153289000Y-78867000D03*
%TD*%
D12*
%TO.C,R3*%
X173609000Y-123063000D03*
D13*
X153289000Y-123063000D03*
%TD*%
%TO.C,R2*%
G36*
G01*
X150500501Y-122488500D02*
X149600499Y-122488500D01*
G75*
G02*
X149350500Y-122238501I0J249999D01*
G01*
X149350500Y-121538499D01*
G75*
G02*
X149600499Y-121288500I249999J0D01*
G01*
X150500501Y-121288500D01*
G75*
G02*
X150750500Y-121538499I0J-249999D01*
G01*
X150750500Y-122238501D01*
G75*
G02*
X150500501Y-122488500I-249999J0D01*
G01*
G37*
G36*
G01*
X150500501Y-124488500D02*
X149600499Y-124488500D01*
G75*
G02*
X149350500Y-124238501I0J249999D01*
G01*
X149350500Y-123538499D01*
G75*
G02*
X149600499Y-123288500I249999J0D01*
G01*
X150500501Y-123288500D01*
G75*
G02*
X150750500Y-123538499I0J-249999D01*
G01*
X150750500Y-124238501D01*
G75*
G02*
X150500501Y-124488500I-249999J0D01*
G01*
G37*
%TD*%
%TO.C,R1*%
G36*
G01*
X137077500Y-117215499D02*
X137077500Y-118115501D01*
G75*
G02*
X136827501Y-118365500I-249999J0D01*
G01*
X136127499Y-118365500D01*
G75*
G02*
X135877500Y-118115501I0J249999D01*
G01*
X135877500Y-117215499D01*
G75*
G02*
X136127499Y-116965500I249999J0D01*
G01*
X136827501Y-116965500D01*
G75*
G02*
X137077500Y-117215499I0J-249999D01*
G01*
G37*
G36*
G01*
X139077500Y-117215499D02*
X139077500Y-118115501D01*
G75*
G02*
X138827501Y-118365500I-249999J0D01*
G01*
X138127499Y-118365500D01*
G75*
G02*
X137877500Y-118115501I0J249999D01*
G01*
X137877500Y-117215499D01*
G75*
G02*
X138127499Y-116965500I249999J0D01*
G01*
X138827501Y-116965500D01*
G75*
G02*
X139077500Y-117215499I0J-249999D01*
G01*
G37*
%TD*%
D14*
%TO.C,Q2*%
G36*
X187827656Y-85147845D02*
G01*
X187840788Y-85151828D01*
X187852890Y-85158297D01*
X187863497Y-85167003D01*
X187872203Y-85177610D01*
X187878672Y-85189712D01*
X187882655Y-85202844D01*
X187884000Y-85216500D01*
X187884000Y-89916500D01*
X187882655Y-89930156D01*
X187878672Y-89943288D01*
X187872203Y-89955390D01*
X187863497Y-89965997D01*
X187852890Y-89974703D01*
X187840788Y-89981172D01*
X187827656Y-89985155D01*
X187814000Y-89986500D01*
X186264000Y-89986500D01*
X186250344Y-89985155D01*
X186237212Y-89981172D01*
X186225110Y-89974703D01*
X186214503Y-89965997D01*
X186205797Y-89955390D01*
X186199328Y-89943288D01*
X186195345Y-89930156D01*
X186194000Y-89916500D01*
X186194000Y-89736500D01*
X183189000Y-89736500D01*
X183175344Y-89735155D01*
X183162212Y-89731172D01*
X183150110Y-89724703D01*
X183139503Y-89715997D01*
X183130797Y-89705390D01*
X183124328Y-89693288D01*
X183120345Y-89680156D01*
X183119000Y-89666500D01*
X183119000Y-85466500D01*
X183120345Y-85452844D01*
X183124328Y-85439712D01*
X183130797Y-85427610D01*
X183139503Y-85417003D01*
X183150110Y-85408297D01*
X183162212Y-85401828D01*
X183175344Y-85397845D01*
X183189000Y-85396500D01*
X186194000Y-85396500D01*
X186194000Y-85216500D01*
X186195345Y-85202844D01*
X186199328Y-85189712D01*
X186205797Y-85177610D01*
X186214503Y-85167003D01*
X186225110Y-85158297D01*
X186237212Y-85151828D01*
X186250344Y-85147845D01*
X186264000Y-85146500D01*
X187814000Y-85146500D01*
X187827656Y-85147845D01*
G37*
G36*
G01*
X180994000Y-89056500D02*
X182144000Y-89056500D01*
G75*
G02*
X182214000Y-89126500I0J-70000D01*
G01*
X182214000Y-89826500D01*
G75*
G02*
X182144000Y-89896500I-70000J0D01*
G01*
X180994000Y-89896500D01*
G75*
G02*
X180924000Y-89826500I0J70000D01*
G01*
X180924000Y-89126500D01*
G75*
G02*
X180994000Y-89056500I70000J0D01*
G01*
G37*
G36*
G01*
X180994000Y-87786500D02*
X182144000Y-87786500D01*
G75*
G02*
X182214000Y-87856500I0J-70000D01*
G01*
X182214000Y-88556500D01*
G75*
G02*
X182144000Y-88626500I-70000J0D01*
G01*
X180994000Y-88626500D01*
G75*
G02*
X180924000Y-88556500I0J70000D01*
G01*
X180924000Y-87856500D01*
G75*
G02*
X180994000Y-87786500I70000J0D01*
G01*
G37*
G36*
G01*
X180994000Y-85236500D02*
X182144000Y-85236500D01*
G75*
G02*
X182214000Y-85306500I0J-70000D01*
G01*
X182214000Y-86006500D01*
G75*
G02*
X182144000Y-86076500I-70000J0D01*
G01*
X180994000Y-86076500D01*
G75*
G02*
X180924000Y-86006500I0J70000D01*
G01*
X180924000Y-85306500D01*
G75*
G02*
X180994000Y-85236500I70000J0D01*
G01*
G37*
G36*
G01*
X180994000Y-86506500D02*
X182144000Y-86506500D01*
G75*
G02*
X182214000Y-86576500I0J-70000D01*
G01*
X182214000Y-87276500D01*
G75*
G02*
X182144000Y-87346500I-70000J0D01*
G01*
X180994000Y-87346500D01*
G75*
G02*
X180924000Y-87276500I0J70000D01*
G01*
X180924000Y-86576500D01*
G75*
G02*
X180994000Y-86506500I70000J0D01*
G01*
G37*
%TD*%
%TO.C,Q1*%
G36*
X187827656Y-111944845D02*
G01*
X187840788Y-111948828D01*
X187852890Y-111955297D01*
X187863497Y-111964003D01*
X187872203Y-111974610D01*
X187878672Y-111986712D01*
X187882655Y-111999844D01*
X187884000Y-112013500D01*
X187884000Y-116713500D01*
X187882655Y-116727156D01*
X187878672Y-116740288D01*
X187872203Y-116752390D01*
X187863497Y-116762997D01*
X187852890Y-116771703D01*
X187840788Y-116778172D01*
X187827656Y-116782155D01*
X187814000Y-116783500D01*
X186264000Y-116783500D01*
X186250344Y-116782155D01*
X186237212Y-116778172D01*
X186225110Y-116771703D01*
X186214503Y-116762997D01*
X186205797Y-116752390D01*
X186199328Y-116740288D01*
X186195345Y-116727156D01*
X186194000Y-116713500D01*
X186194000Y-116533500D01*
X183189000Y-116533500D01*
X183175344Y-116532155D01*
X183162212Y-116528172D01*
X183150110Y-116521703D01*
X183139503Y-116512997D01*
X183130797Y-116502390D01*
X183124328Y-116490288D01*
X183120345Y-116477156D01*
X183119000Y-116463500D01*
X183119000Y-112263500D01*
X183120345Y-112249844D01*
X183124328Y-112236712D01*
X183130797Y-112224610D01*
X183139503Y-112214003D01*
X183150110Y-112205297D01*
X183162212Y-112198828D01*
X183175344Y-112194845D01*
X183189000Y-112193500D01*
X186194000Y-112193500D01*
X186194000Y-112013500D01*
X186195345Y-111999844D01*
X186199328Y-111986712D01*
X186205797Y-111974610D01*
X186214503Y-111964003D01*
X186225110Y-111955297D01*
X186237212Y-111948828D01*
X186250344Y-111944845D01*
X186264000Y-111943500D01*
X187814000Y-111943500D01*
X187827656Y-111944845D01*
G37*
G36*
G01*
X180994000Y-115853500D02*
X182144000Y-115853500D01*
G75*
G02*
X182214000Y-115923500I0J-70000D01*
G01*
X182214000Y-116623500D01*
G75*
G02*
X182144000Y-116693500I-70000J0D01*
G01*
X180994000Y-116693500D01*
G75*
G02*
X180924000Y-116623500I0J70000D01*
G01*
X180924000Y-115923500D01*
G75*
G02*
X180994000Y-115853500I70000J0D01*
G01*
G37*
G36*
G01*
X180994000Y-114583500D02*
X182144000Y-114583500D01*
G75*
G02*
X182214000Y-114653500I0J-70000D01*
G01*
X182214000Y-115353500D01*
G75*
G02*
X182144000Y-115423500I-70000J0D01*
G01*
X180994000Y-115423500D01*
G75*
G02*
X180924000Y-115353500I0J70000D01*
G01*
X180924000Y-114653500D01*
G75*
G02*
X180994000Y-114583500I70000J0D01*
G01*
G37*
G36*
G01*
X180994000Y-112033500D02*
X182144000Y-112033500D01*
G75*
G02*
X182214000Y-112103500I0J-70000D01*
G01*
X182214000Y-112803500D01*
G75*
G02*
X182144000Y-112873500I-70000J0D01*
G01*
X180994000Y-112873500D01*
G75*
G02*
X180924000Y-112803500I0J70000D01*
G01*
X180924000Y-112103500D01*
G75*
G02*
X180994000Y-112033500I70000J0D01*
G01*
G37*
G36*
G01*
X180994000Y-113303500D02*
X182144000Y-113303500D01*
G75*
G02*
X182214000Y-113373500I0J-70000D01*
G01*
X182214000Y-114073500D01*
G75*
G02*
X182144000Y-114143500I-70000J0D01*
G01*
X180994000Y-114143500D01*
G75*
G02*
X180924000Y-114073500I0J70000D01*
G01*
X180924000Y-113373500D01*
G75*
G02*
X180994000Y-113303500I70000J0D01*
G01*
G37*
%TD*%
D15*
%TO.C,K5*%
X131826000Y-98361500D03*
X126746000Y-98361500D03*
X124206000Y-98361500D03*
X121666000Y-98361500D03*
X121666000Y-93281500D03*
X124206000Y-93281500D03*
X126746000Y-93281500D03*
G36*
G01*
X131326500Y-92531500D02*
X132325500Y-92531500D01*
G75*
G02*
X132576000Y-92782000I0J-250500D01*
G01*
X132576000Y-93781000D01*
G75*
G02*
X132325500Y-94031500I-250500J0D01*
G01*
X131326500Y-94031500D01*
G75*
G02*
X131076000Y-93781000I0J250500D01*
G01*
X131076000Y-92782000D01*
G75*
G02*
X131326500Y-92531500I250500J0D01*
G01*
G37*
%TD*%
%TO.C,K4*%
X136017000Y-77597000D03*
X141097000Y-77597000D03*
X143637000Y-77597000D03*
X146177000Y-77597000D03*
X146177000Y-82677000D03*
X143637000Y-82677000D03*
X141097000Y-82677000D03*
G36*
G01*
X136516500Y-83427000D02*
X135517500Y-83427000D01*
G75*
G02*
X135267000Y-83176500I0J250500D01*
G01*
X135267000Y-82177500D01*
G75*
G02*
X135517500Y-81927000I250500J0D01*
G01*
X136516500Y-81927000D01*
G75*
G02*
X136767000Y-82177500I0J-250500D01*
G01*
X136767000Y-83176500D01*
G75*
G02*
X136516500Y-83427000I-250500J0D01*
G01*
G37*
%TD*%
%TO.C,Ke*%
X168402000Y-103441500D03*
X163322000Y-103441500D03*
X160782000Y-103441500D03*
X158242000Y-103441500D03*
X158242000Y-98361500D03*
X160782000Y-98361500D03*
X163322000Y-98361500D03*
G36*
G01*
X167902500Y-97611500D02*
X168901500Y-97611500D01*
G75*
G02*
X169152000Y-97862000I0J-250500D01*
G01*
X169152000Y-98861000D01*
G75*
G02*
X168901500Y-99111500I-250500J0D01*
G01*
X167902500Y-99111500D01*
G75*
G02*
X167652000Y-98861000I0J250500D01*
G01*
X167652000Y-97862000D01*
G75*
G02*
X167902500Y-97611500I250500J0D01*
G01*
G37*
%TD*%
%TO.C,K2*%
X150114000Y-103441500D03*
X145034000Y-103441500D03*
X142494000Y-103441500D03*
X139954000Y-103441500D03*
X139954000Y-98361500D03*
X142494000Y-98361500D03*
X145034000Y-98361500D03*
G36*
G01*
X149614500Y-97611500D02*
X150613500Y-97611500D01*
G75*
G02*
X150864000Y-97862000I0J-250500D01*
G01*
X150864000Y-98861000D01*
G75*
G02*
X150613500Y-99111500I-250500J0D01*
G01*
X149614500Y-99111500D01*
G75*
G02*
X149364000Y-98861000I0J250500D01*
G01*
X149364000Y-97862000D01*
G75*
G02*
X149614500Y-97611500I250500J0D01*
G01*
G37*
%TD*%
%TO.C,K1*%
X131826000Y-108521500D03*
X126746000Y-108521500D03*
X124206000Y-108521500D03*
X121666000Y-108521500D03*
X121666000Y-103441500D03*
X124206000Y-103441500D03*
X126746000Y-103441500D03*
G36*
G01*
X131326500Y-102691500D02*
X132325500Y-102691500D01*
G75*
G02*
X132576000Y-102942000I0J-250500D01*
G01*
X132576000Y-103941000D01*
G75*
G02*
X132325500Y-104191500I-250500J0D01*
G01*
X131326500Y-104191500D01*
G75*
G02*
X131076000Y-103941000I0J250500D01*
G01*
X131076000Y-102942000D01*
G75*
G02*
X131326500Y-102691500I250500J0D01*
G01*
G37*
%TD*%
D16*
%TO.C,J2*%
X186434000Y-101477000D03*
X184404000Y-100457000D03*
%TD*%
D17*
%TO.C,J1*%
X99314000Y-88265000D03*
X96774000Y-88265000D03*
X99314000Y-90805000D03*
X96774000Y-90805000D03*
X99314000Y-93345000D03*
X96774000Y-93345000D03*
X99314000Y-95885000D03*
X96774000Y-95885000D03*
X99314000Y-98425000D03*
X96774000Y-98425000D03*
X99314000Y-100965000D03*
X96774000Y-100965000D03*
X99314000Y-103505000D03*
X96774000Y-103505000D03*
X99314000Y-106045000D03*
X96774000Y-106045000D03*
X99314000Y-108585000D03*
X96774000Y-108585000D03*
X99314000Y-111125000D03*
X96774000Y-111125000D03*
X99314000Y-113665000D03*
D18*
X96774000Y-113665000D03*
%TD*%
D10*
%TO.C,H2*%
X190881000Y-123317000D03*
%TD*%
%TO.C,H1*%
X190881000Y-78613000D03*
%TD*%
D19*
%TO.C,F1*%
X109601000Y-81280000D03*
X104521000Y-81280000D03*
%TD*%
D20*
%TO.C,D9*%
X124206000Y-89725500D03*
D21*
X131826000Y-89725500D03*
%TD*%
D20*
%TO.C,D8*%
X131826000Y-77597000D03*
D21*
X131826000Y-85217000D03*
%TD*%
D20*
%TO.C,D6*%
X185420000Y-78740000D03*
D21*
X177800000Y-78740000D03*
%TD*%
D20*
%TO.C,D5*%
X168402000Y-106426000D03*
D21*
X168402000Y-114046000D03*
%TD*%
D20*
%TO.C,D4*%
X146240500Y-106426000D03*
D21*
X146240500Y-114046000D03*
%TD*%
D20*
%TO.C,D3*%
X185420000Y-123063000D03*
D21*
X177800000Y-123063000D03*
%TD*%
D20*
%TO.C,D1*%
X148526500Y-117665500D03*
D21*
X140906500Y-117665500D03*
%TD*%
D22*
%TO.C,C8*%
X115904000Y-81280000D03*
D23*
X120904000Y-81280000D03*
%TD*%
%TO.C,C6*%
G36*
G01*
X133316000Y-117428000D02*
X133316000Y-117903000D01*
G75*
G02*
X133078500Y-118140500I-237500J0D01*
G01*
X132478500Y-118140500D01*
G75*
G02*
X132241000Y-117903000I0J237500D01*
G01*
X132241000Y-117428000D01*
G75*
G02*
X132478500Y-117190500I237500J0D01*
G01*
X133078500Y-117190500D01*
G75*
G02*
X133316000Y-117428000I0J-237500D01*
G01*
G37*
G36*
G01*
X135041000Y-117428000D02*
X135041000Y-117903000D01*
G75*
G02*
X134803500Y-118140500I-237500J0D01*
G01*
X134203500Y-118140500D01*
G75*
G02*
X133966000Y-117903000I0J237500D01*
G01*
X133966000Y-117428000D01*
G75*
G02*
X134203500Y-117190500I237500J0D01*
G01*
X134803500Y-117190500D01*
G75*
G02*
X135041000Y-117428000I0J-237500D01*
G01*
G37*
%TD*%
D24*
%TO.C,C5*%
X126428500Y-122777000D03*
D21*
X126428500Y-120777000D03*
%TD*%
D24*
%TO.C,C4*%
X173768000Y-89535000D03*
D21*
X175768000Y-89535000D03*
%TD*%
D25*
%TO.C,C3*%
X175871000Y-98298000D03*
D26*
X174371000Y-98298000D03*
%TD*%
D25*
%TO.C,C2*%
X174395000Y-103505000D03*
D26*
X175895000Y-103505000D03*
%TD*%
D24*
%TO.C,C1*%
X173768000Y-116205000D03*
D21*
X175768000Y-116205000D03*
%TD*%
M02*
