%TF.GenerationSoftware,KiCad,Pcbnew,(5.1.7)-1*%
%TF.CreationDate,2021-07-26T21:24:21-04:00*%
%TF.ProjectId,PhoneInterface,50686f6e-6549-46e7-9465-72666163652e,rev?*%
%TF.SameCoordinates,Original*%
%TF.FileFunction,Paste,Bot*%
%TF.FilePolarity,Positive*%
%FSLAX46Y46*%
G04 Gerber Fmt 4.6, Leading zero omitted, Abs format (unit mm)*
G04 Created by KiCad (PCBNEW (5.1.7)-1) date 2021-07-26 21:24:21*
%MOMM*%
%LPD*%
G01*
G04 APERTURE LIST*
%ADD10R,0.450000X1.500000*%
%ADD11R,1.500000X0.450000*%
%ADD12R,0.900000X0.800000*%
G04 APERTURE END LIST*
%TO.C,R19*%
G36*
G01*
X96421400Y-84092201D02*
X96421400Y-83192199D01*
G75*
G02*
X96671399Y-82942200I249999J0D01*
G01*
X97371401Y-82942200D01*
G75*
G02*
X97621400Y-83192199I0J-249999D01*
G01*
X97621400Y-84092201D01*
G75*
G02*
X97371401Y-84342200I-249999J0D01*
G01*
X96671399Y-84342200D01*
G75*
G02*
X96421400Y-84092201I0J249999D01*
G01*
G37*
G36*
G01*
X94421400Y-84092201D02*
X94421400Y-83192199D01*
G75*
G02*
X94671399Y-82942200I249999J0D01*
G01*
X95371401Y-82942200D01*
G75*
G02*
X95621400Y-83192199I0J-249999D01*
G01*
X95621400Y-84092201D01*
G75*
G02*
X95371401Y-84342200I-249999J0D01*
G01*
X94671399Y-84342200D01*
G75*
G02*
X94421400Y-84092201I0J249999D01*
G01*
G37*
%TD*%
%TO.C,R18*%
G36*
G01*
X155644001Y-109121500D02*
X154743999Y-109121500D01*
G75*
G02*
X154494000Y-108871501I0J249999D01*
G01*
X154494000Y-108171499D01*
G75*
G02*
X154743999Y-107921500I249999J0D01*
G01*
X155644001Y-107921500D01*
G75*
G02*
X155894000Y-108171499I0J-249999D01*
G01*
X155894000Y-108871501D01*
G75*
G02*
X155644001Y-109121500I-249999J0D01*
G01*
G37*
G36*
G01*
X155644001Y-111121500D02*
X154743999Y-111121500D01*
G75*
G02*
X154494000Y-110871501I0J249999D01*
G01*
X154494000Y-110171499D01*
G75*
G02*
X154743999Y-109921500I249999J0D01*
G01*
X155644001Y-109921500D01*
G75*
G02*
X155894000Y-110171499I0J-249999D01*
G01*
X155894000Y-110871501D01*
G75*
G02*
X155644001Y-111121500I-249999J0D01*
G01*
G37*
%TD*%
%TO.C,R17*%
G36*
G01*
X115500999Y-91792500D02*
X116401001Y-91792500D01*
G75*
G02*
X116651000Y-92042499I0J-249999D01*
G01*
X116651000Y-92742501D01*
G75*
G02*
X116401001Y-92992500I-249999J0D01*
G01*
X115500999Y-92992500D01*
G75*
G02*
X115251000Y-92742501I0J249999D01*
G01*
X115251000Y-92042499D01*
G75*
G02*
X115500999Y-91792500I249999J0D01*
G01*
G37*
G36*
G01*
X115500999Y-89792500D02*
X116401001Y-89792500D01*
G75*
G02*
X116651000Y-90042499I0J-249999D01*
G01*
X116651000Y-90742501D01*
G75*
G02*
X116401001Y-90992500I-249999J0D01*
G01*
X115500999Y-90992500D01*
G75*
G02*
X115251000Y-90742501I0J249999D01*
G01*
X115251000Y-90042499D01*
G75*
G02*
X115500999Y-89792500I249999J0D01*
G01*
G37*
%TD*%
%TO.C,R16*%
G36*
G01*
X153421501Y-109121500D02*
X152521499Y-109121500D01*
G75*
G02*
X152271500Y-108871501I0J249999D01*
G01*
X152271500Y-108171499D01*
G75*
G02*
X152521499Y-107921500I249999J0D01*
G01*
X153421501Y-107921500D01*
G75*
G02*
X153671500Y-108171499I0J-249999D01*
G01*
X153671500Y-108871501D01*
G75*
G02*
X153421501Y-109121500I-249999J0D01*
G01*
G37*
G36*
G01*
X153421501Y-111121500D02*
X152521499Y-111121500D01*
G75*
G02*
X152271500Y-110871501I0J249999D01*
G01*
X152271500Y-110171499D01*
G75*
G02*
X152521499Y-109921500I249999J0D01*
G01*
X153421501Y-109921500D01*
G75*
G02*
X153671500Y-110171499I0J-249999D01*
G01*
X153671500Y-110871501D01*
G75*
G02*
X153421501Y-111121500I-249999J0D01*
G01*
G37*
%TD*%
%TO.C,R15*%
G36*
G01*
X113214999Y-91798600D02*
X114115001Y-91798600D01*
G75*
G02*
X114365000Y-92048599I0J-249999D01*
G01*
X114365000Y-92748601D01*
G75*
G02*
X114115001Y-92998600I-249999J0D01*
G01*
X113214999Y-92998600D01*
G75*
G02*
X112965000Y-92748601I0J249999D01*
G01*
X112965000Y-92048599D01*
G75*
G02*
X113214999Y-91798600I249999J0D01*
G01*
G37*
G36*
G01*
X113214999Y-89798600D02*
X114115001Y-89798600D01*
G75*
G02*
X114365000Y-90048599I0J-249999D01*
G01*
X114365000Y-90748601D01*
G75*
G02*
X114115001Y-90998600I-249999J0D01*
G01*
X113214999Y-90998600D01*
G75*
G02*
X112965000Y-90748601I0J249999D01*
G01*
X112965000Y-90048599D01*
G75*
G02*
X113214999Y-89798600I249999J0D01*
G01*
G37*
%TD*%
%TO.C,R14*%
G36*
G01*
X125914999Y-80918000D02*
X126815001Y-80918000D01*
G75*
G02*
X127065000Y-81167999I0J-249999D01*
G01*
X127065000Y-81868001D01*
G75*
G02*
X126815001Y-82118000I-249999J0D01*
G01*
X125914999Y-82118000D01*
G75*
G02*
X125665000Y-81868001I0J249999D01*
G01*
X125665000Y-81167999D01*
G75*
G02*
X125914999Y-80918000I249999J0D01*
G01*
G37*
G36*
G01*
X125914999Y-78918000D02*
X126815001Y-78918000D01*
G75*
G02*
X127065000Y-79167999I0J-249999D01*
G01*
X127065000Y-79868001D01*
G75*
G02*
X126815001Y-80118000I-249999J0D01*
G01*
X125914999Y-80118000D01*
G75*
G02*
X125665000Y-79868001I0J249999D01*
G01*
X125665000Y-79167999D01*
G75*
G02*
X125914999Y-78918000I249999J0D01*
G01*
G37*
%TD*%
%TO.C,R13*%
G36*
G01*
X165135000Y-114305501D02*
X165135000Y-113405499D01*
G75*
G02*
X165384999Y-113155500I249999J0D01*
G01*
X166085001Y-113155500D01*
G75*
G02*
X166335000Y-113405499I0J-249999D01*
G01*
X166335000Y-114305501D01*
G75*
G02*
X166085001Y-114555500I-249999J0D01*
G01*
X165384999Y-114555500D01*
G75*
G02*
X165135000Y-114305501I0J249999D01*
G01*
G37*
G36*
G01*
X163135000Y-114305501D02*
X163135000Y-113405499D01*
G75*
G02*
X163384999Y-113155500I249999J0D01*
G01*
X164085001Y-113155500D01*
G75*
G02*
X164335000Y-113405499I0J-249999D01*
G01*
X164335000Y-114305501D01*
G75*
G02*
X164085001Y-114555500I-249999J0D01*
G01*
X163384999Y-114555500D01*
G75*
G02*
X163135000Y-114305501I0J249999D01*
G01*
G37*
%TD*%
%TO.C,R12*%
G36*
G01*
X123425799Y-78908600D02*
X124325801Y-78908600D01*
G75*
G02*
X124575800Y-79158599I0J-249999D01*
G01*
X124575800Y-79858601D01*
G75*
G02*
X124325801Y-80108600I-249999J0D01*
G01*
X123425799Y-80108600D01*
G75*
G02*
X123175800Y-79858601I0J249999D01*
G01*
X123175800Y-79158599D01*
G75*
G02*
X123425799Y-78908600I249999J0D01*
G01*
G37*
G36*
G01*
X123425799Y-80908600D02*
X124325801Y-80908600D01*
G75*
G02*
X124575800Y-81158599I0J-249999D01*
G01*
X124575800Y-81858601D01*
G75*
G02*
X124325801Y-82108600I-249999J0D01*
G01*
X123425799Y-82108600D01*
G75*
G02*
X123175800Y-81858601I0J249999D01*
G01*
X123175800Y-81158599D01*
G75*
G02*
X123425799Y-80908600I249999J0D01*
G01*
G37*
%TD*%
%TO.C,R11*%
G36*
G01*
X165135000Y-112083001D02*
X165135000Y-111182999D01*
G75*
G02*
X165384999Y-110933000I249999J0D01*
G01*
X166085001Y-110933000D01*
G75*
G02*
X166335000Y-111182999I0J-249999D01*
G01*
X166335000Y-112083001D01*
G75*
G02*
X166085001Y-112333000I-249999J0D01*
G01*
X165384999Y-112333000D01*
G75*
G02*
X165135000Y-112083001I0J249999D01*
G01*
G37*
G36*
G01*
X163135000Y-112083001D02*
X163135000Y-111182999D01*
G75*
G02*
X163384999Y-110933000I249999J0D01*
G01*
X164085001Y-110933000D01*
G75*
G02*
X164335000Y-111182999I0J-249999D01*
G01*
X164335000Y-112083001D01*
G75*
G02*
X164085001Y-112333000I-249999J0D01*
G01*
X163384999Y-112333000D01*
G75*
G02*
X163135000Y-112083001I0J249999D01*
G01*
G37*
%TD*%
%TO.C,R9*%
G36*
G01*
X184647000Y-84523000D02*
X184647000Y-86673000D01*
G75*
G02*
X184397000Y-86923000I-250000J0D01*
G01*
X183597000Y-86923000D01*
G75*
G02*
X183347000Y-86673000I0J250000D01*
G01*
X183347000Y-84523000D01*
G75*
G02*
X183597000Y-84273000I250000J0D01*
G01*
X184397000Y-84273000D01*
G75*
G02*
X184647000Y-84523000I0J-250000D01*
G01*
G37*
G36*
G01*
X187747000Y-84523000D02*
X187747000Y-86673000D01*
G75*
G02*
X187497000Y-86923000I-250000J0D01*
G01*
X186697000Y-86923000D01*
G75*
G02*
X186447000Y-86673000I0J250000D01*
G01*
X186447000Y-84523000D01*
G75*
G02*
X186697000Y-84273000I250000J0D01*
G01*
X187497000Y-84273000D01*
G75*
G02*
X187747000Y-84523000I0J-250000D01*
G01*
G37*
%TD*%
%TO.C,R8*%
G36*
G01*
X184647000Y-88460000D02*
X184647000Y-90610000D01*
G75*
G02*
X184397000Y-90860000I-250000J0D01*
G01*
X183597000Y-90860000D01*
G75*
G02*
X183347000Y-90610000I0J250000D01*
G01*
X183347000Y-88460000D01*
G75*
G02*
X183597000Y-88210000I250000J0D01*
G01*
X184397000Y-88210000D01*
G75*
G02*
X184647000Y-88460000I0J-250000D01*
G01*
G37*
G36*
G01*
X187747000Y-88460000D02*
X187747000Y-90610000D01*
G75*
G02*
X187497000Y-90860000I-250000J0D01*
G01*
X186697000Y-90860000D01*
G75*
G02*
X186447000Y-90610000I0J250000D01*
G01*
X186447000Y-88460000D01*
G75*
G02*
X186697000Y-88210000I250000J0D01*
G01*
X187497000Y-88210000D01*
G75*
G02*
X187747000Y-88460000I0J-250000D01*
G01*
G37*
%TD*%
%TO.C,R7*%
G36*
G01*
X162871999Y-94904000D02*
X163772001Y-94904000D01*
G75*
G02*
X164022000Y-95153999I0J-249999D01*
G01*
X164022000Y-95854001D01*
G75*
G02*
X163772001Y-96104000I-249999J0D01*
G01*
X162871999Y-96104000D01*
G75*
G02*
X162622000Y-95854001I0J249999D01*
G01*
X162622000Y-95153999D01*
G75*
G02*
X162871999Y-94904000I249999J0D01*
G01*
G37*
G36*
G01*
X162871999Y-92904000D02*
X163772001Y-92904000D01*
G75*
G02*
X164022000Y-93153999I0J-249999D01*
G01*
X164022000Y-93854001D01*
G75*
G02*
X163772001Y-94104000I-249999J0D01*
G01*
X162871999Y-94104000D01*
G75*
G02*
X162622000Y-93854001I0J249999D01*
G01*
X162622000Y-93153999D01*
G75*
G02*
X162871999Y-92904000I249999J0D01*
G01*
G37*
%TD*%
%TO.C,R6*%
G36*
G01*
X163772001Y-106788000D02*
X162871999Y-106788000D01*
G75*
G02*
X162622000Y-106538001I0J249999D01*
G01*
X162622000Y-105837999D01*
G75*
G02*
X162871999Y-105588000I249999J0D01*
G01*
X163772001Y-105588000D01*
G75*
G02*
X164022000Y-105837999I0J-249999D01*
G01*
X164022000Y-106538001D01*
G75*
G02*
X163772001Y-106788000I-249999J0D01*
G01*
G37*
G36*
G01*
X163772001Y-108788000D02*
X162871999Y-108788000D01*
G75*
G02*
X162622000Y-108538001I0J249999D01*
G01*
X162622000Y-107837999D01*
G75*
G02*
X162871999Y-107588000I249999J0D01*
G01*
X163772001Y-107588000D01*
G75*
G02*
X164022000Y-107837999I0J-249999D01*
G01*
X164022000Y-108538001D01*
G75*
G02*
X163772001Y-108788000I-249999J0D01*
G01*
G37*
%TD*%
%TO.C,R5*%
G36*
G01*
X184647000Y-115257000D02*
X184647000Y-117407000D01*
G75*
G02*
X184397000Y-117657000I-250000J0D01*
G01*
X183597000Y-117657000D01*
G75*
G02*
X183347000Y-117407000I0J250000D01*
G01*
X183347000Y-115257000D01*
G75*
G02*
X183597000Y-115007000I250000J0D01*
G01*
X184397000Y-115007000D01*
G75*
G02*
X184647000Y-115257000I0J-250000D01*
G01*
G37*
G36*
G01*
X187747000Y-115257000D02*
X187747000Y-117407000D01*
G75*
G02*
X187497000Y-117657000I-250000J0D01*
G01*
X186697000Y-117657000D01*
G75*
G02*
X186447000Y-117407000I0J250000D01*
G01*
X186447000Y-115257000D01*
G75*
G02*
X186697000Y-115007000I250000J0D01*
G01*
X187497000Y-115007000D01*
G75*
G02*
X187747000Y-115257000I0J-250000D01*
G01*
G37*
%TD*%
%TO.C,R4*%
G36*
G01*
X184647000Y-111574000D02*
X184647000Y-113724000D01*
G75*
G02*
X184397000Y-113974000I-250000J0D01*
G01*
X183597000Y-113974000D01*
G75*
G02*
X183347000Y-113724000I0J250000D01*
G01*
X183347000Y-111574000D01*
G75*
G02*
X183597000Y-111324000I250000J0D01*
G01*
X184397000Y-111324000D01*
G75*
G02*
X184647000Y-111574000I0J-250000D01*
G01*
G37*
G36*
G01*
X187747000Y-111574000D02*
X187747000Y-113724000D01*
G75*
G02*
X187497000Y-113974000I-250000J0D01*
G01*
X186697000Y-113974000D01*
G75*
G02*
X186447000Y-113724000I0J250000D01*
G01*
X186447000Y-111574000D01*
G75*
G02*
X186697000Y-111324000I250000J0D01*
G01*
X187497000Y-111324000D01*
G75*
G02*
X187747000Y-111574000I0J-250000D01*
G01*
G37*
%TD*%
D10*
%TO.C,Q6*%
X150114000Y-105921500D03*
X149464000Y-108581500D03*
X150764000Y-108581500D03*
%TD*%
D11*
%TO.C,Q5*%
X121091000Y-89725500D03*
X118431000Y-89075500D03*
X118431000Y-90375500D03*
%TD*%
%TO.C,Q4*%
X131826000Y-80835500D03*
X129166000Y-80185500D03*
X129166000Y-81485500D03*
%TD*%
%TO.C,Q3*%
X168398500Y-108839000D03*
X165738500Y-108189000D03*
X165738500Y-109489000D03*
%TD*%
D12*
%TO.C,D7*%
X184023000Y-93726000D03*
X182023000Y-92776000D03*
X182023000Y-94676000D03*
%TD*%
%TO.C,D2*%
X182134000Y-108585000D03*
X184134000Y-109535000D03*
X184134000Y-107635000D03*
%TD*%
M02*
