%TF.GenerationSoftware,KiCad,Pcbnew,(5.1.7)-1*%
%TF.CreationDate,2021-08-03T20:44:09-04:00*%
%TF.ProjectId,PhoneInterface,50686f6e-6549-46e7-9465-72666163652e,rev?*%
%TF.SameCoordinates,Original*%
%TF.FileFunction,Legend,Top*%
%TF.FilePolarity,Positive*%
%FSLAX46Y46*%
G04 Gerber Fmt 4.6, Leading zero omitted, Abs format (unit mm)*
G04 Created by KiCad (PCBNEW (5.1.7)-1) date 2021-08-03 20:44:09*
%MOMM*%
%LPD*%
G01*
G04 APERTURE LIST*
%ADD10C,0.150000*%
%ADD11C,0.120000*%
%ADD12C,0.200000*%
%ADD13C,0.100000*%
%ADD14C,0.254000*%
G04 APERTURE END LIST*
D10*
X103629747Y-119836180D02*
X104201176Y-119836180D01*
X103915461Y-120836180D02*
X103915461Y-119836180D01*
X104915461Y-120788561D02*
X104820223Y-120836180D01*
X104629747Y-120836180D01*
X104534509Y-120788561D01*
X104486890Y-120693323D01*
X104486890Y-120312371D01*
X104534509Y-120217133D01*
X104629747Y-120169514D01*
X104820223Y-120169514D01*
X104915461Y-120217133D01*
X104963080Y-120312371D01*
X104963080Y-120407609D01*
X104486890Y-120502847D01*
X105534509Y-120836180D02*
X105439271Y-120788561D01*
X105391652Y-120693323D01*
X105391652Y-119836180D01*
X106296414Y-120788561D02*
X106201176Y-120836180D01*
X106010700Y-120836180D01*
X105915461Y-120788561D01*
X105867842Y-120693323D01*
X105867842Y-120312371D01*
X105915461Y-120217133D01*
X106010700Y-120169514D01*
X106201176Y-120169514D01*
X106296414Y-120217133D01*
X106344033Y-120312371D01*
X106344033Y-120407609D01*
X105867842Y-120502847D01*
X106629747Y-119836180D02*
X107201176Y-119836180D01*
X106915461Y-120836180D02*
X106915461Y-119836180D01*
X107915461Y-120788561D02*
X107820223Y-120836180D01*
X107629747Y-120836180D01*
X107534509Y-120788561D01*
X107486890Y-120693323D01*
X107486890Y-120312371D01*
X107534509Y-120217133D01*
X107629747Y-120169514D01*
X107820223Y-120169514D01*
X107915461Y-120217133D01*
X107963080Y-120312371D01*
X107963080Y-120407609D01*
X107486890Y-120502847D01*
X108820223Y-120788561D02*
X108724985Y-120836180D01*
X108534509Y-120836180D01*
X108439271Y-120788561D01*
X108391652Y-120740942D01*
X108344033Y-120645704D01*
X108344033Y-120359990D01*
X108391652Y-120264752D01*
X108439271Y-120217133D01*
X108534509Y-120169514D01*
X108724985Y-120169514D01*
X108820223Y-120217133D01*
X109248795Y-120836180D02*
X109248795Y-119836180D01*
X109677366Y-120836180D02*
X109677366Y-120312371D01*
X109629747Y-120217133D01*
X109534509Y-120169514D01*
X109391652Y-120169514D01*
X109296414Y-120217133D01*
X109248795Y-120264752D01*
X110915461Y-120836180D02*
X110915461Y-119836180D01*
X111248795Y-120550466D01*
X111582128Y-119836180D01*
X111582128Y-120836180D01*
X112058319Y-120836180D02*
X112058319Y-120169514D01*
X112058319Y-119836180D02*
X112010700Y-119883800D01*
X112058319Y-119931419D01*
X112105938Y-119883800D01*
X112058319Y-119836180D01*
X112058319Y-119931419D01*
X112534509Y-120169514D02*
X112534509Y-120836180D01*
X112534509Y-120264752D02*
X112582128Y-120217133D01*
X112677366Y-120169514D01*
X112820223Y-120169514D01*
X112915461Y-120217133D01*
X112963080Y-120312371D01*
X112963080Y-120836180D01*
X113439271Y-120836180D02*
X113439271Y-120169514D01*
X113439271Y-119836180D02*
X113391652Y-119883800D01*
X113439271Y-119931419D01*
X113486890Y-119883800D01*
X113439271Y-119836180D01*
X113439271Y-119931419D01*
X113867842Y-120788561D02*
X114010700Y-120836180D01*
X114248795Y-120836180D01*
X114344033Y-120788561D01*
X114391652Y-120740942D01*
X114439271Y-120645704D01*
X114439271Y-120550466D01*
X114391652Y-120455228D01*
X114344033Y-120407609D01*
X114248795Y-120359990D01*
X114058319Y-120312371D01*
X113963080Y-120264752D01*
X113915461Y-120217133D01*
X113867842Y-120121895D01*
X113867842Y-120026657D01*
X113915461Y-119931419D01*
X113963080Y-119883800D01*
X114058319Y-119836180D01*
X114296414Y-119836180D01*
X114439271Y-119883800D01*
X114772604Y-120169514D02*
X114963080Y-120836180D01*
X115153557Y-120359990D01*
X115344033Y-120836180D01*
X115534509Y-120169514D01*
X115915461Y-120836180D02*
X115915461Y-120169514D01*
X115915461Y-119836180D02*
X115867842Y-119883800D01*
X115915461Y-119931419D01*
X115963080Y-119883800D01*
X115915461Y-119836180D01*
X115915461Y-119931419D01*
X116248795Y-120169514D02*
X116629747Y-120169514D01*
X116391652Y-119836180D02*
X116391652Y-120693323D01*
X116439271Y-120788561D01*
X116534509Y-120836180D01*
X116629747Y-120836180D01*
X117391652Y-120788561D02*
X117296414Y-120836180D01*
X117105938Y-120836180D01*
X117010700Y-120788561D01*
X116963080Y-120740942D01*
X116915461Y-120645704D01*
X116915461Y-120359990D01*
X116963080Y-120264752D01*
X117010700Y-120217133D01*
X117105938Y-120169514D01*
X117296414Y-120169514D01*
X117391652Y-120217133D01*
X117820223Y-120836180D02*
X117820223Y-119836180D01*
X118248795Y-120836180D02*
X118248795Y-120312371D01*
X118201176Y-120217133D01*
X118105938Y-120169514D01*
X117963080Y-120169514D01*
X117867842Y-120217133D01*
X117820223Y-120264752D01*
X101677366Y-122438561D02*
X101820223Y-122486180D01*
X102058319Y-122486180D01*
X102153557Y-122438561D01*
X102201176Y-122390942D01*
X102248795Y-122295704D01*
X102248795Y-122200466D01*
X102201176Y-122105228D01*
X102153557Y-122057609D01*
X102058319Y-122009990D01*
X101867842Y-121962371D01*
X101772604Y-121914752D01*
X101724985Y-121867133D01*
X101677366Y-121771895D01*
X101677366Y-121676657D01*
X101724985Y-121581419D01*
X101772604Y-121533800D01*
X101867842Y-121486180D01*
X102105938Y-121486180D01*
X102248795Y-121533800D01*
X102534509Y-121819514D02*
X102915461Y-121819514D01*
X102677366Y-121486180D02*
X102677366Y-122343323D01*
X102724985Y-122438561D01*
X102820223Y-122486180D01*
X102915461Y-122486180D01*
X103677366Y-122486180D02*
X103677366Y-121962371D01*
X103629747Y-121867133D01*
X103534509Y-121819514D01*
X103344033Y-121819514D01*
X103248795Y-121867133D01*
X103677366Y-122438561D02*
X103582128Y-122486180D01*
X103344033Y-122486180D01*
X103248795Y-122438561D01*
X103201176Y-122343323D01*
X103201176Y-122248085D01*
X103248795Y-122152847D01*
X103344033Y-122105228D01*
X103582128Y-122105228D01*
X103677366Y-122057609D01*
X104010700Y-121819514D02*
X104391652Y-121819514D01*
X104153557Y-121486180D02*
X104153557Y-122343323D01*
X104201176Y-122438561D01*
X104296414Y-122486180D01*
X104391652Y-122486180D01*
X104724985Y-122486180D02*
X104724985Y-121819514D01*
X104724985Y-121486180D02*
X104677366Y-121533800D01*
X104724985Y-121581419D01*
X104772604Y-121533800D01*
X104724985Y-121486180D01*
X104724985Y-121581419D01*
X105344033Y-122486180D02*
X105248795Y-122438561D01*
X105201176Y-122390942D01*
X105153557Y-122295704D01*
X105153557Y-122009990D01*
X105201176Y-121914752D01*
X105248795Y-121867133D01*
X105344033Y-121819514D01*
X105486890Y-121819514D01*
X105582128Y-121867133D01*
X105629747Y-121914752D01*
X105677366Y-122009990D01*
X105677366Y-122295704D01*
X105629747Y-122390942D01*
X105582128Y-122438561D01*
X105486890Y-122486180D01*
X105344033Y-122486180D01*
X106105938Y-121819514D02*
X106105938Y-122486180D01*
X106105938Y-121914752D02*
X106153557Y-121867133D01*
X106248795Y-121819514D01*
X106391652Y-121819514D01*
X106486890Y-121867133D01*
X106534509Y-121962371D01*
X106534509Y-122486180D01*
X107772604Y-122486180D02*
X107772604Y-121486180D01*
X108248795Y-121819514D02*
X108248795Y-122486180D01*
X108248795Y-121914752D02*
X108296414Y-121867133D01*
X108391652Y-121819514D01*
X108534509Y-121819514D01*
X108629747Y-121867133D01*
X108677366Y-121962371D01*
X108677366Y-122486180D01*
X109010700Y-121819514D02*
X109391652Y-121819514D01*
X109153557Y-121486180D02*
X109153557Y-122343323D01*
X109201176Y-122438561D01*
X109296414Y-122486180D01*
X109391652Y-122486180D01*
X110105938Y-122438561D02*
X110010700Y-122486180D01*
X109820223Y-122486180D01*
X109724985Y-122438561D01*
X109677366Y-122343323D01*
X109677366Y-121962371D01*
X109724985Y-121867133D01*
X109820223Y-121819514D01*
X110010700Y-121819514D01*
X110105938Y-121867133D01*
X110153557Y-121962371D01*
X110153557Y-122057609D01*
X109677366Y-122152847D01*
X110582128Y-122486180D02*
X110582128Y-121819514D01*
X110582128Y-122009990D02*
X110629747Y-121914752D01*
X110677366Y-121867133D01*
X110772604Y-121819514D01*
X110867842Y-121819514D01*
X111058319Y-121819514D02*
X111439271Y-121819514D01*
X111201176Y-122486180D02*
X111201176Y-121629038D01*
X111248795Y-121533800D01*
X111344033Y-121486180D01*
X111439271Y-121486180D01*
X112201176Y-122486180D02*
X112201176Y-121962371D01*
X112153557Y-121867133D01*
X112058319Y-121819514D01*
X111867842Y-121819514D01*
X111772604Y-121867133D01*
X112201176Y-122438561D02*
X112105938Y-122486180D01*
X111867842Y-122486180D01*
X111772604Y-122438561D01*
X111724985Y-122343323D01*
X111724985Y-122248085D01*
X111772604Y-122152847D01*
X111867842Y-122105228D01*
X112105938Y-122105228D01*
X112201176Y-122057609D01*
X113105938Y-122438561D02*
X113010700Y-122486180D01*
X112820223Y-122486180D01*
X112724985Y-122438561D01*
X112677366Y-122390942D01*
X112629747Y-122295704D01*
X112629747Y-122009990D01*
X112677366Y-121914752D01*
X112724985Y-121867133D01*
X112820223Y-121819514D01*
X113010700Y-121819514D01*
X113105938Y-121867133D01*
X113915461Y-122438561D02*
X113820223Y-122486180D01*
X113629747Y-122486180D01*
X113534509Y-122438561D01*
X113486890Y-122343323D01*
X113486890Y-121962371D01*
X113534509Y-121867133D01*
X113629747Y-121819514D01*
X113820223Y-121819514D01*
X113915461Y-121867133D01*
X113963080Y-121962371D01*
X113963080Y-122057609D01*
X113486890Y-122152847D01*
X115105938Y-122200466D02*
X115582128Y-122200466D01*
X115010700Y-122486180D02*
X115344033Y-121486180D01*
X115677366Y-122486180D01*
X116439271Y-122486180D02*
X116439271Y-121486180D01*
X116439271Y-122438561D02*
X116344033Y-122486180D01*
X116153557Y-122486180D01*
X116058319Y-122438561D01*
X116010700Y-122390942D01*
X115963080Y-122295704D01*
X115963080Y-122009990D01*
X116010700Y-121914752D01*
X116058319Y-121867133D01*
X116153557Y-121819514D01*
X116344033Y-121819514D01*
X116439271Y-121867133D01*
X117344033Y-122486180D02*
X117344033Y-121962371D01*
X117296414Y-121867133D01*
X117201176Y-121819514D01*
X117010700Y-121819514D01*
X116915461Y-121867133D01*
X117344033Y-122438561D02*
X117248795Y-122486180D01*
X117010700Y-122486180D01*
X116915461Y-122438561D01*
X116867842Y-122343323D01*
X116867842Y-122248085D01*
X116915461Y-122152847D01*
X117010700Y-122105228D01*
X117248795Y-122105228D01*
X117344033Y-122057609D01*
X117820223Y-121819514D02*
X117820223Y-122819514D01*
X117820223Y-121867133D02*
X117915461Y-121819514D01*
X118105938Y-121819514D01*
X118201176Y-121867133D01*
X118248795Y-121914752D01*
X118296414Y-122009990D01*
X118296414Y-122295704D01*
X118248795Y-122390942D01*
X118201176Y-122438561D01*
X118105938Y-122486180D01*
X117915461Y-122486180D01*
X117820223Y-122438561D01*
X118582128Y-121819514D02*
X118963080Y-121819514D01*
X118724985Y-121486180D02*
X118724985Y-122343323D01*
X118772604Y-122438561D01*
X118867842Y-122486180D01*
X118963080Y-122486180D01*
X119677366Y-122438561D02*
X119582128Y-122486180D01*
X119391652Y-122486180D01*
X119296414Y-122438561D01*
X119248795Y-122343323D01*
X119248795Y-121962371D01*
X119296414Y-121867133D01*
X119391652Y-121819514D01*
X119582128Y-121819514D01*
X119677366Y-121867133D01*
X119724985Y-121962371D01*
X119724985Y-122057609D01*
X119248795Y-122152847D01*
X120153557Y-122486180D02*
X120153557Y-121819514D01*
X120153557Y-122009990D02*
X120201176Y-121914752D01*
X120248795Y-121867133D01*
X120344033Y-121819514D01*
X120439271Y-121819514D01*
D11*
%TO.C,U2*%
X134482000Y-123403000D02*
X136282000Y-123403000D01*
X136282000Y-120183000D02*
X133832000Y-120183000D01*
%TO.C,U1*%
X143967000Y-120954500D02*
X141657000Y-120954500D01*
X141657000Y-120954500D02*
X141657000Y-121169500D01*
X143967000Y-120954500D02*
X146277000Y-120954500D01*
X146277000Y-120954500D02*
X146277000Y-121169500D01*
X143967000Y-123774500D02*
X141657000Y-123774500D01*
X141657000Y-123774500D02*
X141657000Y-123559500D01*
X143967000Y-123774500D02*
X146277000Y-123774500D01*
X146277000Y-123774500D02*
X146277000Y-123559500D01*
X146277000Y-123559500D02*
X147967000Y-123559500D01*
%TO.C,R10*%
X155579000Y-76247000D02*
X155579000Y-81487000D01*
X155579000Y-81487000D02*
X171319000Y-81487000D01*
X171319000Y-81487000D02*
X171319000Y-76247000D01*
X171319000Y-76247000D02*
X155579000Y-76247000D01*
X154729000Y-78867000D02*
X155579000Y-78867000D01*
X172169000Y-78867000D02*
X171319000Y-78867000D01*
%TO.C,R3*%
X155579000Y-120443000D02*
X155579000Y-125683000D01*
X155579000Y-125683000D02*
X171319000Y-125683000D01*
X171319000Y-125683000D02*
X171319000Y-120443000D01*
X171319000Y-120443000D02*
X155579000Y-120443000D01*
X154729000Y-123063000D02*
X155579000Y-123063000D01*
X172169000Y-123063000D02*
X171319000Y-123063000D01*
%TO.C,R2*%
X149315500Y-123115564D02*
X149315500Y-122661436D01*
X150785500Y-123115564D02*
X150785500Y-122661436D01*
%TO.C,R1*%
X137704564Y-118400500D02*
X137250436Y-118400500D01*
X137704564Y-116930500D02*
X137250436Y-116930500D01*
%TO.C,Q2*%
X182089000Y-89966500D02*
X182089000Y-90166500D01*
X182089000Y-90166500D02*
X186389000Y-90166500D01*
X186389000Y-90166500D02*
X186389000Y-90016500D01*
X186389000Y-85116500D02*
X186389000Y-84966500D01*
X186389000Y-84966500D02*
X182089000Y-84966500D01*
X182089000Y-84966500D02*
X182089000Y-85166500D01*
%TO.C,Q1*%
X182089000Y-116763500D02*
X182089000Y-116963500D01*
X182089000Y-116963500D02*
X186389000Y-116963500D01*
X186389000Y-116963500D02*
X186389000Y-116813500D01*
X186389000Y-111913500D02*
X186389000Y-111763500D01*
X186389000Y-111763500D02*
X182089000Y-111763500D01*
X182089000Y-111763500D02*
X182089000Y-111963500D01*
%TO.C,K5*%
X133116000Y-99711500D02*
X117836000Y-99711500D01*
X133096000Y-91931500D02*
X117836000Y-91931500D01*
X117836000Y-99711500D02*
X117836000Y-91931500D01*
X133116000Y-99711500D02*
X133116000Y-91931500D01*
X133336000Y-91711500D02*
X133336000Y-93901500D01*
X130996000Y-91711500D02*
X133336000Y-91711500D01*
X131226000Y-95411500D02*
X131226000Y-96111500D01*
X132426000Y-95411500D02*
X131226000Y-95411500D01*
X132426000Y-96111500D02*
X132426000Y-95411500D01*
X131226000Y-96111500D02*
X132426000Y-96111500D01*
X131626000Y-95411500D02*
X132026000Y-96111500D01*
%TO.C,K4*%
X134727000Y-76247000D02*
X150007000Y-76247000D01*
X134747000Y-84027000D02*
X150007000Y-84027000D01*
X150007000Y-76247000D02*
X150007000Y-84027000D01*
X134727000Y-76247000D02*
X134727000Y-84027000D01*
X134507000Y-84247000D02*
X134507000Y-82057000D01*
X136847000Y-84247000D02*
X134507000Y-84247000D01*
X136617000Y-80547000D02*
X136617000Y-79847000D01*
X135417000Y-80547000D02*
X136617000Y-80547000D01*
X135417000Y-79847000D02*
X135417000Y-80547000D01*
X136617000Y-79847000D02*
X135417000Y-79847000D01*
X136217000Y-80547000D02*
X135817000Y-79847000D01*
%TO.C,Ke*%
X169692000Y-104791500D02*
X154412000Y-104791500D01*
X169672000Y-97011500D02*
X154412000Y-97011500D01*
X154412000Y-104791500D02*
X154412000Y-97011500D01*
X169692000Y-104791500D02*
X169692000Y-97011500D01*
X169912000Y-96791500D02*
X169912000Y-98981500D01*
X167572000Y-96791500D02*
X169912000Y-96791500D01*
X167802000Y-100491500D02*
X167802000Y-101191500D01*
X169002000Y-100491500D02*
X167802000Y-100491500D01*
X169002000Y-101191500D02*
X169002000Y-100491500D01*
X167802000Y-101191500D02*
X169002000Y-101191500D01*
X168202000Y-100491500D02*
X168602000Y-101191500D01*
%TO.C,K2*%
X151404000Y-104791500D02*
X136124000Y-104791500D01*
X151384000Y-97011500D02*
X136124000Y-97011500D01*
X136124000Y-104791500D02*
X136124000Y-97011500D01*
X151404000Y-104791500D02*
X151404000Y-97011500D01*
X151624000Y-96791500D02*
X151624000Y-98981500D01*
X149284000Y-96791500D02*
X151624000Y-96791500D01*
X149514000Y-100491500D02*
X149514000Y-101191500D01*
X150714000Y-100491500D02*
X149514000Y-100491500D01*
X150714000Y-101191500D02*
X150714000Y-100491500D01*
X149514000Y-101191500D02*
X150714000Y-101191500D01*
X149914000Y-100491500D02*
X150314000Y-101191500D01*
%TO.C,K1*%
X133116000Y-109871500D02*
X117836000Y-109871500D01*
X133096000Y-102091500D02*
X117836000Y-102091500D01*
X117836000Y-109871500D02*
X117836000Y-102091500D01*
X133116000Y-109871500D02*
X133116000Y-102091500D01*
X133336000Y-101871500D02*
X133336000Y-104061500D01*
X130996000Y-101871500D02*
X133336000Y-101871500D01*
X131226000Y-105571500D02*
X131226000Y-106271500D01*
X132426000Y-105571500D02*
X131226000Y-105571500D01*
X132426000Y-106271500D02*
X132426000Y-105571500D01*
X131226000Y-106271500D02*
X132426000Y-106271500D01*
X131626000Y-105571500D02*
X132026000Y-106271500D01*
D12*
%TO.C,J2*%
X186904000Y-107002000D02*
X180594000Y-107002000D01*
X180594000Y-107002000D02*
X180594000Y-94932000D01*
X180594000Y-94932000D02*
X186904000Y-94932000D01*
X191904000Y-107002000D02*
X197104000Y-107002000D01*
X197104000Y-107002000D02*
X197104000Y-94932000D01*
X197104000Y-94932000D02*
X191904000Y-94932000D01*
D13*
%TO.C,F1*%
X102811000Y-81280000D02*
X102811000Y-81280000D01*
X111311000Y-81280000D02*
X111311000Y-81280000D01*
X102811000Y-81280000D02*
G75*
G02*
X111311000Y-81280000I4250000J0D01*
G01*
X111311000Y-81280000D02*
G75*
G02*
X102811000Y-81280000I-4250000J0D01*
G01*
D11*
%TO.C,D9*%
X130136000Y-90845500D02*
X130136000Y-88605500D01*
X130136000Y-88605500D02*
X125896000Y-88605500D01*
X125896000Y-88605500D02*
X125896000Y-90845500D01*
X125896000Y-90845500D02*
X130136000Y-90845500D01*
X130786000Y-89725500D02*
X130136000Y-89725500D01*
X125246000Y-89725500D02*
X125896000Y-89725500D01*
X129416000Y-90845500D02*
X129416000Y-88605500D01*
X129296000Y-90845500D02*
X129296000Y-88605500D01*
X129536000Y-90845500D02*
X129536000Y-88605500D01*
%TO.C,D8*%
X130706000Y-83527000D02*
X132946000Y-83527000D01*
X132946000Y-83527000D02*
X132946000Y-79287000D01*
X132946000Y-79287000D02*
X130706000Y-79287000D01*
X130706000Y-79287000D02*
X130706000Y-83527000D01*
X131826000Y-84177000D02*
X131826000Y-83527000D01*
X131826000Y-78637000D02*
X131826000Y-79287000D01*
X130706000Y-82807000D02*
X132946000Y-82807000D01*
X130706000Y-82687000D02*
X132946000Y-82687000D01*
X130706000Y-82927000D02*
X132946000Y-82927000D01*
%TO.C,D6*%
X179490000Y-77620000D02*
X179490000Y-79860000D01*
X179490000Y-79860000D02*
X183730000Y-79860000D01*
X183730000Y-79860000D02*
X183730000Y-77620000D01*
X183730000Y-77620000D02*
X179490000Y-77620000D01*
X178840000Y-78740000D02*
X179490000Y-78740000D01*
X184380000Y-78740000D02*
X183730000Y-78740000D01*
X180210000Y-77620000D02*
X180210000Y-79860000D01*
X180330000Y-77620000D02*
X180330000Y-79860000D01*
X180090000Y-77620000D02*
X180090000Y-79860000D01*
%TO.C,D5*%
X167282000Y-112356000D02*
X169522000Y-112356000D01*
X169522000Y-112356000D02*
X169522000Y-108116000D01*
X169522000Y-108116000D02*
X167282000Y-108116000D01*
X167282000Y-108116000D02*
X167282000Y-112356000D01*
X168402000Y-113006000D02*
X168402000Y-112356000D01*
X168402000Y-107466000D02*
X168402000Y-108116000D01*
X167282000Y-111636000D02*
X169522000Y-111636000D01*
X167282000Y-111516000D02*
X169522000Y-111516000D01*
X167282000Y-111756000D02*
X169522000Y-111756000D01*
%TO.C,D4*%
X145120500Y-112356000D02*
X147360500Y-112356000D01*
X147360500Y-112356000D02*
X147360500Y-108116000D01*
X147360500Y-108116000D02*
X145120500Y-108116000D01*
X145120500Y-108116000D02*
X145120500Y-112356000D01*
X146240500Y-113006000D02*
X146240500Y-112356000D01*
X146240500Y-107466000D02*
X146240500Y-108116000D01*
X145120500Y-111636000D02*
X147360500Y-111636000D01*
X145120500Y-111516000D02*
X147360500Y-111516000D01*
X145120500Y-111756000D02*
X147360500Y-111756000D01*
%TO.C,D3*%
X179490000Y-121943000D02*
X179490000Y-124183000D01*
X179490000Y-124183000D02*
X183730000Y-124183000D01*
X183730000Y-124183000D02*
X183730000Y-121943000D01*
X183730000Y-121943000D02*
X179490000Y-121943000D01*
X178840000Y-123063000D02*
X179490000Y-123063000D01*
X184380000Y-123063000D02*
X183730000Y-123063000D01*
X180210000Y-121943000D02*
X180210000Y-124183000D01*
X180330000Y-121943000D02*
X180330000Y-124183000D01*
X180090000Y-121943000D02*
X180090000Y-124183000D01*
%TO.C,D1*%
X142596500Y-116545500D02*
X142596500Y-118785500D01*
X142596500Y-118785500D02*
X146836500Y-118785500D01*
X146836500Y-118785500D02*
X146836500Y-116545500D01*
X146836500Y-116545500D02*
X142596500Y-116545500D01*
X141946500Y-117665500D02*
X142596500Y-117665500D01*
X147486500Y-117665500D02*
X146836500Y-117665500D01*
X143316500Y-116545500D02*
X143316500Y-118785500D01*
X143436500Y-116545500D02*
X143436500Y-118785500D01*
X143196500Y-116545500D02*
X143196500Y-118785500D01*
%TO.C,C8*%
X123524000Y-81280000D02*
G75*
G03*
X123524000Y-81280000I-5120000J0D01*
G01*
X118404000Y-86360000D02*
X118404000Y-76200000D01*
X118364000Y-86360000D02*
X118364000Y-76200000D01*
X118324000Y-86360000D02*
X118324000Y-76200000D01*
X118284000Y-86359000D02*
X118284000Y-76201000D01*
X118244000Y-86358000D02*
X118244000Y-76202000D01*
X118204000Y-86357000D02*
X118204000Y-76203000D01*
X118164000Y-86355000D02*
X118164000Y-76205000D01*
X118124000Y-86353000D02*
X118124000Y-76207000D01*
X118084000Y-86350000D02*
X118084000Y-76210000D01*
X118044000Y-86348000D02*
X118044000Y-76212000D01*
X118004000Y-86345000D02*
X118004000Y-76215000D01*
X117964000Y-86342000D02*
X117964000Y-76218000D01*
X117924000Y-86338000D02*
X117924000Y-76222000D01*
X117884000Y-86334000D02*
X117884000Y-76226000D01*
X117844000Y-86330000D02*
X117844000Y-76230000D01*
X117804000Y-86325000D02*
X117804000Y-76235000D01*
X117764000Y-86320000D02*
X117764000Y-76240000D01*
X117724000Y-86315000D02*
X117724000Y-76245000D01*
X117683000Y-86310000D02*
X117683000Y-76250000D01*
X117643000Y-86304000D02*
X117643000Y-76256000D01*
X117603000Y-86298000D02*
X117603000Y-76262000D01*
X117563000Y-86291000D02*
X117563000Y-76269000D01*
X117523000Y-86284000D02*
X117523000Y-76276000D01*
X117483000Y-86277000D02*
X117483000Y-76283000D01*
X117443000Y-86270000D02*
X117443000Y-76290000D01*
X117403000Y-86262000D02*
X117403000Y-76298000D01*
X117363000Y-86254000D02*
X117363000Y-76306000D01*
X117323000Y-86245000D02*
X117323000Y-76315000D01*
X117283000Y-86236000D02*
X117283000Y-76324000D01*
X117243000Y-86227000D02*
X117243000Y-76333000D01*
X117203000Y-86218000D02*
X117203000Y-76342000D01*
X117163000Y-86208000D02*
X117163000Y-76352000D01*
X117123000Y-86198000D02*
X117123000Y-82521000D01*
X117123000Y-80039000D02*
X117123000Y-76362000D01*
X117083000Y-86187000D02*
X117083000Y-82521000D01*
X117083000Y-80039000D02*
X117083000Y-76373000D01*
X117043000Y-86177000D02*
X117043000Y-82521000D01*
X117043000Y-80039000D02*
X117043000Y-76383000D01*
X117003000Y-86165000D02*
X117003000Y-82521000D01*
X117003000Y-80039000D02*
X117003000Y-76395000D01*
X116963000Y-86154000D02*
X116963000Y-82521000D01*
X116963000Y-80039000D02*
X116963000Y-76406000D01*
X116923000Y-86142000D02*
X116923000Y-82521000D01*
X116923000Y-80039000D02*
X116923000Y-76418000D01*
X116883000Y-86130000D02*
X116883000Y-82521000D01*
X116883000Y-80039000D02*
X116883000Y-76430000D01*
X116843000Y-86117000D02*
X116843000Y-82521000D01*
X116843000Y-80039000D02*
X116843000Y-76443000D01*
X116803000Y-86104000D02*
X116803000Y-82521000D01*
X116803000Y-80039000D02*
X116803000Y-76456000D01*
X116763000Y-86091000D02*
X116763000Y-82521000D01*
X116763000Y-80039000D02*
X116763000Y-76469000D01*
X116723000Y-86077000D02*
X116723000Y-82521000D01*
X116723000Y-80039000D02*
X116723000Y-76483000D01*
X116683000Y-86063000D02*
X116683000Y-82521000D01*
X116683000Y-80039000D02*
X116683000Y-76497000D01*
X116643000Y-86048000D02*
X116643000Y-82521000D01*
X116643000Y-80039000D02*
X116643000Y-76512000D01*
X116603000Y-86034000D02*
X116603000Y-82521000D01*
X116603000Y-80039000D02*
X116603000Y-76526000D01*
X116563000Y-86018000D02*
X116563000Y-82521000D01*
X116563000Y-80039000D02*
X116563000Y-76542000D01*
X116523000Y-86003000D02*
X116523000Y-82521000D01*
X116523000Y-80039000D02*
X116523000Y-76557000D01*
X116483000Y-85987000D02*
X116483000Y-82521000D01*
X116483000Y-80039000D02*
X116483000Y-76573000D01*
X116443000Y-85970000D02*
X116443000Y-82521000D01*
X116443000Y-80039000D02*
X116443000Y-76590000D01*
X116403000Y-85954000D02*
X116403000Y-82521000D01*
X116403000Y-80039000D02*
X116403000Y-76606000D01*
X116363000Y-85937000D02*
X116363000Y-82521000D01*
X116363000Y-80039000D02*
X116363000Y-76623000D01*
X116323000Y-85919000D02*
X116323000Y-82521000D01*
X116323000Y-80039000D02*
X116323000Y-76641000D01*
X116283000Y-85901000D02*
X116283000Y-82521000D01*
X116283000Y-80039000D02*
X116283000Y-76659000D01*
X116243000Y-85883000D02*
X116243000Y-82521000D01*
X116243000Y-80039000D02*
X116243000Y-76677000D01*
X116203000Y-85864000D02*
X116203000Y-82521000D01*
X116203000Y-80039000D02*
X116203000Y-76696000D01*
X116163000Y-85844000D02*
X116163000Y-82521000D01*
X116163000Y-80039000D02*
X116163000Y-76716000D01*
X116123000Y-85825000D02*
X116123000Y-82521000D01*
X116123000Y-80039000D02*
X116123000Y-76735000D01*
X116083000Y-85805000D02*
X116083000Y-82521000D01*
X116083000Y-80039000D02*
X116083000Y-76755000D01*
X116043000Y-85784000D02*
X116043000Y-82521000D01*
X116043000Y-80039000D02*
X116043000Y-76776000D01*
X116003000Y-85763000D02*
X116003000Y-82521000D01*
X116003000Y-80039000D02*
X116003000Y-76797000D01*
X115963000Y-85742000D02*
X115963000Y-82521000D01*
X115963000Y-80039000D02*
X115963000Y-76818000D01*
X115923000Y-85720000D02*
X115923000Y-82521000D01*
X115923000Y-80039000D02*
X115923000Y-76840000D01*
X115883000Y-85697000D02*
X115883000Y-82521000D01*
X115883000Y-80039000D02*
X115883000Y-76863000D01*
X115843000Y-85675000D02*
X115843000Y-82521000D01*
X115843000Y-80039000D02*
X115843000Y-76885000D01*
X115803000Y-85651000D02*
X115803000Y-82521000D01*
X115803000Y-80039000D02*
X115803000Y-76909000D01*
X115763000Y-85627000D02*
X115763000Y-82521000D01*
X115763000Y-80039000D02*
X115763000Y-76933000D01*
X115723000Y-85603000D02*
X115723000Y-82521000D01*
X115723000Y-80039000D02*
X115723000Y-76957000D01*
X115683000Y-85578000D02*
X115683000Y-82521000D01*
X115683000Y-80039000D02*
X115683000Y-76982000D01*
X115643000Y-85553000D02*
X115643000Y-82521000D01*
X115643000Y-80039000D02*
X115643000Y-77007000D01*
X115603000Y-85527000D02*
X115603000Y-82521000D01*
X115603000Y-80039000D02*
X115603000Y-77033000D01*
X115563000Y-85501000D02*
X115563000Y-82521000D01*
X115563000Y-80039000D02*
X115563000Y-77059000D01*
X115523000Y-85474000D02*
X115523000Y-82521000D01*
X115523000Y-80039000D02*
X115523000Y-77086000D01*
X115483000Y-85446000D02*
X115483000Y-82521000D01*
X115483000Y-80039000D02*
X115483000Y-77114000D01*
X115443000Y-85418000D02*
X115443000Y-82521000D01*
X115443000Y-80039000D02*
X115443000Y-77142000D01*
X115403000Y-85390000D02*
X115403000Y-82521000D01*
X115403000Y-80039000D02*
X115403000Y-77170000D01*
X115363000Y-85360000D02*
X115363000Y-82521000D01*
X115363000Y-80039000D02*
X115363000Y-77200000D01*
X115323000Y-85330000D02*
X115323000Y-82521000D01*
X115323000Y-80039000D02*
X115323000Y-77230000D01*
X115283000Y-85300000D02*
X115283000Y-82521000D01*
X115283000Y-80039000D02*
X115283000Y-77260000D01*
X115243000Y-85269000D02*
X115243000Y-82521000D01*
X115243000Y-80039000D02*
X115243000Y-77291000D01*
X115203000Y-85237000D02*
X115203000Y-82521000D01*
X115203000Y-80039000D02*
X115203000Y-77323000D01*
X115163000Y-85205000D02*
X115163000Y-82521000D01*
X115163000Y-80039000D02*
X115163000Y-77355000D01*
X115123000Y-85172000D02*
X115123000Y-82521000D01*
X115123000Y-80039000D02*
X115123000Y-77388000D01*
X115083000Y-85138000D02*
X115083000Y-82521000D01*
X115083000Y-80039000D02*
X115083000Y-77422000D01*
X115043000Y-85104000D02*
X115043000Y-82521000D01*
X115043000Y-80039000D02*
X115043000Y-77456000D01*
X115003000Y-85069000D02*
X115003000Y-82521000D01*
X115003000Y-80039000D02*
X115003000Y-77491000D01*
X114963000Y-85033000D02*
X114963000Y-82521000D01*
X114963000Y-80039000D02*
X114963000Y-77527000D01*
X114923000Y-84996000D02*
X114923000Y-82521000D01*
X114923000Y-80039000D02*
X114923000Y-77564000D01*
X114883000Y-84959000D02*
X114883000Y-82521000D01*
X114883000Y-80039000D02*
X114883000Y-77601000D01*
X114843000Y-84920000D02*
X114843000Y-82521000D01*
X114843000Y-80039000D02*
X114843000Y-77640000D01*
X114803000Y-84881000D02*
X114803000Y-82521000D01*
X114803000Y-80039000D02*
X114803000Y-77679000D01*
X114763000Y-84841000D02*
X114763000Y-82521000D01*
X114763000Y-80039000D02*
X114763000Y-77719000D01*
X114723000Y-84800000D02*
X114723000Y-82521000D01*
X114723000Y-80039000D02*
X114723000Y-77760000D01*
X114683000Y-84758000D02*
X114683000Y-82521000D01*
X114683000Y-80039000D02*
X114683000Y-77802000D01*
X114643000Y-84716000D02*
X114643000Y-77844000D01*
X114603000Y-84672000D02*
X114603000Y-77888000D01*
X114563000Y-84627000D02*
X114563000Y-77933000D01*
X114523000Y-84581000D02*
X114523000Y-77979000D01*
X114483000Y-84534000D02*
X114483000Y-78026000D01*
X114443000Y-84486000D02*
X114443000Y-78074000D01*
X114403000Y-84436000D02*
X114403000Y-78124000D01*
X114363000Y-84386000D02*
X114363000Y-78174000D01*
X114323000Y-84334000D02*
X114323000Y-78226000D01*
X114283000Y-84280000D02*
X114283000Y-78280000D01*
X114243000Y-84225000D02*
X114243000Y-78335000D01*
X114203000Y-84169000D02*
X114203000Y-78391000D01*
X114163000Y-84110000D02*
X114163000Y-78450000D01*
X114123000Y-84050000D02*
X114123000Y-78510000D01*
X114083000Y-83989000D02*
X114083000Y-78571000D01*
X114043000Y-83925000D02*
X114043000Y-78635000D01*
X114003000Y-83859000D02*
X114003000Y-78701000D01*
X113963000Y-83790000D02*
X113963000Y-78770000D01*
X113923000Y-83719000D02*
X113923000Y-78841000D01*
X113883000Y-83645000D02*
X113883000Y-78915000D01*
X113843000Y-83569000D02*
X113843000Y-78991000D01*
X113803000Y-83489000D02*
X113803000Y-79071000D01*
X113763000Y-83405000D02*
X113763000Y-79155000D01*
X113723000Y-83317000D02*
X113723000Y-79243000D01*
X113683000Y-83224000D02*
X113683000Y-79336000D01*
X113643000Y-83126000D02*
X113643000Y-79434000D01*
X113603000Y-83022000D02*
X113603000Y-79538000D01*
X113563000Y-82910000D02*
X113563000Y-79650000D01*
X113523000Y-82790000D02*
X113523000Y-79770000D01*
X113483000Y-82658000D02*
X113483000Y-79902000D01*
X113443000Y-82510000D02*
X113443000Y-80050000D01*
X113403000Y-82342000D02*
X113403000Y-80218000D01*
X113363000Y-82142000D02*
X113363000Y-80418000D01*
X113323000Y-81879000D02*
X113323000Y-80681000D01*
X123883646Y-84155000D02*
X122883646Y-84155000D01*
X123383646Y-84655000D02*
X123383646Y-83655000D01*
%TO.C,C6*%
X133787267Y-118175500D02*
X133494733Y-118175500D01*
X133787267Y-117155500D02*
X133494733Y-117155500D01*
%TO.C,C5*%
X129048500Y-121777000D02*
G75*
G03*
X129048500Y-121777000I-2620000J0D01*
G01*
X125388500Y-121777000D02*
X123848500Y-121777000D01*
X129008500Y-121777000D02*
X127468500Y-121777000D01*
X125388500Y-121817000D02*
X123848500Y-121817000D01*
X129008500Y-121817000D02*
X127468500Y-121817000D01*
X129007500Y-121857000D02*
X127468500Y-121857000D01*
X125388500Y-121857000D02*
X123849500Y-121857000D01*
X129006500Y-121897000D02*
X127468500Y-121897000D01*
X125388500Y-121897000D02*
X123850500Y-121897000D01*
X129004500Y-121937000D02*
X127468500Y-121937000D01*
X125388500Y-121937000D02*
X123852500Y-121937000D01*
X129001500Y-121977000D02*
X127468500Y-121977000D01*
X125388500Y-121977000D02*
X123855500Y-121977000D01*
X128997500Y-122017000D02*
X127468500Y-122017000D01*
X125388500Y-122017000D02*
X123859500Y-122017000D01*
X128993500Y-122057000D02*
X127468500Y-122057000D01*
X125388500Y-122057000D02*
X123863500Y-122057000D01*
X128989500Y-122097000D02*
X127468500Y-122097000D01*
X125388500Y-122097000D02*
X123867500Y-122097000D01*
X128984500Y-122137000D02*
X127468500Y-122137000D01*
X125388500Y-122137000D02*
X123872500Y-122137000D01*
X128978500Y-122177000D02*
X127468500Y-122177000D01*
X125388500Y-122177000D02*
X123878500Y-122177000D01*
X128971500Y-122217000D02*
X127468500Y-122217000D01*
X125388500Y-122217000D02*
X123885500Y-122217000D01*
X128964500Y-122257000D02*
X127468500Y-122257000D01*
X125388500Y-122257000D02*
X123892500Y-122257000D01*
X128956500Y-122297000D02*
X127468500Y-122297000D01*
X125388500Y-122297000D02*
X123900500Y-122297000D01*
X128948500Y-122337000D02*
X127468500Y-122337000D01*
X125388500Y-122337000D02*
X123908500Y-122337000D01*
X128939500Y-122377000D02*
X127468500Y-122377000D01*
X125388500Y-122377000D02*
X123917500Y-122377000D01*
X128929500Y-122417000D02*
X127468500Y-122417000D01*
X125388500Y-122417000D02*
X123927500Y-122417000D01*
X128919500Y-122457000D02*
X127468500Y-122457000D01*
X125388500Y-122457000D02*
X123937500Y-122457000D01*
X128908500Y-122498000D02*
X127468500Y-122498000D01*
X125388500Y-122498000D02*
X123948500Y-122498000D01*
X128896500Y-122538000D02*
X127468500Y-122538000D01*
X125388500Y-122538000D02*
X123960500Y-122538000D01*
X128883500Y-122578000D02*
X127468500Y-122578000D01*
X125388500Y-122578000D02*
X123973500Y-122578000D01*
X128870500Y-122618000D02*
X127468500Y-122618000D01*
X125388500Y-122618000D02*
X123986500Y-122618000D01*
X128856500Y-122658000D02*
X127468500Y-122658000D01*
X125388500Y-122658000D02*
X124000500Y-122658000D01*
X128842500Y-122698000D02*
X127468500Y-122698000D01*
X125388500Y-122698000D02*
X124014500Y-122698000D01*
X128826500Y-122738000D02*
X127468500Y-122738000D01*
X125388500Y-122738000D02*
X124030500Y-122738000D01*
X128810500Y-122778000D02*
X127468500Y-122778000D01*
X125388500Y-122778000D02*
X124046500Y-122778000D01*
X128793500Y-122818000D02*
X127468500Y-122818000D01*
X125388500Y-122818000D02*
X124063500Y-122818000D01*
X128776500Y-122858000D02*
X127468500Y-122858000D01*
X125388500Y-122858000D02*
X124080500Y-122858000D01*
X128757500Y-122898000D02*
X127468500Y-122898000D01*
X125388500Y-122898000D02*
X124099500Y-122898000D01*
X128738500Y-122938000D02*
X127468500Y-122938000D01*
X125388500Y-122938000D02*
X124118500Y-122938000D01*
X128718500Y-122978000D02*
X127468500Y-122978000D01*
X125388500Y-122978000D02*
X124138500Y-122978000D01*
X128696500Y-123018000D02*
X127468500Y-123018000D01*
X125388500Y-123018000D02*
X124160500Y-123018000D01*
X128675500Y-123058000D02*
X127468500Y-123058000D01*
X125388500Y-123058000D02*
X124181500Y-123058000D01*
X128652500Y-123098000D02*
X127468500Y-123098000D01*
X125388500Y-123098000D02*
X124204500Y-123098000D01*
X128628500Y-123138000D02*
X127468500Y-123138000D01*
X125388500Y-123138000D02*
X124228500Y-123138000D01*
X128603500Y-123178000D02*
X127468500Y-123178000D01*
X125388500Y-123178000D02*
X124253500Y-123178000D01*
X128577500Y-123218000D02*
X127468500Y-123218000D01*
X125388500Y-123218000D02*
X124279500Y-123218000D01*
X128550500Y-123258000D02*
X127468500Y-123258000D01*
X125388500Y-123258000D02*
X124306500Y-123258000D01*
X128523500Y-123298000D02*
X127468500Y-123298000D01*
X125388500Y-123298000D02*
X124333500Y-123298000D01*
X128493500Y-123338000D02*
X127468500Y-123338000D01*
X125388500Y-123338000D02*
X124363500Y-123338000D01*
X128463500Y-123378000D02*
X127468500Y-123378000D01*
X125388500Y-123378000D02*
X124393500Y-123378000D01*
X128432500Y-123418000D02*
X127468500Y-123418000D01*
X125388500Y-123418000D02*
X124424500Y-123418000D01*
X128399500Y-123458000D02*
X127468500Y-123458000D01*
X125388500Y-123458000D02*
X124457500Y-123458000D01*
X128365500Y-123498000D02*
X127468500Y-123498000D01*
X125388500Y-123498000D02*
X124491500Y-123498000D01*
X128329500Y-123538000D02*
X127468500Y-123538000D01*
X125388500Y-123538000D02*
X124527500Y-123538000D01*
X128292500Y-123578000D02*
X127468500Y-123578000D01*
X125388500Y-123578000D02*
X124564500Y-123578000D01*
X128254500Y-123618000D02*
X127468500Y-123618000D01*
X125388500Y-123618000D02*
X124602500Y-123618000D01*
X128213500Y-123658000D02*
X127468500Y-123658000D01*
X125388500Y-123658000D02*
X124643500Y-123658000D01*
X128171500Y-123698000D02*
X127468500Y-123698000D01*
X125388500Y-123698000D02*
X124685500Y-123698000D01*
X128127500Y-123738000D02*
X127468500Y-123738000D01*
X125388500Y-123738000D02*
X124729500Y-123738000D01*
X128081500Y-123778000D02*
X127468500Y-123778000D01*
X125388500Y-123778000D02*
X124775500Y-123778000D01*
X128033500Y-123818000D02*
X124823500Y-123818000D01*
X127982500Y-123858000D02*
X124874500Y-123858000D01*
X127928500Y-123898000D02*
X124928500Y-123898000D01*
X127871500Y-123938000D02*
X124985500Y-123938000D01*
X127811500Y-123978000D02*
X125045500Y-123978000D01*
X127747500Y-124018000D02*
X125109500Y-124018000D01*
X127679500Y-124058000D02*
X125177500Y-124058000D01*
X127606500Y-124098000D02*
X125250500Y-124098000D01*
X127526500Y-124138000D02*
X125330500Y-124138000D01*
X127439500Y-124178000D02*
X125417500Y-124178000D01*
X127343500Y-124218000D02*
X125513500Y-124218000D01*
X127233500Y-124258000D02*
X125623500Y-124258000D01*
X127105500Y-124298000D02*
X125751500Y-124298000D01*
X126946500Y-124338000D02*
X125910500Y-124338000D01*
X126712500Y-124378000D02*
X126144500Y-124378000D01*
X127903500Y-118972225D02*
X127903500Y-119472225D01*
X128153500Y-119222225D02*
X127653500Y-119222225D01*
%TO.C,C4*%
X177388000Y-89535000D02*
G75*
G03*
X177388000Y-89535000I-2620000J0D01*
G01*
X174768000Y-88495000D02*
X174768000Y-86955000D01*
X174768000Y-92115000D02*
X174768000Y-90575000D01*
X174728000Y-88495000D02*
X174728000Y-86955000D01*
X174728000Y-92115000D02*
X174728000Y-90575000D01*
X174688000Y-92114000D02*
X174688000Y-90575000D01*
X174688000Y-88495000D02*
X174688000Y-86956000D01*
X174648000Y-92113000D02*
X174648000Y-90575000D01*
X174648000Y-88495000D02*
X174648000Y-86957000D01*
X174608000Y-92111000D02*
X174608000Y-90575000D01*
X174608000Y-88495000D02*
X174608000Y-86959000D01*
X174568000Y-92108000D02*
X174568000Y-90575000D01*
X174568000Y-88495000D02*
X174568000Y-86962000D01*
X174528000Y-92104000D02*
X174528000Y-90575000D01*
X174528000Y-88495000D02*
X174528000Y-86966000D01*
X174488000Y-92100000D02*
X174488000Y-90575000D01*
X174488000Y-88495000D02*
X174488000Y-86970000D01*
X174448000Y-92096000D02*
X174448000Y-90575000D01*
X174448000Y-88495000D02*
X174448000Y-86974000D01*
X174408000Y-92091000D02*
X174408000Y-90575000D01*
X174408000Y-88495000D02*
X174408000Y-86979000D01*
X174368000Y-92085000D02*
X174368000Y-90575000D01*
X174368000Y-88495000D02*
X174368000Y-86985000D01*
X174328000Y-92078000D02*
X174328000Y-90575000D01*
X174328000Y-88495000D02*
X174328000Y-86992000D01*
X174288000Y-92071000D02*
X174288000Y-90575000D01*
X174288000Y-88495000D02*
X174288000Y-86999000D01*
X174248000Y-92063000D02*
X174248000Y-90575000D01*
X174248000Y-88495000D02*
X174248000Y-87007000D01*
X174208000Y-92055000D02*
X174208000Y-90575000D01*
X174208000Y-88495000D02*
X174208000Y-87015000D01*
X174168000Y-92046000D02*
X174168000Y-90575000D01*
X174168000Y-88495000D02*
X174168000Y-87024000D01*
X174128000Y-92036000D02*
X174128000Y-90575000D01*
X174128000Y-88495000D02*
X174128000Y-87034000D01*
X174088000Y-92026000D02*
X174088000Y-90575000D01*
X174088000Y-88495000D02*
X174088000Y-87044000D01*
X174047000Y-92015000D02*
X174047000Y-90575000D01*
X174047000Y-88495000D02*
X174047000Y-87055000D01*
X174007000Y-92003000D02*
X174007000Y-90575000D01*
X174007000Y-88495000D02*
X174007000Y-87067000D01*
X173967000Y-91990000D02*
X173967000Y-90575000D01*
X173967000Y-88495000D02*
X173967000Y-87080000D01*
X173927000Y-91977000D02*
X173927000Y-90575000D01*
X173927000Y-88495000D02*
X173927000Y-87093000D01*
X173887000Y-91963000D02*
X173887000Y-90575000D01*
X173887000Y-88495000D02*
X173887000Y-87107000D01*
X173847000Y-91949000D02*
X173847000Y-90575000D01*
X173847000Y-88495000D02*
X173847000Y-87121000D01*
X173807000Y-91933000D02*
X173807000Y-90575000D01*
X173807000Y-88495000D02*
X173807000Y-87137000D01*
X173767000Y-91917000D02*
X173767000Y-90575000D01*
X173767000Y-88495000D02*
X173767000Y-87153000D01*
X173727000Y-91900000D02*
X173727000Y-90575000D01*
X173727000Y-88495000D02*
X173727000Y-87170000D01*
X173687000Y-91883000D02*
X173687000Y-90575000D01*
X173687000Y-88495000D02*
X173687000Y-87187000D01*
X173647000Y-91864000D02*
X173647000Y-90575000D01*
X173647000Y-88495000D02*
X173647000Y-87206000D01*
X173607000Y-91845000D02*
X173607000Y-90575000D01*
X173607000Y-88495000D02*
X173607000Y-87225000D01*
X173567000Y-91825000D02*
X173567000Y-90575000D01*
X173567000Y-88495000D02*
X173567000Y-87245000D01*
X173527000Y-91803000D02*
X173527000Y-90575000D01*
X173527000Y-88495000D02*
X173527000Y-87267000D01*
X173487000Y-91782000D02*
X173487000Y-90575000D01*
X173487000Y-88495000D02*
X173487000Y-87288000D01*
X173447000Y-91759000D02*
X173447000Y-90575000D01*
X173447000Y-88495000D02*
X173447000Y-87311000D01*
X173407000Y-91735000D02*
X173407000Y-90575000D01*
X173407000Y-88495000D02*
X173407000Y-87335000D01*
X173367000Y-91710000D02*
X173367000Y-90575000D01*
X173367000Y-88495000D02*
X173367000Y-87360000D01*
X173327000Y-91684000D02*
X173327000Y-90575000D01*
X173327000Y-88495000D02*
X173327000Y-87386000D01*
X173287000Y-91657000D02*
X173287000Y-90575000D01*
X173287000Y-88495000D02*
X173287000Y-87413000D01*
X173247000Y-91630000D02*
X173247000Y-90575000D01*
X173247000Y-88495000D02*
X173247000Y-87440000D01*
X173207000Y-91600000D02*
X173207000Y-90575000D01*
X173207000Y-88495000D02*
X173207000Y-87470000D01*
X173167000Y-91570000D02*
X173167000Y-90575000D01*
X173167000Y-88495000D02*
X173167000Y-87500000D01*
X173127000Y-91539000D02*
X173127000Y-90575000D01*
X173127000Y-88495000D02*
X173127000Y-87531000D01*
X173087000Y-91506000D02*
X173087000Y-90575000D01*
X173087000Y-88495000D02*
X173087000Y-87564000D01*
X173047000Y-91472000D02*
X173047000Y-90575000D01*
X173047000Y-88495000D02*
X173047000Y-87598000D01*
X173007000Y-91436000D02*
X173007000Y-90575000D01*
X173007000Y-88495000D02*
X173007000Y-87634000D01*
X172967000Y-91399000D02*
X172967000Y-90575000D01*
X172967000Y-88495000D02*
X172967000Y-87671000D01*
X172927000Y-91361000D02*
X172927000Y-90575000D01*
X172927000Y-88495000D02*
X172927000Y-87709000D01*
X172887000Y-91320000D02*
X172887000Y-90575000D01*
X172887000Y-88495000D02*
X172887000Y-87750000D01*
X172847000Y-91278000D02*
X172847000Y-90575000D01*
X172847000Y-88495000D02*
X172847000Y-87792000D01*
X172807000Y-91234000D02*
X172807000Y-90575000D01*
X172807000Y-88495000D02*
X172807000Y-87836000D01*
X172767000Y-91188000D02*
X172767000Y-90575000D01*
X172767000Y-88495000D02*
X172767000Y-87882000D01*
X172727000Y-91140000D02*
X172727000Y-87930000D01*
X172687000Y-91089000D02*
X172687000Y-87981000D01*
X172647000Y-91035000D02*
X172647000Y-88035000D01*
X172607000Y-90978000D02*
X172607000Y-88092000D01*
X172567000Y-90918000D02*
X172567000Y-88152000D01*
X172527000Y-90854000D02*
X172527000Y-88216000D01*
X172487000Y-90786000D02*
X172487000Y-88284000D01*
X172447000Y-90713000D02*
X172447000Y-88357000D01*
X172407000Y-90633000D02*
X172407000Y-88437000D01*
X172367000Y-90546000D02*
X172367000Y-88524000D01*
X172327000Y-90450000D02*
X172327000Y-88620000D01*
X172287000Y-90340000D02*
X172287000Y-88730000D01*
X172247000Y-90212000D02*
X172247000Y-88858000D01*
X172207000Y-90053000D02*
X172207000Y-89017000D01*
X172167000Y-89819000D02*
X172167000Y-89251000D01*
X177572775Y-91010000D02*
X177072775Y-91010000D01*
X177322775Y-91260000D02*
X177322775Y-90760000D01*
%TO.C,C3*%
X177241000Y-98298000D02*
G75*
G03*
X177241000Y-98298000I-2120000J0D01*
G01*
X175121000Y-99138000D02*
X175121000Y-100378000D01*
X175121000Y-96218000D02*
X175121000Y-97458000D01*
X175161000Y-99138000D02*
X175161000Y-100378000D01*
X175161000Y-96218000D02*
X175161000Y-97458000D01*
X175201000Y-99138000D02*
X175201000Y-100377000D01*
X175201000Y-96219000D02*
X175201000Y-97458000D01*
X175241000Y-96221000D02*
X175241000Y-97458000D01*
X175241000Y-99138000D02*
X175241000Y-100375000D01*
X175281000Y-96224000D02*
X175281000Y-97458000D01*
X175281000Y-99138000D02*
X175281000Y-100372000D01*
X175321000Y-96227000D02*
X175321000Y-97458000D01*
X175321000Y-99138000D02*
X175321000Y-100369000D01*
X175361000Y-96231000D02*
X175361000Y-97458000D01*
X175361000Y-99138000D02*
X175361000Y-100365000D01*
X175401000Y-96236000D02*
X175401000Y-97458000D01*
X175401000Y-99138000D02*
X175401000Y-100360000D01*
X175441000Y-96242000D02*
X175441000Y-97458000D01*
X175441000Y-99138000D02*
X175441000Y-100354000D01*
X175481000Y-96248000D02*
X175481000Y-97458000D01*
X175481000Y-99138000D02*
X175481000Y-100348000D01*
X175521000Y-96256000D02*
X175521000Y-97458000D01*
X175521000Y-99138000D02*
X175521000Y-100340000D01*
X175561000Y-96264000D02*
X175561000Y-97458000D01*
X175561000Y-99138000D02*
X175561000Y-100332000D01*
X175601000Y-96273000D02*
X175601000Y-97458000D01*
X175601000Y-99138000D02*
X175601000Y-100323000D01*
X175641000Y-96282000D02*
X175641000Y-97458000D01*
X175641000Y-99138000D02*
X175641000Y-100314000D01*
X175681000Y-96293000D02*
X175681000Y-97458000D01*
X175681000Y-99138000D02*
X175681000Y-100303000D01*
X175721000Y-96304000D02*
X175721000Y-97458000D01*
X175721000Y-99138000D02*
X175721000Y-100292000D01*
X175761000Y-96316000D02*
X175761000Y-97458000D01*
X175761000Y-99138000D02*
X175761000Y-100280000D01*
X175801000Y-96330000D02*
X175801000Y-97458000D01*
X175801000Y-99138000D02*
X175801000Y-100266000D01*
X175842000Y-96344000D02*
X175842000Y-97458000D01*
X175842000Y-99138000D02*
X175842000Y-100252000D01*
X175882000Y-96358000D02*
X175882000Y-97458000D01*
X175882000Y-99138000D02*
X175882000Y-100238000D01*
X175922000Y-96374000D02*
X175922000Y-97458000D01*
X175922000Y-99138000D02*
X175922000Y-100222000D01*
X175962000Y-96391000D02*
X175962000Y-97458000D01*
X175962000Y-99138000D02*
X175962000Y-100205000D01*
X176002000Y-96409000D02*
X176002000Y-97458000D01*
X176002000Y-99138000D02*
X176002000Y-100187000D01*
X176042000Y-96428000D02*
X176042000Y-97458000D01*
X176042000Y-99138000D02*
X176042000Y-100168000D01*
X176082000Y-96447000D02*
X176082000Y-97458000D01*
X176082000Y-99138000D02*
X176082000Y-100149000D01*
X176122000Y-96468000D02*
X176122000Y-97458000D01*
X176122000Y-99138000D02*
X176122000Y-100128000D01*
X176162000Y-96490000D02*
X176162000Y-97458000D01*
X176162000Y-99138000D02*
X176162000Y-100106000D01*
X176202000Y-96513000D02*
X176202000Y-97458000D01*
X176202000Y-99138000D02*
X176202000Y-100083000D01*
X176242000Y-96538000D02*
X176242000Y-97458000D01*
X176242000Y-99138000D02*
X176242000Y-100058000D01*
X176282000Y-96563000D02*
X176282000Y-97458000D01*
X176282000Y-99138000D02*
X176282000Y-100033000D01*
X176322000Y-96590000D02*
X176322000Y-97458000D01*
X176322000Y-99138000D02*
X176322000Y-100006000D01*
X176362000Y-96618000D02*
X176362000Y-97458000D01*
X176362000Y-99138000D02*
X176362000Y-99978000D01*
X176402000Y-96648000D02*
X176402000Y-97458000D01*
X176402000Y-99138000D02*
X176402000Y-99948000D01*
X176442000Y-96679000D02*
X176442000Y-97458000D01*
X176442000Y-99138000D02*
X176442000Y-99917000D01*
X176482000Y-96711000D02*
X176482000Y-97458000D01*
X176482000Y-99138000D02*
X176482000Y-99885000D01*
X176522000Y-96746000D02*
X176522000Y-97458000D01*
X176522000Y-99138000D02*
X176522000Y-99850000D01*
X176562000Y-96782000D02*
X176562000Y-97458000D01*
X176562000Y-99138000D02*
X176562000Y-99814000D01*
X176602000Y-96820000D02*
X176602000Y-97458000D01*
X176602000Y-99138000D02*
X176602000Y-99776000D01*
X176642000Y-96860000D02*
X176642000Y-97458000D01*
X176642000Y-99138000D02*
X176642000Y-99736000D01*
X176682000Y-96902000D02*
X176682000Y-97458000D01*
X176682000Y-99138000D02*
X176682000Y-99694000D01*
X176722000Y-96947000D02*
X176722000Y-99649000D01*
X176762000Y-96994000D02*
X176762000Y-99602000D01*
X176802000Y-97044000D02*
X176802000Y-99552000D01*
X176842000Y-97098000D02*
X176842000Y-99498000D01*
X176882000Y-97156000D02*
X176882000Y-99440000D01*
X176922000Y-97218000D02*
X176922000Y-99378000D01*
X176962000Y-97285000D02*
X176962000Y-99311000D01*
X177002000Y-97358000D02*
X177002000Y-99238000D01*
X177042000Y-97439000D02*
X177042000Y-99157000D01*
X177082000Y-97530000D02*
X177082000Y-99066000D01*
X177122000Y-97634000D02*
X177122000Y-98962000D01*
X177162000Y-97761000D02*
X177162000Y-98835000D01*
X177202000Y-97928000D02*
X177202000Y-98668000D01*
X172851199Y-97103000D02*
X173251199Y-97103000D01*
X173051199Y-96903000D02*
X173051199Y-97303000D01*
%TO.C,C2*%
X177265000Y-103505000D02*
G75*
G03*
X177265000Y-103505000I-2120000J0D01*
G01*
X175145000Y-102665000D02*
X175145000Y-101425000D01*
X175145000Y-105585000D02*
X175145000Y-104345000D01*
X175105000Y-102665000D02*
X175105000Y-101425000D01*
X175105000Y-105585000D02*
X175105000Y-104345000D01*
X175065000Y-102665000D02*
X175065000Y-101426000D01*
X175065000Y-105584000D02*
X175065000Y-104345000D01*
X175025000Y-105582000D02*
X175025000Y-104345000D01*
X175025000Y-102665000D02*
X175025000Y-101428000D01*
X174985000Y-105579000D02*
X174985000Y-104345000D01*
X174985000Y-102665000D02*
X174985000Y-101431000D01*
X174945000Y-105576000D02*
X174945000Y-104345000D01*
X174945000Y-102665000D02*
X174945000Y-101434000D01*
X174905000Y-105572000D02*
X174905000Y-104345000D01*
X174905000Y-102665000D02*
X174905000Y-101438000D01*
X174865000Y-105567000D02*
X174865000Y-104345000D01*
X174865000Y-102665000D02*
X174865000Y-101443000D01*
X174825000Y-105561000D02*
X174825000Y-104345000D01*
X174825000Y-102665000D02*
X174825000Y-101449000D01*
X174785000Y-105555000D02*
X174785000Y-104345000D01*
X174785000Y-102665000D02*
X174785000Y-101455000D01*
X174745000Y-105547000D02*
X174745000Y-104345000D01*
X174745000Y-102665000D02*
X174745000Y-101463000D01*
X174705000Y-105539000D02*
X174705000Y-104345000D01*
X174705000Y-102665000D02*
X174705000Y-101471000D01*
X174665000Y-105530000D02*
X174665000Y-104345000D01*
X174665000Y-102665000D02*
X174665000Y-101480000D01*
X174625000Y-105521000D02*
X174625000Y-104345000D01*
X174625000Y-102665000D02*
X174625000Y-101489000D01*
X174585000Y-105510000D02*
X174585000Y-104345000D01*
X174585000Y-102665000D02*
X174585000Y-101500000D01*
X174545000Y-105499000D02*
X174545000Y-104345000D01*
X174545000Y-102665000D02*
X174545000Y-101511000D01*
X174505000Y-105487000D02*
X174505000Y-104345000D01*
X174505000Y-102665000D02*
X174505000Y-101523000D01*
X174465000Y-105473000D02*
X174465000Y-104345000D01*
X174465000Y-102665000D02*
X174465000Y-101537000D01*
X174424000Y-105459000D02*
X174424000Y-104345000D01*
X174424000Y-102665000D02*
X174424000Y-101551000D01*
X174384000Y-105445000D02*
X174384000Y-104345000D01*
X174384000Y-102665000D02*
X174384000Y-101565000D01*
X174344000Y-105429000D02*
X174344000Y-104345000D01*
X174344000Y-102665000D02*
X174344000Y-101581000D01*
X174304000Y-105412000D02*
X174304000Y-104345000D01*
X174304000Y-102665000D02*
X174304000Y-101598000D01*
X174264000Y-105394000D02*
X174264000Y-104345000D01*
X174264000Y-102665000D02*
X174264000Y-101616000D01*
X174224000Y-105375000D02*
X174224000Y-104345000D01*
X174224000Y-102665000D02*
X174224000Y-101635000D01*
X174184000Y-105356000D02*
X174184000Y-104345000D01*
X174184000Y-102665000D02*
X174184000Y-101654000D01*
X174144000Y-105335000D02*
X174144000Y-104345000D01*
X174144000Y-102665000D02*
X174144000Y-101675000D01*
X174104000Y-105313000D02*
X174104000Y-104345000D01*
X174104000Y-102665000D02*
X174104000Y-101697000D01*
X174064000Y-105290000D02*
X174064000Y-104345000D01*
X174064000Y-102665000D02*
X174064000Y-101720000D01*
X174024000Y-105265000D02*
X174024000Y-104345000D01*
X174024000Y-102665000D02*
X174024000Y-101745000D01*
X173984000Y-105240000D02*
X173984000Y-104345000D01*
X173984000Y-102665000D02*
X173984000Y-101770000D01*
X173944000Y-105213000D02*
X173944000Y-104345000D01*
X173944000Y-102665000D02*
X173944000Y-101797000D01*
X173904000Y-105185000D02*
X173904000Y-104345000D01*
X173904000Y-102665000D02*
X173904000Y-101825000D01*
X173864000Y-105155000D02*
X173864000Y-104345000D01*
X173864000Y-102665000D02*
X173864000Y-101855000D01*
X173824000Y-105124000D02*
X173824000Y-104345000D01*
X173824000Y-102665000D02*
X173824000Y-101886000D01*
X173784000Y-105092000D02*
X173784000Y-104345000D01*
X173784000Y-102665000D02*
X173784000Y-101918000D01*
X173744000Y-105057000D02*
X173744000Y-104345000D01*
X173744000Y-102665000D02*
X173744000Y-101953000D01*
X173704000Y-105021000D02*
X173704000Y-104345000D01*
X173704000Y-102665000D02*
X173704000Y-101989000D01*
X173664000Y-104983000D02*
X173664000Y-104345000D01*
X173664000Y-102665000D02*
X173664000Y-102027000D01*
X173624000Y-104943000D02*
X173624000Y-104345000D01*
X173624000Y-102665000D02*
X173624000Y-102067000D01*
X173584000Y-104901000D02*
X173584000Y-104345000D01*
X173584000Y-102665000D02*
X173584000Y-102109000D01*
X173544000Y-104856000D02*
X173544000Y-102154000D01*
X173504000Y-104809000D02*
X173504000Y-102201000D01*
X173464000Y-104759000D02*
X173464000Y-102251000D01*
X173424000Y-104705000D02*
X173424000Y-102305000D01*
X173384000Y-104647000D02*
X173384000Y-102363000D01*
X173344000Y-104585000D02*
X173344000Y-102425000D01*
X173304000Y-104518000D02*
X173304000Y-102492000D01*
X173264000Y-104445000D02*
X173264000Y-102565000D01*
X173224000Y-104364000D02*
X173224000Y-102646000D01*
X173184000Y-104273000D02*
X173184000Y-102737000D01*
X173144000Y-104169000D02*
X173144000Y-102841000D01*
X173104000Y-104042000D02*
X173104000Y-102968000D01*
X173064000Y-103875000D02*
X173064000Y-103135000D01*
X177414801Y-104700000D02*
X177014801Y-104700000D01*
X177214801Y-104900000D02*
X177214801Y-104500000D01*
%TO.C,C1*%
X177388000Y-116205000D02*
G75*
G03*
X177388000Y-116205000I-2620000J0D01*
G01*
X174768000Y-115165000D02*
X174768000Y-113625000D01*
X174768000Y-118785000D02*
X174768000Y-117245000D01*
X174728000Y-115165000D02*
X174728000Y-113625000D01*
X174728000Y-118785000D02*
X174728000Y-117245000D01*
X174688000Y-118784000D02*
X174688000Y-117245000D01*
X174688000Y-115165000D02*
X174688000Y-113626000D01*
X174648000Y-118783000D02*
X174648000Y-117245000D01*
X174648000Y-115165000D02*
X174648000Y-113627000D01*
X174608000Y-118781000D02*
X174608000Y-117245000D01*
X174608000Y-115165000D02*
X174608000Y-113629000D01*
X174568000Y-118778000D02*
X174568000Y-117245000D01*
X174568000Y-115165000D02*
X174568000Y-113632000D01*
X174528000Y-118774000D02*
X174528000Y-117245000D01*
X174528000Y-115165000D02*
X174528000Y-113636000D01*
X174488000Y-118770000D02*
X174488000Y-117245000D01*
X174488000Y-115165000D02*
X174488000Y-113640000D01*
X174448000Y-118766000D02*
X174448000Y-117245000D01*
X174448000Y-115165000D02*
X174448000Y-113644000D01*
X174408000Y-118761000D02*
X174408000Y-117245000D01*
X174408000Y-115165000D02*
X174408000Y-113649000D01*
X174368000Y-118755000D02*
X174368000Y-117245000D01*
X174368000Y-115165000D02*
X174368000Y-113655000D01*
X174328000Y-118748000D02*
X174328000Y-117245000D01*
X174328000Y-115165000D02*
X174328000Y-113662000D01*
X174288000Y-118741000D02*
X174288000Y-117245000D01*
X174288000Y-115165000D02*
X174288000Y-113669000D01*
X174248000Y-118733000D02*
X174248000Y-117245000D01*
X174248000Y-115165000D02*
X174248000Y-113677000D01*
X174208000Y-118725000D02*
X174208000Y-117245000D01*
X174208000Y-115165000D02*
X174208000Y-113685000D01*
X174168000Y-118716000D02*
X174168000Y-117245000D01*
X174168000Y-115165000D02*
X174168000Y-113694000D01*
X174128000Y-118706000D02*
X174128000Y-117245000D01*
X174128000Y-115165000D02*
X174128000Y-113704000D01*
X174088000Y-118696000D02*
X174088000Y-117245000D01*
X174088000Y-115165000D02*
X174088000Y-113714000D01*
X174047000Y-118685000D02*
X174047000Y-117245000D01*
X174047000Y-115165000D02*
X174047000Y-113725000D01*
X174007000Y-118673000D02*
X174007000Y-117245000D01*
X174007000Y-115165000D02*
X174007000Y-113737000D01*
X173967000Y-118660000D02*
X173967000Y-117245000D01*
X173967000Y-115165000D02*
X173967000Y-113750000D01*
X173927000Y-118647000D02*
X173927000Y-117245000D01*
X173927000Y-115165000D02*
X173927000Y-113763000D01*
X173887000Y-118633000D02*
X173887000Y-117245000D01*
X173887000Y-115165000D02*
X173887000Y-113777000D01*
X173847000Y-118619000D02*
X173847000Y-117245000D01*
X173847000Y-115165000D02*
X173847000Y-113791000D01*
X173807000Y-118603000D02*
X173807000Y-117245000D01*
X173807000Y-115165000D02*
X173807000Y-113807000D01*
X173767000Y-118587000D02*
X173767000Y-117245000D01*
X173767000Y-115165000D02*
X173767000Y-113823000D01*
X173727000Y-118570000D02*
X173727000Y-117245000D01*
X173727000Y-115165000D02*
X173727000Y-113840000D01*
X173687000Y-118553000D02*
X173687000Y-117245000D01*
X173687000Y-115165000D02*
X173687000Y-113857000D01*
X173647000Y-118534000D02*
X173647000Y-117245000D01*
X173647000Y-115165000D02*
X173647000Y-113876000D01*
X173607000Y-118515000D02*
X173607000Y-117245000D01*
X173607000Y-115165000D02*
X173607000Y-113895000D01*
X173567000Y-118495000D02*
X173567000Y-117245000D01*
X173567000Y-115165000D02*
X173567000Y-113915000D01*
X173527000Y-118473000D02*
X173527000Y-117245000D01*
X173527000Y-115165000D02*
X173527000Y-113937000D01*
X173487000Y-118452000D02*
X173487000Y-117245000D01*
X173487000Y-115165000D02*
X173487000Y-113958000D01*
X173447000Y-118429000D02*
X173447000Y-117245000D01*
X173447000Y-115165000D02*
X173447000Y-113981000D01*
X173407000Y-118405000D02*
X173407000Y-117245000D01*
X173407000Y-115165000D02*
X173407000Y-114005000D01*
X173367000Y-118380000D02*
X173367000Y-117245000D01*
X173367000Y-115165000D02*
X173367000Y-114030000D01*
X173327000Y-118354000D02*
X173327000Y-117245000D01*
X173327000Y-115165000D02*
X173327000Y-114056000D01*
X173287000Y-118327000D02*
X173287000Y-117245000D01*
X173287000Y-115165000D02*
X173287000Y-114083000D01*
X173247000Y-118300000D02*
X173247000Y-117245000D01*
X173247000Y-115165000D02*
X173247000Y-114110000D01*
X173207000Y-118270000D02*
X173207000Y-117245000D01*
X173207000Y-115165000D02*
X173207000Y-114140000D01*
X173167000Y-118240000D02*
X173167000Y-117245000D01*
X173167000Y-115165000D02*
X173167000Y-114170000D01*
X173127000Y-118209000D02*
X173127000Y-117245000D01*
X173127000Y-115165000D02*
X173127000Y-114201000D01*
X173087000Y-118176000D02*
X173087000Y-117245000D01*
X173087000Y-115165000D02*
X173087000Y-114234000D01*
X173047000Y-118142000D02*
X173047000Y-117245000D01*
X173047000Y-115165000D02*
X173047000Y-114268000D01*
X173007000Y-118106000D02*
X173007000Y-117245000D01*
X173007000Y-115165000D02*
X173007000Y-114304000D01*
X172967000Y-118069000D02*
X172967000Y-117245000D01*
X172967000Y-115165000D02*
X172967000Y-114341000D01*
X172927000Y-118031000D02*
X172927000Y-117245000D01*
X172927000Y-115165000D02*
X172927000Y-114379000D01*
X172887000Y-117990000D02*
X172887000Y-117245000D01*
X172887000Y-115165000D02*
X172887000Y-114420000D01*
X172847000Y-117948000D02*
X172847000Y-117245000D01*
X172847000Y-115165000D02*
X172847000Y-114462000D01*
X172807000Y-117904000D02*
X172807000Y-117245000D01*
X172807000Y-115165000D02*
X172807000Y-114506000D01*
X172767000Y-117858000D02*
X172767000Y-117245000D01*
X172767000Y-115165000D02*
X172767000Y-114552000D01*
X172727000Y-117810000D02*
X172727000Y-114600000D01*
X172687000Y-117759000D02*
X172687000Y-114651000D01*
X172647000Y-117705000D02*
X172647000Y-114705000D01*
X172607000Y-117648000D02*
X172607000Y-114762000D01*
X172567000Y-117588000D02*
X172567000Y-114822000D01*
X172527000Y-117524000D02*
X172527000Y-114886000D01*
X172487000Y-117456000D02*
X172487000Y-114954000D01*
X172447000Y-117383000D02*
X172447000Y-115027000D01*
X172407000Y-117303000D02*
X172407000Y-115107000D01*
X172367000Y-117216000D02*
X172367000Y-115194000D01*
X172327000Y-117120000D02*
X172327000Y-115290000D01*
X172287000Y-117010000D02*
X172287000Y-115400000D01*
X172247000Y-116882000D02*
X172247000Y-115528000D01*
X172207000Y-116723000D02*
X172207000Y-115687000D01*
X172167000Y-116489000D02*
X172167000Y-115921000D01*
X177572775Y-117680000D02*
X177072775Y-117680000D01*
X177322775Y-117930000D02*
X177322775Y-117430000D01*
%TO.C,H4*%
D10*
X94615095Y-82799180D02*
X94615095Y-81799180D01*
X94615095Y-82275371D02*
X95186523Y-82275371D01*
X95186523Y-82799180D02*
X95186523Y-81799180D01*
X96091285Y-82132514D02*
X96091285Y-82799180D01*
X95853190Y-81751561D02*
X95615095Y-82465847D01*
X96234142Y-82465847D01*
%TO.C,H3*%
X94615095Y-120069380D02*
X94615095Y-119069380D01*
X94615095Y-119545571D02*
X95186523Y-119545571D01*
X95186523Y-120069380D02*
X95186523Y-119069380D01*
X95567476Y-119069380D02*
X96186523Y-119069380D01*
X95853190Y-119450333D01*
X95996047Y-119450333D01*
X96091285Y-119497952D01*
X96138904Y-119545571D01*
X96186523Y-119640809D01*
X96186523Y-119878904D01*
X96138904Y-119974142D01*
X96091285Y-120021761D01*
X95996047Y-120069380D01*
X95710333Y-120069380D01*
X95615095Y-120021761D01*
X95567476Y-119974142D01*
%TO.C,U2*%
X134620095Y-124064780D02*
X134620095Y-124874304D01*
X134667714Y-124969542D01*
X134715333Y-125017161D01*
X134810571Y-125064780D01*
X135001047Y-125064780D01*
X135096285Y-125017161D01*
X135143904Y-124969542D01*
X135191523Y-124874304D01*
X135191523Y-124064780D01*
X135620095Y-124160019D02*
X135667714Y-124112400D01*
X135762952Y-124064780D01*
X136001047Y-124064780D01*
X136096285Y-124112400D01*
X136143904Y-124160019D01*
X136191523Y-124255257D01*
X136191523Y-124350495D01*
X136143904Y-124493352D01*
X135572476Y-125064780D01*
X136191523Y-125064780D01*
%TO.C,U1*%
X143205095Y-124064780D02*
X143205095Y-124874304D01*
X143252714Y-124969542D01*
X143300333Y-125017161D01*
X143395571Y-125064780D01*
X143586047Y-125064780D01*
X143681285Y-125017161D01*
X143728904Y-124969542D01*
X143776523Y-124874304D01*
X143776523Y-124064780D01*
X144776523Y-125064780D02*
X144205095Y-125064780D01*
X144490809Y-125064780D02*
X144490809Y-124064780D01*
X144395571Y-124207638D01*
X144300333Y-124302876D01*
X144205095Y-124350495D01*
%TO.C,R10*%
X162806142Y-79319380D02*
X162472809Y-78843190D01*
X162234714Y-79319380D02*
X162234714Y-78319380D01*
X162615666Y-78319380D01*
X162710904Y-78367000D01*
X162758523Y-78414619D01*
X162806142Y-78509857D01*
X162806142Y-78652714D01*
X162758523Y-78747952D01*
X162710904Y-78795571D01*
X162615666Y-78843190D01*
X162234714Y-78843190D01*
X163758523Y-79319380D02*
X163187095Y-79319380D01*
X163472809Y-79319380D02*
X163472809Y-78319380D01*
X163377571Y-78462238D01*
X163282333Y-78557476D01*
X163187095Y-78605095D01*
X164377571Y-78319380D02*
X164472809Y-78319380D01*
X164568047Y-78367000D01*
X164615666Y-78414619D01*
X164663285Y-78509857D01*
X164710904Y-78700333D01*
X164710904Y-78938428D01*
X164663285Y-79128904D01*
X164615666Y-79224142D01*
X164568047Y-79271761D01*
X164472809Y-79319380D01*
X164377571Y-79319380D01*
X164282333Y-79271761D01*
X164234714Y-79224142D01*
X164187095Y-79128904D01*
X164139476Y-78938428D01*
X164139476Y-78700333D01*
X164187095Y-78509857D01*
X164234714Y-78414619D01*
X164282333Y-78367000D01*
X164377571Y-78319380D01*
%TO.C,R3*%
X163282333Y-123515380D02*
X162949000Y-123039190D01*
X162710904Y-123515380D02*
X162710904Y-122515380D01*
X163091857Y-122515380D01*
X163187095Y-122563000D01*
X163234714Y-122610619D01*
X163282333Y-122705857D01*
X163282333Y-122848714D01*
X163234714Y-122943952D01*
X163187095Y-122991571D01*
X163091857Y-123039190D01*
X162710904Y-123039190D01*
X163615666Y-122515380D02*
X164234714Y-122515380D01*
X163901380Y-122896333D01*
X164044238Y-122896333D01*
X164139476Y-122943952D01*
X164187095Y-122991571D01*
X164234714Y-123086809D01*
X164234714Y-123324904D01*
X164187095Y-123420142D01*
X164139476Y-123467761D01*
X164044238Y-123515380D01*
X163758523Y-123515380D01*
X163663285Y-123467761D01*
X163615666Y-123420142D01*
%TO.C,R2*%
X150490180Y-120283266D02*
X150013990Y-120616600D01*
X150490180Y-120854695D02*
X149490180Y-120854695D01*
X149490180Y-120473742D01*
X149537800Y-120378504D01*
X149585419Y-120330885D01*
X149680657Y-120283266D01*
X149823514Y-120283266D01*
X149918752Y-120330885D01*
X149966371Y-120378504D01*
X150013990Y-120473742D01*
X150013990Y-120854695D01*
X149585419Y-119902314D02*
X149537800Y-119854695D01*
X149490180Y-119759457D01*
X149490180Y-119521361D01*
X149537800Y-119426123D01*
X149585419Y-119378504D01*
X149680657Y-119330885D01*
X149775895Y-119330885D01*
X149918752Y-119378504D01*
X150490180Y-119949933D01*
X150490180Y-119330885D01*
%TO.C,R1*%
X137310833Y-116276380D02*
X136977500Y-115800190D01*
X136739404Y-116276380D02*
X136739404Y-115276380D01*
X137120357Y-115276380D01*
X137215595Y-115324000D01*
X137263214Y-115371619D01*
X137310833Y-115466857D01*
X137310833Y-115609714D01*
X137263214Y-115704952D01*
X137215595Y-115752571D01*
X137120357Y-115800190D01*
X136739404Y-115800190D01*
X138263214Y-116276380D02*
X137691785Y-116276380D01*
X137977500Y-116276380D02*
X137977500Y-115276380D01*
X137882261Y-115419238D01*
X137787023Y-115514476D01*
X137691785Y-115562095D01*
%TO.C,Q2*%
X184063761Y-84634119D02*
X183968523Y-84586500D01*
X183873285Y-84491261D01*
X183730428Y-84348404D01*
X183635190Y-84300785D01*
X183539952Y-84300785D01*
X183587571Y-84538880D02*
X183492333Y-84491261D01*
X183397095Y-84396023D01*
X183349476Y-84205547D01*
X183349476Y-83872214D01*
X183397095Y-83681738D01*
X183492333Y-83586500D01*
X183587571Y-83538880D01*
X183778047Y-83538880D01*
X183873285Y-83586500D01*
X183968523Y-83681738D01*
X184016142Y-83872214D01*
X184016142Y-84205547D01*
X183968523Y-84396023D01*
X183873285Y-84491261D01*
X183778047Y-84538880D01*
X183587571Y-84538880D01*
X184397095Y-83634119D02*
X184444714Y-83586500D01*
X184539952Y-83538880D01*
X184778047Y-83538880D01*
X184873285Y-83586500D01*
X184920904Y-83634119D01*
X184968523Y-83729357D01*
X184968523Y-83824595D01*
X184920904Y-83967452D01*
X184349476Y-84538880D01*
X184968523Y-84538880D01*
%TO.C,Q1*%
X184063761Y-111431119D02*
X183968523Y-111383500D01*
X183873285Y-111288261D01*
X183730428Y-111145404D01*
X183635190Y-111097785D01*
X183539952Y-111097785D01*
X183587571Y-111335880D02*
X183492333Y-111288261D01*
X183397095Y-111193023D01*
X183349476Y-111002547D01*
X183349476Y-110669214D01*
X183397095Y-110478738D01*
X183492333Y-110383500D01*
X183587571Y-110335880D01*
X183778047Y-110335880D01*
X183873285Y-110383500D01*
X183968523Y-110478738D01*
X184016142Y-110669214D01*
X184016142Y-111002547D01*
X183968523Y-111193023D01*
X183873285Y-111288261D01*
X183778047Y-111335880D01*
X183587571Y-111335880D01*
X184968523Y-111335880D02*
X184397095Y-111335880D01*
X184682809Y-111335880D02*
X184682809Y-110335880D01*
X184587571Y-110478738D01*
X184492333Y-110573976D01*
X184397095Y-110621595D01*
%TO.C,K5*%
X135278380Y-97019595D02*
X134278380Y-97019595D01*
X135278380Y-96448166D02*
X134706952Y-96876738D01*
X134278380Y-96448166D02*
X134849809Y-97019595D01*
X134278380Y-95543404D02*
X134278380Y-96019595D01*
X134754571Y-96067214D01*
X134706952Y-96019595D01*
X134659333Y-95924357D01*
X134659333Y-95686261D01*
X134706952Y-95591023D01*
X134754571Y-95543404D01*
X134849809Y-95495785D01*
X135087904Y-95495785D01*
X135183142Y-95543404D01*
X135230761Y-95591023D01*
X135278380Y-95686261D01*
X135278380Y-95924357D01*
X135230761Y-96019595D01*
X135183142Y-96067214D01*
%TO.C,K4*%
X134386580Y-80875095D02*
X133386580Y-80875095D01*
X134386580Y-80303666D02*
X133815152Y-80732238D01*
X133386580Y-80303666D02*
X133958009Y-80875095D01*
X133719914Y-79446523D02*
X134386580Y-79446523D01*
X133338961Y-79684619D02*
X134053247Y-79922714D01*
X134053247Y-79303666D01*
%TO.C,Ke*%
X171854380Y-102051976D02*
X170854380Y-102051976D01*
X171854380Y-101480547D02*
X171282952Y-101909119D01*
X170854380Y-101480547D02*
X171425809Y-102051976D01*
X171806761Y-100671023D02*
X171854380Y-100766261D01*
X171854380Y-100956738D01*
X171806761Y-101051976D01*
X171711523Y-101099595D01*
X171330571Y-101099595D01*
X171235333Y-101051976D01*
X171187714Y-100956738D01*
X171187714Y-100766261D01*
X171235333Y-100671023D01*
X171330571Y-100623404D01*
X171425809Y-100623404D01*
X171521047Y-101099595D01*
%TO.C,K2*%
X153566380Y-102099595D02*
X152566380Y-102099595D01*
X153566380Y-101528166D02*
X152994952Y-101956738D01*
X152566380Y-101528166D02*
X153137809Y-102099595D01*
X152661619Y-101147214D02*
X152614000Y-101099595D01*
X152566380Y-101004357D01*
X152566380Y-100766261D01*
X152614000Y-100671023D01*
X152661619Y-100623404D01*
X152756857Y-100575785D01*
X152852095Y-100575785D01*
X152994952Y-100623404D01*
X153566380Y-101194833D01*
X153566380Y-100575785D01*
%TO.C,K1*%
X135278380Y-107179595D02*
X134278380Y-107179595D01*
X135278380Y-106608166D02*
X134706952Y-107036738D01*
X134278380Y-106608166D02*
X134849809Y-107179595D01*
X135278380Y-105655785D02*
X135278380Y-106227214D01*
X135278380Y-105941500D02*
X134278380Y-105941500D01*
X134421238Y-106036738D01*
X134516476Y-106131976D01*
X134564095Y-106227214D01*
%TO.C,J2*%
D14*
X188153523Y-101395333D02*
X189060666Y-101395333D01*
X189242095Y-101455809D01*
X189363047Y-101576761D01*
X189423523Y-101758190D01*
X189423523Y-101879142D01*
X188274476Y-100851047D02*
X188214000Y-100790571D01*
X188153523Y-100669619D01*
X188153523Y-100367238D01*
X188214000Y-100246285D01*
X188274476Y-100185809D01*
X188395428Y-100125333D01*
X188516380Y-100125333D01*
X188697809Y-100185809D01*
X189423523Y-100911523D01*
X189423523Y-100125333D01*
%TO.C,H2*%
D10*
X187198095Y-121026180D02*
X187198095Y-120026180D01*
X187198095Y-120502371D02*
X187769523Y-120502371D01*
X187769523Y-121026180D02*
X187769523Y-120026180D01*
X188198095Y-120121419D02*
X188245714Y-120073800D01*
X188340952Y-120026180D01*
X188579047Y-120026180D01*
X188674285Y-120073800D01*
X188721904Y-120121419D01*
X188769523Y-120216657D01*
X188769523Y-120311895D01*
X188721904Y-120454752D01*
X188150476Y-121026180D01*
X188769523Y-121026180D01*
%TO.C,H1*%
X187198095Y-81732380D02*
X187198095Y-80732380D01*
X187198095Y-81208571D02*
X187769523Y-81208571D01*
X187769523Y-81732380D02*
X187769523Y-80732380D01*
X188769523Y-81732380D02*
X188198095Y-81732380D01*
X188483809Y-81732380D02*
X188483809Y-80732380D01*
X188388571Y-80875238D01*
X188293333Y-80970476D01*
X188198095Y-81018095D01*
%TO.C,F1*%
D14*
X106637666Y-81189285D02*
X106214333Y-81189285D01*
X106214333Y-81854523D02*
X106214333Y-80584523D01*
X106819095Y-80584523D01*
X107968142Y-81854523D02*
X107242428Y-81854523D01*
X107605285Y-81854523D02*
X107605285Y-80584523D01*
X107484333Y-80765952D01*
X107363380Y-80886904D01*
X107242428Y-80947380D01*
%TO.C,D9*%
D10*
X127277904Y-88133180D02*
X127277904Y-87133180D01*
X127516000Y-87133180D01*
X127658857Y-87180800D01*
X127754095Y-87276038D01*
X127801714Y-87371276D01*
X127849333Y-87561752D01*
X127849333Y-87704609D01*
X127801714Y-87895085D01*
X127754095Y-87990323D01*
X127658857Y-88085561D01*
X127516000Y-88133180D01*
X127277904Y-88133180D01*
X128325523Y-88133180D02*
X128516000Y-88133180D01*
X128611238Y-88085561D01*
X128658857Y-88037942D01*
X128754095Y-87895085D01*
X128801714Y-87704609D01*
X128801714Y-87323657D01*
X128754095Y-87228419D01*
X128706476Y-87180800D01*
X128611238Y-87133180D01*
X128420761Y-87133180D01*
X128325523Y-87180800D01*
X128277904Y-87228419D01*
X128230285Y-87323657D01*
X128230285Y-87561752D01*
X128277904Y-87656990D01*
X128325523Y-87704609D01*
X128420761Y-87752228D01*
X128611238Y-87752228D01*
X128706476Y-87704609D01*
X128754095Y-87656990D01*
X128801714Y-87561752D01*
X131564095Y-88133180D02*
X131564095Y-87133180D01*
X132135523Y-88133180D02*
X131706952Y-87561752D01*
X132135523Y-87133180D02*
X131564095Y-87704609D01*
%TO.C,D8*%
X130144780Y-82145095D02*
X129144780Y-82145095D01*
X129144780Y-81907000D01*
X129192400Y-81764142D01*
X129287638Y-81668904D01*
X129382876Y-81621285D01*
X129573352Y-81573666D01*
X129716209Y-81573666D01*
X129906685Y-81621285D01*
X130001923Y-81668904D01*
X130097161Y-81764142D01*
X130144780Y-81907000D01*
X130144780Y-82145095D01*
X129573352Y-81002238D02*
X129525733Y-81097476D01*
X129478114Y-81145095D01*
X129382876Y-81192714D01*
X129335257Y-81192714D01*
X129240019Y-81145095D01*
X129192400Y-81097476D01*
X129144780Y-81002238D01*
X129144780Y-80811761D01*
X129192400Y-80716523D01*
X129240019Y-80668904D01*
X129335257Y-80621285D01*
X129382876Y-80621285D01*
X129478114Y-80668904D01*
X129525733Y-80716523D01*
X129573352Y-80811761D01*
X129573352Y-81002238D01*
X129620971Y-81097476D01*
X129668590Y-81145095D01*
X129763828Y-81192714D01*
X129954304Y-81192714D01*
X130049542Y-81145095D01*
X130097161Y-81097476D01*
X130144780Y-81002238D01*
X130144780Y-80811761D01*
X130097161Y-80716523D01*
X130049542Y-80668904D01*
X129954304Y-80621285D01*
X129763828Y-80621285D01*
X129668590Y-80668904D01*
X129620971Y-80716523D01*
X129573352Y-80811761D01*
X130144780Y-85478904D02*
X129144780Y-85478904D01*
X130144780Y-84907476D02*
X129573352Y-85336047D01*
X129144780Y-84907476D02*
X129716209Y-85478904D01*
%TO.C,D6*%
X180871904Y-77160380D02*
X180871904Y-76160380D01*
X181110000Y-76160380D01*
X181252857Y-76208000D01*
X181348095Y-76303238D01*
X181395714Y-76398476D01*
X181443333Y-76588952D01*
X181443333Y-76731809D01*
X181395714Y-76922285D01*
X181348095Y-77017523D01*
X181252857Y-77112761D01*
X181110000Y-77160380D01*
X180871904Y-77160380D01*
X182300476Y-76160380D02*
X182110000Y-76160380D01*
X182014761Y-76208000D01*
X181967142Y-76255619D01*
X181871904Y-76398476D01*
X181824285Y-76588952D01*
X181824285Y-76969904D01*
X181871904Y-77065142D01*
X181919523Y-77112761D01*
X182014761Y-77160380D01*
X182205238Y-77160380D01*
X182300476Y-77112761D01*
X182348095Y-77065142D01*
X182395714Y-76969904D01*
X182395714Y-76731809D01*
X182348095Y-76636571D01*
X182300476Y-76588952D01*
X182205238Y-76541333D01*
X182014761Y-76541333D01*
X181919523Y-76588952D01*
X181871904Y-76636571D01*
X181824285Y-76731809D01*
X177538095Y-77160380D02*
X177538095Y-76160380D01*
X178109523Y-77160380D02*
X177680952Y-76588952D01*
X178109523Y-76160380D02*
X177538095Y-76731809D01*
%TO.C,D5*%
X166720780Y-110974095D02*
X165720780Y-110974095D01*
X165720780Y-110736000D01*
X165768400Y-110593142D01*
X165863638Y-110497904D01*
X165958876Y-110450285D01*
X166149352Y-110402666D01*
X166292209Y-110402666D01*
X166482685Y-110450285D01*
X166577923Y-110497904D01*
X166673161Y-110593142D01*
X166720780Y-110736000D01*
X166720780Y-110974095D01*
X165720780Y-109497904D02*
X165720780Y-109974095D01*
X166196971Y-110021714D01*
X166149352Y-109974095D01*
X166101733Y-109878857D01*
X166101733Y-109640761D01*
X166149352Y-109545523D01*
X166196971Y-109497904D01*
X166292209Y-109450285D01*
X166530304Y-109450285D01*
X166625542Y-109497904D01*
X166673161Y-109545523D01*
X166720780Y-109640761D01*
X166720780Y-109878857D01*
X166673161Y-109974095D01*
X166625542Y-110021714D01*
X166720780Y-114307904D02*
X165720780Y-114307904D01*
X166720780Y-113736476D02*
X166149352Y-114165047D01*
X165720780Y-113736476D02*
X166292209Y-114307904D01*
%TO.C,D4*%
X144470380Y-110974095D02*
X143470380Y-110974095D01*
X143470380Y-110736000D01*
X143518000Y-110593142D01*
X143613238Y-110497904D01*
X143708476Y-110450285D01*
X143898952Y-110402666D01*
X144041809Y-110402666D01*
X144232285Y-110450285D01*
X144327523Y-110497904D01*
X144422761Y-110593142D01*
X144470380Y-110736000D01*
X144470380Y-110974095D01*
X143803714Y-109545523D02*
X144470380Y-109545523D01*
X143422761Y-109783619D02*
X144137047Y-110021714D01*
X144137047Y-109402666D01*
X144470380Y-114307904D02*
X143470380Y-114307904D01*
X144470380Y-113736476D02*
X143898952Y-114165047D01*
X143470380Y-113736476D02*
X144041809Y-114307904D01*
%TO.C,D3*%
X180871904Y-121356380D02*
X180871904Y-120356380D01*
X181110000Y-120356380D01*
X181252857Y-120404000D01*
X181348095Y-120499238D01*
X181395714Y-120594476D01*
X181443333Y-120784952D01*
X181443333Y-120927809D01*
X181395714Y-121118285D01*
X181348095Y-121213523D01*
X181252857Y-121308761D01*
X181110000Y-121356380D01*
X180871904Y-121356380D01*
X181776666Y-120356380D02*
X182395714Y-120356380D01*
X182062380Y-120737333D01*
X182205238Y-120737333D01*
X182300476Y-120784952D01*
X182348095Y-120832571D01*
X182395714Y-120927809D01*
X182395714Y-121165904D01*
X182348095Y-121261142D01*
X182300476Y-121308761D01*
X182205238Y-121356380D01*
X181919523Y-121356380D01*
X181824285Y-121308761D01*
X181776666Y-121261142D01*
X177538095Y-121356380D02*
X177538095Y-120356380D01*
X178109523Y-121356380D02*
X177680952Y-120784952D01*
X178109523Y-120356380D02*
X177538095Y-120927809D01*
%TO.C,D1*%
X150036304Y-118105180D02*
X150036304Y-117105180D01*
X150274400Y-117105180D01*
X150417257Y-117152800D01*
X150512495Y-117248038D01*
X150560114Y-117343276D01*
X150607733Y-117533752D01*
X150607733Y-117676609D01*
X150560114Y-117867085D01*
X150512495Y-117962323D01*
X150417257Y-118057561D01*
X150274400Y-118105180D01*
X150036304Y-118105180D01*
X151560114Y-118105180D02*
X150988685Y-118105180D01*
X151274400Y-118105180D02*
X151274400Y-117105180D01*
X151179161Y-117248038D01*
X151083923Y-117343276D01*
X150988685Y-117390895D01*
X140644595Y-116276380D02*
X140644595Y-115276380D01*
X141216023Y-116276380D02*
X140787452Y-115704952D01*
X141216023Y-115276380D02*
X140644595Y-115847809D01*
%TO.C,C8*%
X118237333Y-87887142D02*
X118189714Y-87934761D01*
X118046857Y-87982380D01*
X117951619Y-87982380D01*
X117808761Y-87934761D01*
X117713523Y-87839523D01*
X117665904Y-87744285D01*
X117618285Y-87553809D01*
X117618285Y-87410952D01*
X117665904Y-87220476D01*
X117713523Y-87125238D01*
X117808761Y-87030000D01*
X117951619Y-86982380D01*
X118046857Y-86982380D01*
X118189714Y-87030000D01*
X118237333Y-87077619D01*
X118808761Y-87410952D02*
X118713523Y-87363333D01*
X118665904Y-87315714D01*
X118618285Y-87220476D01*
X118618285Y-87172857D01*
X118665904Y-87077619D01*
X118713523Y-87030000D01*
X118808761Y-86982380D01*
X118999238Y-86982380D01*
X119094476Y-87030000D01*
X119142095Y-87077619D01*
X119189714Y-87172857D01*
X119189714Y-87220476D01*
X119142095Y-87315714D01*
X119094476Y-87363333D01*
X118999238Y-87410952D01*
X118808761Y-87410952D01*
X118713523Y-87458571D01*
X118665904Y-87506190D01*
X118618285Y-87601428D01*
X118618285Y-87791904D01*
X118665904Y-87887142D01*
X118713523Y-87934761D01*
X118808761Y-87982380D01*
X118999238Y-87982380D01*
X119094476Y-87934761D01*
X119142095Y-87887142D01*
X119189714Y-87791904D01*
X119189714Y-87601428D01*
X119142095Y-87506190D01*
X119094476Y-87458571D01*
X118999238Y-87410952D01*
%TO.C,C6*%
X133462733Y-116181142D02*
X133415114Y-116228761D01*
X133272257Y-116276380D01*
X133177019Y-116276380D01*
X133034161Y-116228761D01*
X132938923Y-116133523D01*
X132891304Y-116038285D01*
X132843685Y-115847809D01*
X132843685Y-115704952D01*
X132891304Y-115514476D01*
X132938923Y-115419238D01*
X133034161Y-115324000D01*
X133177019Y-115276380D01*
X133272257Y-115276380D01*
X133415114Y-115324000D01*
X133462733Y-115371619D01*
X134319876Y-115276380D02*
X134129400Y-115276380D01*
X134034161Y-115324000D01*
X133986542Y-115371619D01*
X133891304Y-115514476D01*
X133843685Y-115704952D01*
X133843685Y-116085904D01*
X133891304Y-116181142D01*
X133938923Y-116228761D01*
X134034161Y-116276380D01*
X134224638Y-116276380D01*
X134319876Y-116228761D01*
X134367495Y-116181142D01*
X134415114Y-116085904D01*
X134415114Y-115847809D01*
X134367495Y-115752571D01*
X134319876Y-115704952D01*
X134224638Y-115657333D01*
X134034161Y-115657333D01*
X133938923Y-115704952D01*
X133891304Y-115752571D01*
X133843685Y-115847809D01*
%TO.C,C5*%
X130535642Y-121943666D02*
X130583261Y-121991285D01*
X130630880Y-122134142D01*
X130630880Y-122229380D01*
X130583261Y-122372238D01*
X130488023Y-122467476D01*
X130392785Y-122515095D01*
X130202309Y-122562714D01*
X130059452Y-122562714D01*
X129868976Y-122515095D01*
X129773738Y-122467476D01*
X129678500Y-122372238D01*
X129630880Y-122229380D01*
X129630880Y-122134142D01*
X129678500Y-121991285D01*
X129726119Y-121943666D01*
X129630880Y-121038904D02*
X129630880Y-121515095D01*
X130107071Y-121562714D01*
X130059452Y-121515095D01*
X130011833Y-121419857D01*
X130011833Y-121181761D01*
X130059452Y-121086523D01*
X130107071Y-121038904D01*
X130202309Y-120991285D01*
X130440404Y-120991285D01*
X130535642Y-121038904D01*
X130583261Y-121086523D01*
X130630880Y-121181761D01*
X130630880Y-121419857D01*
X130583261Y-121515095D01*
X130535642Y-121562714D01*
%TO.C,C4*%
X174839333Y-93642142D02*
X174791714Y-93689761D01*
X174648857Y-93737380D01*
X174553619Y-93737380D01*
X174410761Y-93689761D01*
X174315523Y-93594523D01*
X174267904Y-93499285D01*
X174220285Y-93308809D01*
X174220285Y-93165952D01*
X174267904Y-92975476D01*
X174315523Y-92880238D01*
X174410761Y-92785000D01*
X174553619Y-92737380D01*
X174648857Y-92737380D01*
X174791714Y-92785000D01*
X174839333Y-92832619D01*
X175696476Y-93070714D02*
X175696476Y-93737380D01*
X175458380Y-92689761D02*
X175220285Y-93404047D01*
X175839333Y-93404047D01*
%TO.C,C3*%
X174839333Y-95405142D02*
X174791714Y-95452761D01*
X174648857Y-95500380D01*
X174553619Y-95500380D01*
X174410761Y-95452761D01*
X174315523Y-95357523D01*
X174267904Y-95262285D01*
X174220285Y-95071809D01*
X174220285Y-94928952D01*
X174267904Y-94738476D01*
X174315523Y-94643238D01*
X174410761Y-94548000D01*
X174553619Y-94500380D01*
X174648857Y-94500380D01*
X174791714Y-94548000D01*
X174839333Y-94595619D01*
X175172666Y-94500380D02*
X175791714Y-94500380D01*
X175458380Y-94881333D01*
X175601238Y-94881333D01*
X175696476Y-94928952D01*
X175744095Y-94976571D01*
X175791714Y-95071809D01*
X175791714Y-95309904D01*
X175744095Y-95405142D01*
X175696476Y-95452761D01*
X175601238Y-95500380D01*
X175315523Y-95500380D01*
X175220285Y-95452761D01*
X175172666Y-95405142D01*
%TO.C,C2*%
X174839333Y-107112142D02*
X174791714Y-107159761D01*
X174648857Y-107207380D01*
X174553619Y-107207380D01*
X174410761Y-107159761D01*
X174315523Y-107064523D01*
X174267904Y-106969285D01*
X174220285Y-106778809D01*
X174220285Y-106635952D01*
X174267904Y-106445476D01*
X174315523Y-106350238D01*
X174410761Y-106255000D01*
X174553619Y-106207380D01*
X174648857Y-106207380D01*
X174791714Y-106255000D01*
X174839333Y-106302619D01*
X175220285Y-106302619D02*
X175267904Y-106255000D01*
X175363142Y-106207380D01*
X175601238Y-106207380D01*
X175696476Y-106255000D01*
X175744095Y-106302619D01*
X175791714Y-106397857D01*
X175791714Y-106493095D01*
X175744095Y-106635952D01*
X175172666Y-107207380D01*
X175791714Y-107207380D01*
%TO.C,C1*%
X174839333Y-112929942D02*
X174791714Y-112977561D01*
X174648857Y-113025180D01*
X174553619Y-113025180D01*
X174410761Y-112977561D01*
X174315523Y-112882323D01*
X174267904Y-112787085D01*
X174220285Y-112596609D01*
X174220285Y-112453752D01*
X174267904Y-112263276D01*
X174315523Y-112168038D01*
X174410761Y-112072800D01*
X174553619Y-112025180D01*
X174648857Y-112025180D01*
X174791714Y-112072800D01*
X174839333Y-112120419D01*
X175791714Y-113025180D02*
X175220285Y-113025180D01*
X175506000Y-113025180D02*
X175506000Y-112025180D01*
X175410761Y-112168038D01*
X175315523Y-112263276D01*
X175220285Y-112310895D01*
%TD*%
M02*
